<svg version="1.1" id="Layer_1" xmlns="http://www.w3.org/2000/svg" xmlns:xlink="http://www.w3.org/1999/xlink" x="0px" y="0px"
	 viewBox="0 283.9 595.3 279" enable-background="new 0 283.9 595.3 279" xml:space="preserve" class="svg-logo" width="100%" height="100%">
<path fill="#FFFFFF" d="M196.6,460.7c-6.3,1.9-6,0.7-8.9-19.3c-20.1-18.3,32.1-22.2,41.9-25.7c8.4-0.6,38.8-3.6,41.7,0.9
	c13,20.2,0.3,38.2-14.8,60.3c-0.2,0.2-33.5-5.2-33.7-5.1"/>
<path fill="#12100D" d="M212.1,467l0.4,0.2l0.5,0.2l0.5,0.1l0.5,0.1l-0.4,2.5l-0.3,2.5l-0.2,2.5v2.6v0.6v0.6l0.1,0.5l0.1,0.5
	l0.1,0.5l0.2,0.5l0.2,0.5l0.2,0.5l0.2,0.4l0.3,0.4l0.3,0.3l0.3,0.3l0.3,0.2l0.4,0.2l0.4,0.2l0.5,0.2l0.2,0.7l0.2,0.7l0.2,0.7
	l0.2,0.8l0.3,1.6l0.1,0.8l0.1,0.8l0.1,0.6l0.1,0.6l0.1,0.6l0.1,0.6l0.3,1.2l0.4,1.2l0.2,0.5l0.2,0.5l0.2,0.5l0.2,0.5l0.5,0.9
	l0.5,0.9l-0.1-0.5v-0.4v-0.4v-0.4l0.1-0.6l0.1-0.4l0.1-0.3l0.3-0.7l0.3-0.6l0.2-0.6l0.1-0.3l0.1-0.3l0.1,0.7l0.1,0.7l0.2,0.7
	l0.2,0.7l0.2,0.6l0.3,0.7l0.2,0.4l0.2,0.4l0.4,0.7l0.8,1.4l0.5,0.6l0.5,0.6l0.5,0.6l0.5,0.6l1,1.2l1,1.1l0.5,0.5l0.5,0.5l0.5,0.5
	l0.5,0.5l1.2,0.9l0.4,0.3l0.2,0.2l0.2,0.2l0.8,0.5l0.7,0.5l0.7,0.5v-0.6v-0.5v-0.5v-0.5v-0.5v-0.4v-0.4v-0.3l0.4,1l0.5,1l0.5,1
	l0.6,1l0.4,0.5l0.4,0.5l0.8,1l1.1,1.2l1.1,1.2l1.1,1.1l1.1,1l1.1,1l1.2,0.9l1.2,0.8l1.2,0.8l0.1-0.8l0.2-0.7l0.2-0.6l0.2-0.5
	l0.2,0.4l0.2,0.4l0.2,0.4l0.2,0.4l0.2,0.4l0.3,0.4l0.3,0.4l0.3,0.4l0.3,0.3l0.3,0.3l0.3,0.3l0.4,0.3l0.6,0.5l0.4,0.3l0.4,0.3
	l0.9,0.5l0.9,0.5l0.9,0.4l1,0.4l1,0.3l1.1,0.3l1.1,0.2l1.2,0.2v-0.5l0.1-0.5l0.1-0.4l0.1-0.4l0.1-0.3l0.2-0.3l0.2-0.2l0.2-0.2
	l0.2-0.1l0.2-0.1h0.2l0.3,0.1l0.3,0.1l0.3,0.2l0.3,0.2l0.4,0.3l0.6,0.5l0.6,0.5l1.4,0.9l0.7,0.5l0.7,0.4l1.4,0.7l1.4,0.6l0.7,0.3
	l0.7,0.3l0.7,0.2l0.7,0.2l0.7,0.2l0.7,0.2l0.8,0.2l0.8,0.3l-0.6,0.1h-0.4h-0.2h-0.2h-0.2h-0.2h-0.4h-0.4H272h-0.5h-0.5h-0.5h-0.5
	h-0.5h-0.5h-0.9h-1.2H266h-1.2l-1.1,0.1l-1.1,0.1l-1,0.1l-1,0.1l-1,0.2v0.4v0.4l0.1,0.4l0.1,0.4l0.1,0.3l0.2,0.4l0.2,0.3l0.2,0.3
	h-0.6h-0.5h-0.5l-0.5-0.1l-0.5-0.1l-0.5-0.1l-0.5-0.2l-0.5-0.2l-1.4-0.5l-1.4-0.4l-1.4-0.3l-1.4-0.2l-1.4-0.1h-0.7l-0.7,0.1
	l-1.4,0.2l-1.4,0.3l0.3,0.3l0.3,0.3l0.1,0.1l0.1,0.2l0.1,0.1l0.1,0.2l0.2,0.2l0.2,0.2l0.2,0.2l0.1,0.1l0,0l0,0l0,0l-0.9,0.5
	l-0.8,0.6l-0.8,0.6l-0.8,0.7l-0.8,0.7l-0.7,0.7l-0.7,0.7l-0.7,0.8l-0.5,0.5l-0.5,0.5l-0.5,0.5l-0.5,0.5l-0.5,0.4l-0.5,0.4l-0.5,0.4
	l-0.5,0.4l-0.5,0.3l-0.3,0.2l-0.3,0.2l-0.3,0.1l-0.3,0.2l-0.6,0.3l-0.6,0.2l-0.6,0.2l-0.6,0.2l-0.4,0.1l-0.3,0.1l0.9,0.8l0.9,0.9
	l0.9,1l0.9,1.1l-1.9-0.1l-1.8-0.1l-1.2-0.1l-1.1-0.1l-1.1-0.2l-1.1-0.2l-1.1-0.2l-1-0.3l-1-0.3l-1-0.3l-1-0.4l-0.9-0.4l-0.9-0.5
	l-0.9-0.5l-0.9-0.5l-0.8-0.5l-0.8-0.5l-0.8-0.5l0.1,0.5l0.2,0.5l0.2,0.4l0.3,0.4l0.3,0.3l0.3,0.3l0.3,0.2l0.4,0.2l-1.1-0.1l-1.1-0.1
	l-1-0.2l-1-0.2l-1-0.3l-1-0.3l-1-0.3l-1-0.3l-1-0.4l-0.9-0.4l-0.9-0.4l-0.9-0.4l-0.9-0.5l-0.9-0.5l-1.8-1l-0.9-0.5l-0.8-0.5
	l-0.8-0.5l-0.8-0.5l-1.3-1l-0.6-0.5l-0.5-0.5l-0.5-0.5l-0.5-0.5l-0.5-0.5l-0.5-0.5l-0.5-0.5l-0.4-0.5l-0.4-0.5l-0.4-0.5L193,531
	l-0.3-0.5l-0.5-1l-0.3,0.6l-0.3,0.6l-0.3,0.6l-0.3,0.5l-0.4,0.5l-0.3,0.5l-0.2,0.2l-0.2,0.3l-0.3,0.5l-0.4-0.6l-0.4-0.6l-0.5-1.3
	l-0.5-1.3l-0.5-1.3l-0.2-0.7l-0.2-0.6L187,526l-0.1-0.7l-0.1-0.7l-0.1-1.4l-0.1-1.3l-0.1-1.2l-0.1-1.2v-1.2v-1.1v-1.1v-1.1v-1
	l-0.6,0.4l-0.3,0.2l-0.3,0.2L185,515l-0.3,0.1l-0.6,0.2h-0.7h-0.7l-0.4-0.1l-0.4-0.1h-0.1h-0.1l0,0h-0.2l-0.4-0.1l1-2.2l0.5-1.1
	l0.5-1.1l0.8-1.6l0.5-1.1l0.5-1.1l0.5-1.1l0.5-1.1l0.5-1.1l0.5-1.1l0.5-1.1l0.2-0.5l0.2-0.5l0.2-0.5l0.2-0.5l0.2-0.5l0.2-0.5
	l0.3-1.2l0.3-1.2l0.2-1.2l0.2-1.2l0.1-0.6l0.1-0.6l0.2-1.2l0.1-1.3l0.1-1.3l0.1-1.3l0.1-1.3v-1.3v-1.3v-1.3L190,481l-0.1-2.5
	l-0.2-2.4l-0.1-1.2l-0.1-1.2l-0.2-1.2l-0.2-1.2l-0.2-1.3l-0.1-1.2l-0.1-1.2v-1.2l0.1-1.2l0.2-1.2l0.2-1.2l0.3-1.2l0.4,0.2l0.4,0.3
	l0.7,0.6l0.7,0.7l0.7,0.8l0.4-0.6l0.4-0.5l0.4-0.5l0.5-0.5l0.5-0.5l0.5-0.5l0.5-0.5l0.5-0.4l0.4,1.4l0.4,1.4l0.3,1.5l0.2,1.5
	l0.1,1.3l0.1,1.3v1.3v1.4l0.4-0.1l0.4-0.1l0.4-0.1l0.4-0.1l0.2-0.1l0.2-0.1l0.4-0.1l0.6-0.3l0.6-0.3l0.3-0.2l0.3-0.2l0.3-0.2
	l0.2-0.1l0.1-0.1h0.1l0.5-0.4v0.4v0.4v0.7v0.7l-0.1,0.7l-0.1,0.7l-0.1,0.7l-0.2,0.7l-0.2,0.7l-0.5,1.6l-0.5,1.6l-0.5,1.6l-0.5,1.6
	l-0.5,1.5l-0.5,1.5l-0.6,1.5l-0.3,0.8l-0.3,0.8l0.5-0.2l0.6-0.2l0.5-0.2l0.2-0.1h0.2l0.3-0.1l0.3-0.1l0.2-0.1h0.2l0.5-0.2l0.3-0.1
	l0.2-0.1h0.2l0.5-0.2l0.5,4.9l0.6,5l1.4,10.9l0.1,0.8l0.2,0.8l0.2,0.8l0.2,0.8l0.4,1.4l0.2,0.7l0.2,0.7l0.5,1.4l0.5,1.4l0.2-0.1
	l0.2-0.1l0.1-0.1l0.1-0.1l0.1-0.1l0.1-0.1l0.2-0.2l0.1-0.1l0.1-0.1l0.1-0.2l0.1-0.2l0.4-0.7l0.5-0.6l0.5-0.5l0.5-0.5l0.5-0.4
	l0.5-0.3l0.5-0.2l0.5-0.1h0.5l0.5,0.1l0.5,0.2l0.5,0.2l0.5,0.3l0.5,0.4l0.5,0.5l0.5,0.5l1.6,1.9l1.7,1.9l1.6,1.9l1.7,2l0.3,0.3
	l0.3,0.3l0.3,0.3l0.3,0.3l0.2,0.2l0.3,0.2l0.2,0.2l0.1,0.1h0.1l0.1,0.1l0.2,0.1l0.2,0.1l0.2,0.1l0,0h0.1h0.1h0.1l0,0h0.1h0.2h0.1
	h0.1h0.2l0.1-0.1l0.2-0.1l0.1-0.1l0.1-0.1l0.2-0.1l0.1-0.2l0.1-0.2v-0.1v-0.1l0,0l0.1-0.2l0.1-0.3v-0.2v-0.1v-0.1v-0.1v-0.1v-0.2
	l0.1-0.3v-0.4l0.1-0.4V520l0.1-0.4l0.5,0.6l0.5,0.6l0.5,0.5l0.6,0.5l0.6,0.5l0.7,0.5l0.7,0.4l0.7,0.4v0v-1.2l1.4,0.4l1.4,0.4
	l1.4,0.4l1.3,0.4l1.2,0.4l0.5,0.2l0.5,0.2l0.5,0.1l0.5,0.1l0.5,0.1h0.3h0.2h0.2l0.5,0.1h0.1h0.2h0.3h0.5h0.5h0.3h0.3h0.5l1-0.1
	l-0.5-0.3l-0.5-0.3l-0.6-0.2l-0.7-0.2l-1.5-0.5l-1.4-0.5l-0.7-0.3l-0.7-0.3l-1.4-0.6l-0.7-0.4l-0.6-0.4l-0.6-0.4l-0.6-0.4l-0.6-0.5
	l-0.6-0.5l-0.6-0.5l-0.5-0.5l-0.1,0.3l-0.5,0.3l-0.1,0.3l-0.1,0.2v0.1l0,0v0.1L232,520l0,0l0,0v0.1l-0.1,0.2l-0.1,0.1l0,0l0,0v0.1
	l-0.2,0.2l-0.1-0.1h-0.1l-0.1-0.1l-0.2-0.2l-0.5-0.3l-0.5-0.3l-0.5-0.3l-0.5-0.4l-0.5-0.3l-0.5-0.4l-0.5-0.3l-0.5-0.3l-0.4-0.3
	l-0.4-0.3l-0.4-0.3l-0.4-0.3l-0.4-0.3L225,516l-0.6-0.6l-0.5-0.6l-0.5-0.7l-0.3-0.4l-0.2-0.4l-0.3-0.5l-0.3-0.4l-0.3-0.4l-0.3-0.3
	l-0.3-0.3l-0.3-0.2l-0.3-0.2l-0.3-0.1h-1.3l-0.3,0.1l-0.2,0.2l-0.3,0.2l-0.2,0.3l-0.3,0.3l-0.2,0.4l-0.2,0.4l-0.2,0.5l-0.7-1.1
	l-0.4-0.5l-0.4-0.5l-0.5-0.8l-0.5-0.8l-0.5-0.8l-0.4-0.8l-0.9-2.1l-0.9-2l-0.8-2l-0.8-1.9l-0.2,0.2l-0.2,0.2l-0.3,0.2l-0.3,0.2
	l-0.2,0.1l-0.2,0.1l-0.4,0.2l-0.5,0.2l-0.5,0.2l-0.2-0.5l-0.2-0.5l-0.2-0.5l-0.2-0.5l-0.2-0.5l-0.1-0.5l-0.2-1.2l-0.1-0.6l-0.1-0.6
	l-0.1-0.6v-0.6v-0.7v-0.7l0.1-1.4l0.1-1.4l0.2-1.4l0.2-1.4l0.3-1.4l0.2-0.8l0.1-0.4l0.1-0.4v-0.4v-0.4v-0.6l-0.1-0.4v-0.3l-0.1-0.5
	l-0.2-0.5l-0.1-0.2l-0.1-0.2l-0.3-0.4l-0.2-0.2l-0.2-0.2l-0.5-0.3l-0.5-0.2l-0.5-0.2l-0.5-0.1h-0.4h-0.5h-0.4h-0.4l0.6-0.8l0.7-0.9
	l0.7-1l0.7-1l0.2-0.3l0.2-0.3l0.4-0.5l0.4-0.5l0.2-0.3l0.2-0.3l0.2-0.3l0.2-0.3l0.3-0.5l0.3-0.5l0.3-0.5l0.3-0.6l0.3-0.5l0.3-0.6
	l0.3-0.6l0.2-0.6l0.2-0.6l0.2-0.6l0.2-0.6l0.2-0.8l0.2,0.3l0.3,0.2L212.1,467L212.1,467z M262,420l0.2-0.5l-2.6-0.2l-2.5-0.1
	l-2.5-0.1h-2.4h-2.4l-2.4,0.1l-2.3,0.1l-2.3,0.2v0.3v0.4v0.3v0.4v0.6v0.3v0.3v0.3v0.3v0.5v0.3v0.3l-0.1,0.5l-0.1,0.5l-0.1,0.2
	l-0.1,0.3l-0.2,0.5l-0.2,0.5l-0.1,0.2l-0.1,0.2l-0.2,0.4l-0.2,0.4l-0.2,0.4l-0.8,0.1l-0.7,0.2l-0.7,0.2l-0.6,0.2l-0.6,0.2l-0.6,0.2
	l-0.5,0.3l-0.5,0.3l-0.5,0.3l-0.5,0.3l-0.5,0.4l-0.5,0.4l-0.5,0.4l-0.4,0.4l-0.4,0.5l-0.3,0.5l-0.4,0.5l-0.3,0.5l-0.4,0.4l-0.3,0.4
	l-0.4,0.4l-0.2,0.2h-0.1v0.1l-0.1,0.1l-0.1,0.1h-0.1v0.1l-0.2,0.2l-0.4,0.4l-0.4,0.3l-0.2,0.2l-0.2,0.2l-0.7,0.5l-0.8,0.5l-0.5,0.2
	l-0.4,0.2l-0.5,0.2l-0.5,0.2l-0.5,0.1l-0.5,0.1h-0.5h-0.5l-0.5-0.1l-0.4-0.1l-0.5-0.2l-0.4-0.2l-0.4-0.2l-0.4-0.3l-0.4-0.3l-0.3-0.4
	l-0.3-0.4l-0.3-0.5l0.3,0.6l0.3,0.6l0.2,0.6l0.1,0.7v0.7l-0.1,0.7l-0.1,0.4l-0.1,0.4l-0.2,0.8l0.5,0.1l0.5,0.1l0.5,0.1l0.5,0.2
	l0.5,0.2l0.5,0.2l0.9,0.4l0.9,0.4l0.8,0.5l0.8,0.5l0.8,0.5l0.1-0.3l0.1-0.3v-0.4v-0.3l-0.1-0.4l-0.2-0.3l-0.2-0.4l-0.2-0.3l1.2-0.1
	l1.3-0.1l1.2-0.1l0.6-0.1l0.6-0.1l0.5-0.1l0.6-0.1l1.2-0.2l1.2-0.2l1.2-0.2l0.5-0.2l0.5-0.2l0.5-0.2l0.3-0.1l0.3-0.1l0.5-0.2
	l0.5-0.2l0.3-0.1l0.3-0.1l0.5-0.2l0.5-0.3l0.5-0.3l0.5-0.3l0.5-0.3l0.4-0.4l0.4-0.3l0.4-0.4l0.4-0.4l1.2-1.4l1.3-1.4l1.3-1.4
	l1.3-1.3l0.3-0.3l0.4-0.3l0.3-0.2l0.4-0.2l0.3-0.2l0.3-0.1l0.3-0.1h0.3h0.3l0.3,0.1l0.3,0.1l0.3,0.2l0.3,0.2l0.3,0.2l0.3,0.3
	l0.3,0.3l0.3,0.3l0.2,0.3l0.2,0.3l0.2,0.3l0.2,0.3l0.2,0.3l0.1,0.3l0.1,0.3l0.1,0.6l0.2,0.6l0.2,0.5l0.1,0.3l0.2,0.3l-0.2,1.6
	l0.6-2.5l0.6-2.4l0.4-1.2l0.4-1.1l0.7-2.2l0.8-2.1l0.4-1l0.5-0.9l0.5-0.9l0.5-0.9L262,420L262,420z M230.8,467.1l0.3-0.2H231
	l0.5-0.4l0.5-0.5l0.5-0.5l0.5-0.4l0.5-0.4l0.4-0.4l0.4-0.4l0.3-0.3l1-1.2l0.9-1.2l0.2-0.3l0.2-0.3l0.2-0.3l0.2-0.2l0.2-0.2l0.2-0.2
	l0.4-0.3l0.1-0.2l0.1-0.1l0.1-0.1h0.1h0.1h0.1l0,0v0.1l3-1.2l0.2-0.2l0.3-0.1l0.3-0.1l0.4-0.1l0.5-0.1h0.5h0.5l0.6,0.1v-0.2l0.2,0.1
	l0.6,0.2l0.6,0.2h0.2l0.3,0.1l0.4,0.1l0.4,0.1l0.4,0.2l0.4,0.2l0.3,0.2l0.2,0.2l0.2,0.2l0.2,0.3l0.5,0.8l0.4,0.8l0.3,0.9l0.3,0.9
	l0.2,0.9l0.2,1l0.1,1l0.1,1l0,0v1l-0.1,1.1v0.2v0.1v0.1v0.1v0.1l-0.1,0.2l-0.1,0.1v0.1l-0.1,0.2l-0.1,0.1l0,0l0,0l0,0l0,0l-0.1,0.2
	l-0.3,0.3l0,0l0,0l0,0l-0.1,0.1l-0.2,0.2l-0.3,0.3l-0.3,0.3l-0.7,0.5l-0.4,0.2l-0.4,0.2l-0.5,0.1l-0.5,0.1H246h-0.2h-0.2h-0.3h-0.2
	l-0.5-0.1l-0.3-0.1l-0.2-0.1l-0.5-0.2l-0.7-0.4l-0.6-0.3l-0.6-0.2l-0.6-0.2l-0.5-0.1h-0.5h-0.3h-0.2l-0.5,0.1l-0.5,0.2l-0.4,0.2
	l-0.4,0.3l-0.3,0.4l-0.3,0.4l-0.1,0.2l-0.1,0.3l-0.1,0.3l-0.1,0.3l-0.1,0.6l-0.1,0.5l-0.1,0.5l-0.2,0.4l-0.2,0.4l-0.2,0.4l-0.2,0.4
	l-0.1,0.2l-0.1,0.2L236,477l-0.1,0.2l-0.3,0.3l-0.3,0.3l-0.3,0l-0.1,0.2l-0.2,0.1l-0.1,0.2l-0.3,0.2l-0.3,0.3l-0.4,0.2l-0.4,0.2
	l-0.7,0.4l-0.6,0.3l-0.6,0.2l-0.6,0.2l-0.6,0.1l-0.5,0.1h-0.5l-0.5-0.1l-0.5-0.2l-0.5-0.2l-0.5-0.3l-0.5-0.3l-0.5-0.4l-0.5-0.5
	l-0.5-0.5l-0.4-0.5l-0.1,0.6l-0.1,0.7l-0.1,0.6l-0.1,0.6l-0.1,0.6l-0.1,0.3v0.4l-0.1,0.3l-0.1,0.3l-0.1,0.6l-0.1,0.3l-0.1,0.3
	l-0.2,0.5v0.1v0.1v0.2l-0.1,0.3l-0.2,0.5l-0.2,0.5l-0.2,0.5l-0.2,0.5l-0.2,0.5l-0.7-2.2l-0.7-2.2l-0.7-2.1l-0.8-2.1l-0.4-1.1l-0.3-1
	l-0.2-1v-1l0.1-1l0.2-1l0.1-0.5l0.2-0.5l0.4-1l0.2-0.5l0.3-0.5l0.3-0.4l0.4-0.4l0.4-0.4l0.5-0.4l0.5-0.4l0.5-0.3h-0.5h-0.5h-0.5
	h-0.5l-0.5-0.1l-0.4-0.1l-0.4-0.1l-0.4-0.1l-0.4-0.2l-0.3-0.2l-0.3-0.2l-0.3-0.2l-0.3-0.3l-0.2-0.3l-0.2-0.3l-0.2-0.3l-0.2-0.4
	l-0.2-0.4l-0.2-0.4l-0.1-0.4l-0.1-0.5l-0.1-0.5l-0.1-0.5v-0.5l-0.1,0.2l-0.2,0.2l-0.2,0.2l-0.2,0.2l-0.2,0.1l-0.2,0.1l-0.3,0.1
	l-0.3,0.1l-0.6,0.1l-0.6,0.1h-0.5h-0.5l-0.5-0.1l-0.5-0.1l-0.5-0.1l-0.5-0.1l-0.5-0.2l-0.5-0.2l-0.5-0.2l-0.5-0.3l-0.5-0.3l-0.5-0.3
	l-0.4-0.4l-0.4-0.4l-0.5-0.5l-0.4-0.5l-0.4-0.5l-0.3-0.5l-0.3-0.5l-0.3-0.5l-0.2-0.5l-0.2-0.5l-0.2-0.5l-0.1-0.5l-0.1-0.5l-0.1-0.5
	v-0.6v-0.6v-0.6l0.1-0.6l0.1-0.6l0.2-0.6l0.2-0.5l0.1-0.3l0.2-0.3l0.3-0.5l0.3-0.5l0.4-0.4l0.4-0.4l0.5-0.4l0.2-0.2l0.3-0.1l0.5-0.2
	l0.5-0.2l0.6-0.2l0.3-0.1h0.4l0.7-0.1h0.7h0.3h0.3l0.3-0.1l0.3-0.1l0.5-0.2l0.3-0.2l0.3-0.2l0.2-0.2l0.2-0.2l0.1-0.2l0.1-0.1v-0.1
	l0.1-0.1l0.1-0.2l0.2-0.4l0.1-0.2l0.1-0.2l0.1-0.2l0.1-0.2v0.2l0,0l0,0v-0.1l0.1-0.2l0.2-1l0.2-1l0.1-0.5l0.1-0.5l0.1-0.5v-0.3V440
	v-0.1l-0.1,0.2v0.1v0.1v0.1l-0.1,0.5l-0.2,0.4l-0.2,0.4l-0.2,0.4l-0.2,0.3l-0.2,0.3l-0.2,0.3l-0.3,0.2l-0.3,0.2l-0.3,0.2l-0.3,0.2
	l-0.3,0.1l-0.3,0.1l-0.4,0.1h-0.2h-0.2h-0.4h-0.4h-0.4h-0.3h-0.4h-0.3h-0.3h-0.3l-0.6-0.1l-0.5-0.1l-0.5-0.1l-0.5-0.1l-0.5-0.1
	l-0.5-0.1l-0.5-0.1L205,443l-0.5-0.2l-0.5-0.2l-0.5-0.2l-0.4-0.2l-0.4-0.2l-0.4-0.2l-0.4-0.2l-0.3-0.2l-0.2,0.1l-0.1,0.2l-0.2,0.1
	l-0.1,0.2l-0.3,0.2l-0.3,0.3l-0.3,0.2l-0.3,0.2l-0.4,0.5l-0.3,0.2l-0.4,0.2l-0.4,0.2l-0.4,0.1l-0.4,0.1H198h-0.1h-0.1l-0.4,0.1h-0.2
	h-0.2H197h-0.2v-0.6v-0.5v-0.5V442v-0.5V441l-0.1-0.5l-0.1-0.5l-0.1-0.5l-0.1-0.4l-0.2-0.4l-0.2-0.4l-0.2-0.4l-0.2-0.3l-0.2-0.3
	l-0.2-0.3l-0.5,0.4l-0.4,0.4l-0.4,0.1l-0.4,0.1h-0.4h-0.4h-0.4h-0.3l-0.5-0.1l-0.5-0.2l-0.2-0.1l-0.2-0.1l-0.2-0.2l-0.2-0.2
	l-0.2-0.2l-0.1-0.2l-0.2-0.2l-0.1-0.2l-0.1-0.3l-0.1-0.3l-0.1-0.5v-0.3v-0.3v-0.4v-0.4l0.1-0.7l0.1-0.5l0.1-0.4l0.1-0.5l0.2-0.5
	l-0.5-1.2l-0.5-1.2l-0.5-1.2l-0.5-1.2l-0.8-2.3l-0.4-1.2l-0.4-1.1l-1.4,2.8l-1.4,2.9l-1.4,3.3l-0.7,1.7l-0.7,1.8l-0.9,2.3l-0.9,2.3
	l-0.9,2.3l-1,2.3l-0.5,1.1l-0.5,1.2l-0.5,1.2l-0.5,1.2l-0.5,1.2l-0.4,1.3l-0.4,1.3l-0.4,1.3l-0.5,1.5l-0.4,1.5l-0.7,3.2l-0.4,1.5
	l-0.3,1.6l-0.3,1.6l-0.2,1.6l-0.1,0.5l-0.2,1.2l-0.2,1.3l-0.2,1.3l-0.1,1.3l-0.2,2.6l-0.1,1.3v1.4l-0.5,16.4l-0.1,3.3v3.3v3.3v3.4
	v3.5l0.1,3.5l0.2,3.5l0.1,1.3l0.2,1.3l0.2,1.3l0.2,1.3l0.2,1.2l0.3,1.3l0.4,1.2l0.4,1.2l0.3,0.7l0.3,0.8l0.6,1.5l0.3,0.7l0.4,0.7
	l0.7,1.4l0.4,0.7l0.4,0.7l0.8,1.4l0.5,0.7l0.5,0.7l0.5,0.6l0.5,0.7l0.6,0.8l0.4,0.5l0.4,0.5l0.8,0.8l0.4,0.5l0.5,0.5l0.8,0.8
	l0.5,0.4l0.5,0.5l0.9,0.8l1,0.8l1.2,0.9l1.3,0.8l1.3,0.8l1.3,0.7l1.3,0.7l1.3,0.6l1.3,0.5l1.3,0.5l1.4,0.5l1.5,0.5l1.5,0.5l1.5,0.4
	l1.6,0.4l1.6,0.4l1.6,0.3l1.7,0.3l1.4,0.2l1.4,0.2l1.4,0.1l1.4,0.1h1.4h1.4l1.4-0.1l1.4-0.1l-0.5-0.4l-0.4-0.5l-0.4-0.5l-0.3-0.5
	l-0.2-0.5l-0.1-0.3l-0.1-0.3l-0.1-0.5v-0.3v-0.3l1.5,0.2l1.5,0.2l1.5,0.1l1.6,0.1h1.6l1.7-0.1l1.7-0.2l1.7-0.2l1.3-0.2l1.3-0.2
	l1.3-0.3l1.3-0.3l0.2-0.1h0.2l0.3-0.1l0.6-0.2l0.2-0.1h0.2l0.3-0.1l0.6-0.2l0.5-0.2l0.2-0.1h0.2l0.3-0.1l1.2-0.4l1.2-0.5l1.2-0.5
	l1.2-0.5l1.2-0.5l1.2-0.5l1.2-0.5l1.1-0.5l1.1-0.5l2.4-1.1l2.5-1l2.5-0.9l2.6-0.8l1.4-0.4l1.4-0.3l1.4-0.2l1.4-0.1h1.4l1.4,0.1
	l1.4,0.2l1.4,0.2l-0.1-0.5l-0.1-0.3v-0.3l-0.1-0.3l-0.1-0.3l0,0l-0.2-0.5l-0.1-0.3l-0.1-0.3l-0.1-0.3l-0.1-0.3l-0.3-0.5l0.4-0.3
	l0.5-0.3l0.5-0.3l0.5-0.2l0.5-0.2l0.5-0.2l0.5-0.2l0.5-0.1l0.5-0.1l0.5-0.1l0.5-0.1h0.6h0.6h0.6h0.6l0.7,0.1l1.6,0.2l1.6,0.2
	l1.6,0.2l1.6,0.3l3.2,0.5l3.2,0.5l0.7,0.2l0.7,0.2l0.7,0.2l0.7,0.2l0.7,0.2l0.7,0.2l1.4,0.5l1.4,0.5l1.4,0.5l1.4,0.6l0.6,0.3
	l0.6,0.4l-0.5-0.7l-0.6-0.6l-0.4-0.4l-0.3-0.3l-0.6-0.5l-0.7-0.5l-0.4-0.3l-0.4-0.2l-0.7-0.5l-0.4-0.2l-0.4-0.2l0.3-0.1h0.3l0.5-0.1
	l0.5-0.1l0.5-0.1l1.5-0.5l1.5-0.5l1.5-0.5l1.6-0.4l1.6-0.4l1.6-0.3l1.6-0.3l1.7-0.2l1.7-0.3l1.7-0.2l3.5-0.3l1.8-0.1l1.8-0.1
	l3.6-0.1h1.7l1.7,0.1l1.7,0.1l1.7,0.2l1.7,0.2l1.7,0.2l0.8,0.1l0.8,0.2l1.7,0.3l1.6,0.3l1.7,0.3l1.7,0.3l1.7,0.3l1.7,0.2l1.8,0.2
	l1.8,0.2l1.8,0.1h1.3l1.3,0.1h1.3h1.3h1.3h0.2h0.2h0.3h0.6l1.2-0.1h1.2l0.5-0.1l0.5-0.1l1-0.2l1-0.3l0.5-0.2l0.5-0.2l0.2-0.1
	l0.3-0.1l0.5-0.2l0.9-0.4l0.5-0.2l0.1-0.1h0.1h0.1l0.3-0.1l0.9-0.5l0.5-0.4l0.5-0.4l0.5-0.4l0.1-0.1l0.2-0.1l0.3-0.2l0.5-0.5
	l0.3-0.2l0.1-0.1l0.2-0.1l0.5-0.5l0.5-0.5l0.5-0.5l0.5-0.5l0.5-0.5l0.5-0.5l0.4-0.5l0.4-0.5l0.4-0.5l0.4-0.5l0.4-0.6l0.4-0.5
	l0.6-1.2l0.3-0.5l0.3-0.5l0.3-0.5l0.3-0.5l0.2-0.5l0.2-0.5l0.4-1l0.3-1l0.1-0.5l0.1-0.5l-0.9,0.5l-0.8,0.5l-0.7,0.5l-0.7,0.6
	l-1.8,1.4l-1.8,1.4l-0.5,0.4l-0.5,0.4l-0.9,0.7l-1,0.6l-0.9,0.7l-2,1.3l-2,1.3l-0.5,0.3l-0.5,0.3l-0.5,0.3l-0.5,0.3l-0.6,0.3
	l-0.5,0.2l-0.6,0.2l-0.5,0.2l-0.6,0.2l-0.6,0.2H361h-0.2l-0.3,0.1l-0.6,0.1l-0.6,0.1l-0.6,0.1l-1.3,0.1H356h-1.4l-1.3-0.1l-1.3-0.1
	l-1.3-0.1l-1.2-0.1l-1.2-0.2l-1.2-0.2l-0.5-0.2l-0.5-0.2l-1.1-0.4l-0.5-0.3l-0.5-0.3l-0.5-0.3l-0.5-0.3l-0.5-0.4l-0.5-0.4l-0.8-0.7
	l-0.4-0.5l-0.4-0.5l-0.4-0.5l-0.4-0.5l-0.1-0.3l-0.2-0.2l-1.7,0.3h-0.1H338h-0.2l-0.5,0.1l-0.8,0.1l-0.8,0.1l-0.8,0.1l-0.8,0.1
	l-0.8,0.1h-0.5h-0.5l-0.8,0.1h-0.5h-0.5l-0.8,0.1H329h-0.9h-1.7h-1.4h-1.4l-1.4-0.1l-1.4-0.1l-1.4-0.1l-1.4-0.2l-1.4-0.2l-1.4-0.2
	H314l-1.1-0.1l-1.1-0.2l-1.1-0.2l-1.1-0.3l-1-0.3l-1-0.4l-1-0.4l-1.1-0.5l-0.2-0.1l-1.4-0.5l-1.4-0.5l-1.4-0.5l-1.4-0.5l-1.4-0.6
	l-1.4-0.6l-1.4-0.6l-1.4-0.6l-1.4-0.7l-1.4-0.7l-1.4-0.8l-1.4-0.8l-1.4-0.8l-1.3-0.9l-1.3-0.9l-1.3-0.9l-1.1-0.8l-1.1-0.8l-2.1-1.7
	l-1-0.9l-1-0.9l-1-1l-1-1l-0.6-0.6l-1.5-1.6l-0.7-0.8l-0.7-0.8l-1.4-1.6l-0.7-0.8l-0.6-0.8l-1-1.3l-0.9-1.3l-0.9-1.3l-0.8-1.3
	l-0.8-1.3l-0.8-1.3l-0.7-1.3l-0.7-1.3l-0.7-1.4l-0.6-1.4l-0.6-1.4l-0.5-1.4l-0.5-1.4l-0.5-1.4l-0.5-1.4l-0.5-1.4l-0.4-1.1l-0.5-0.3
	l-0.4-0.3l-0.4-0.3l-0.4-0.4l-0.4-0.4l-0.3-0.4l-0.3-0.4l-0.3-0.5l-0.3-0.5l-0.3-0.5l-0.3-0.5l-0.2-0.5l-0.2-0.5l-0.2-0.5l-0.2-0.5
	l-0.1-0.5l-0.1-0.5l0,0l-0.2-1.2l-0.2-1.1l-0.2-1.1l-0.1-1.1l-0.1-1.2l-0.1-1.2l-0.1-1.2V458v-0.4l-0.1-0.4L252,457l-0.1-0.3
	l-0.2-0.3l-0.2-0.3l-0.2-0.3l-0.3-0.2l-0.3-0.3l-0.4-0.2l-0.4-0.2l-0.4-0.2l-0.5-0.2l-0.5-0.1l-0.5-0.1l-0.5-0.1l0.1-0.1l0.1-0.1
	l0.2-0.2l0.1-0.1l0.1-0.1l0.2-0.2l0.1-0.2l0.1-0.1l0.2-0.3l0.1-0.3l0.1-0.2l0.1-0.1v-0.2l0.1-0.2v-0.2l0.1-0.2l0.1-0.3v-0.2l0.1-0.2
	v-0.4v-0.2v-0.2v-0.4l0.1-0.4v-0.5v-0.5v-0.5V448l-0.1-0.5l-0.1-0.4l-0.1-0.4l-0.2-0.3l-0.2-0.3l-0.2-0.3l-0.2-0.3l-0.2-0.2
	l-0.3-0.2l-0.3-0.2l-0.3-0.1l-0.3-0.1l-0.4-0.1h-0.4h-0.4H246h-0.5l-0.5,0.1l-0.5,0.1l-0.5,0.1v0.1l0.5,0.3l0.5,0.3l0.5,0.3l0.4,0.4
	l0.4,0.4l0.3,0.4l0.2,0.4l0.2,0.4l0.1,0.4l0.1,0.5v0.5v0.5L247,450l-0.1,0.5l-0.2,0.5l-0.2,0.5l-0.4,0.6l-0.4,0.7l-0.5,0.6l-0.5,0.6
	l-0.5,0.5l-0.2,0.2l-0.1,0.1l0,0l0,0l0,0l-0.3,0.3h-0.2l-0.3,0.2h-0.1l0,0l0,0l-0.1,0.1l-0.5,0.4l-0.5,0.3l-0.5,0.3l-0.5,0.3
	l-0.5,0.2l-0.5,0.2l-0.5,0.2l-0.5,0.1l-0.5,0.2l-0.5,0.2l-0.5,0.3l-0.5,0.3l-0.5,0.3l-0.5,0.4l-0.4,0.4l-0.7,0.8l-0.6,0.8l-0.6,0.8
	l-0.6,0.8l-0.2,0.3l-0.2,0.3l-0.5,0.5l-0.5,0.5l-0.6,0.5l-0.6,0.5l-0.5,0.3l-0.5,0.3h-0.2h-0.1h-0.2h-0.5h-0.5h-0.6h-0.3H227
	l-0.5-0.1l-0.5-0.2l-0.3-0.2l-0.6,0.2l-0.3-0.2l-0.2-0.2l-0.2-0.2l-0.2-0.2l-0.2-0.3l-0.1-0.3l-0.2-0.3l-0.1-0.3l-0.1-0.3l-0.1-0.3
	l-0.1-0.4V462v-0.4v-0.4v-0.7V460v-0.3v-0.3l-0.1-0.5l-0.1-0.5l-0.1-0.5l-0.1-0.4l-0.2-0.4l-0.2-0.4l-0.1-0.2l-0.1-0.1l-0.1-0.2
	l-0.1-0.1l-0.2-0.2l-0.2-0.1l-0.1-0.1l-0.3-0.1l-0.3-0.1h-0.3l-0.1,1.4v0.6v0.6v0.6v0.6v0.6l0.1,0.6v0.5l0.1,0.5l0.2,1.1l0.2,1
	l0.3,1l0.2,0.5l0.2,0.5l0.1,0.2l0.2,0.2l0.3,0.4h0.2l0.1,0.1l0.3,0.2l0.1,0.1l0.5,0.3l0.2,0.1l0.3,0.1l0.5,0.1h0.2h0.2h0.2h0.2h0.3
	h0.2h0.2h0.1l0,0l0,0l0,0h0.1l0.3-0.1l2,0.3L230.8,467.1L230.8,467.1z M219.6,444.2l0.6,1.1l0.5,1.1l0.5,1.1l0.5,1.1l0.4,1.1
	l0.4,1.1l0.3,1.1l0.3,1.2v0.4v0.4v0.3v0.1v0.2l-0.1,0.2l-0.1,0.2l-0.1,0.1l0,0l0,0l0,0l0,0l-0.2,0.1l-0.5,0.1l-0.4,0.1h-0.2h-0.2
	h-0.2h-0.1l-0.2-0.1l-0.2-0.1l-0.1-0.1v-0.1v-0.1v-0.1l-0.1-1.4l-0.1-1.3l-0.3-2.6l-0.2-1.3l-0.2-1.3L219.6,444.2L219.6,444.2z
	 M265.9,511.8l-0.6-0.5l-0.6-0.5l-0.9-0.5l-0.9-0.5l-0.9-0.5l-0.9-0.4l-0.9-0.4l-0.9-0.4l-0.9-0.4l-0.9-0.3l-0.4-0.1l-0.4-0.1
	l-0.4-0.1h-0.3h-0.4h-0.3h-0.3l-0.3,0.1l-0.3,0.1l-0.3,0.1l-0.3,0.1l-0.2,0.1l-0.2,0.1l-0.2,0.2l-0.2,0.2l-0.2,0.2l-0.4-1.4
	l-0.2-0.6l-0.2-0.6l-0.5-1.2l-0.3-0.6l-0.3-0.5l-0.3-0.5l-0.3-0.5l-0.4-0.5l-0.3-0.5l-0.4-0.5l-0.4-0.5l-0.7-1l-0.5-0.5l-0.5-0.5
	l-0.5-0.5l-0.5-0.4l-0.5,0.8l-0.4,0.9l-0.3,0.9l-0.3,1l-0.2,1l-0.2,1.1l-0.1,0.5v0.5v1.2l-0.5-0.3l-0.5-0.3l-0.8-0.6l-0.8-0.7
	l-0.7-0.8l-0.4-0.5l-0.4-0.5l-0.6-0.9l-0.6-1l-0.5-1.1l-0.1-0.2l-0.1-0.2l-0.2-0.2l-0.2-0.2h-0.2h-0.1l-0.1,0.1l-0.2,0.2l-0.1,0.1
	l-0.1,0.2l-0.2,0.4l-0.3,0.5l-0.3,0.5l-0.2,0.4l-0.2,0.4l-0.5-1.2l-0.2-0.5l-0.2-0.5l-0.2-0.6l-0.2-0.5l-0.3-1.2l-0.3-1.3l-0.2-1.3
	l-0.1-1.3l-0.1-1.3v-0.5v-0.5v-0.5v-0.4l-0.1-0.4l-0.1-0.4l-0.1-0.4l-0.1-0.3l-0.1-0.3l-0.1-0.3l-0.1-0.3l-0.1-0.2l-0.1-0.2
	l-0.1-0.2l-0.2-0.2l-0.1-0.1l-0.2-0.1l-0.2-0.1l-0.2-0.1h-0.2h-0.2h-0.2h-0.2l-0.2,0.1l-0.2,0.1l-0.2,0.1l-0.3,0.1l-0.2,0.2
	l-0.3,0.2l-0.3,0.2l-0.5,0.5l-0.5,0.4l-0.4,0.4l-0.4,0.4l-0.3,0.5l-0.4,0.5l-0.3,0.5l-0.3,0.5l-0.2,0.5l-0.3,0.2l-0.2,0.5l-0.2,0.5
	l-0.1,0.6l-0.1,0.5l-0.1,0.6l-0.1,0.6v0.6v0.5v0.5v0.4l0.1,0.4l0.1,0.3l0.1,0.3l0.1,0.3l0.1,0.2l0.1,0.2l0.1,0.2l0.2,0.1l0.2,0.1
	h0.2h0.2h0.2l0.2-0.1l0.4-0.1l0.4-0.1l0.4-0.1h0.4h0.3l0.3,0.1l0.3,0.1l0.3,0.2l0.3,0.2l0.3,0.2l0.2,0.2l0.2,0.3l0.2,0.3l0.2,0.4
	l0.1,0.2l0.1,0.2l0.2,0.5l0.2,0.5l0.2,0.5l0.5,1.1l0.5,1l0.3,0.5l0.3,0.5l0.3,0.5l0.3,0.5l0.3,0.5l0.4,0.5l0.7,0.9l0.4,0.5l0.5,0.5
	l0.7,0.6l0.7,0.6l0.7,0.5l0.8,0.5l0.8,0.5l0.5,0.2l0.5,0.2l0.2-0.5l0.2-0.4l0.1-0.3l0.2-0.3l0.2-0.2l0.2-0.2l0.2-0.2l0.2-0.1
	l0.2-0.1h0.2h0.2l0.2,0.1l0.2,0.1l0.3,0.2l0.3,0.2l0.3,0.2l0.3,0.3l0.3,0.3l0.5,0.5l0.3,0.4l0.3,0.4l0.4,0.5l0.5,0.5l0.5,0.5
	l0.5,0.5l0.5,0.5l0.5,0.5l0.5,0.5l0.5,0.5l0.5,0.5l0.6,0.5l0.6,0.5l0.6,0.5l0.6,0.4l0.7,0.4l0.7,0.4l0.7,0.4l0.7,0.3l0.7,0.3
	l0.8,0.3l0.8,0.2l-0.1-0.4l-0.1-0.4l-0.1-0.6l-0.1-0.5V518v-0.4v-0.2l0.1-0.2v-0.2l0.1-0.1l0.1-0.1l0.1-0.1l0.2-0.1h0.1h0.2h0.1
	l0.2,0.1l0.2,0.1l0.2,0.1l0.2,0.1l0.2,0.1l0.5,0.3l0.5,0.4l0.3,0.2l0.3,0.3l0.6,0.5l0.6,0.5l0.6,0.5l0.7,0.5l1.4,1l1.4,1l0.7,0.5
	l0.7,0.5l0.7,0.5l0.8,0.5l1.6,0.8l0.8,0.4l0.8,0.4l0.7,0.3l0.7,0.3l0.7,0.3l0.7,0.3l1.5,0.5l1.5,0.4l0.8,0.2l0.8,0.1l0.8,0.1
	l0.8,0.1l1.6,0.1h0.8h0.9h0.5h0.3h0.3l0.5-0.1h0.2h0.1h0.1h0.3l0.5-0.1l0.5-0.2l0.5-0.2l0.5-0.2l0.5-0.2l0.5-0.2l0.3-0.2l0.1-0.1
	l0.2-0.1l0.5-0.3l0.5-0.3l0.5-0.3l0.2-0.2l0.3-0.2l0.5-0.4l0.5-0.5l0.6-0.5l0.6-0.6l0.6-0.6l-2.3-1.4l-2.3-1.4l-1.2-0.7l-1.2-0.6
	l-1.2-0.6l-1.2-0.6l-0.6-0.4l-0.5-0.4l-0.5-0.4l-0.5-0.3l-0.5-0.4l-0.4-0.3l-0.4-0.3l-0.3-0.3v0.4v0.4v0.4l-0.1,0.4l-0.1,0.4
	l-0.1,0.5l-0.2,0.5l-0.2,0.5l-0.2,0.3l0,0l0,0v0.1l-0.1,0.1l-0.1,0.1h-0.1v0.1l-0.2,0.2l-0.2,0.1h-0.1h-0.1h-0.2H282h-0.1l-0.3-0.1
	l-0.1-0.1l-0.1-0.1l-0.3-0.2l-0.1-0.1l-0.1-0.1l-0.3-0.3l-0.2-0.2l-0.1-0.2l-0.3-0.4l-0.2-0.2l-0.1-0.1V517l0,0l-0.3-0.3l-0.2-0.3
	l-0.3-0.3L279,516l-0.3-0.3l-0.3-0.2l-0.5-0.4l-0.5-0.4l-0.5-0.3l-0.6-0.3l-0.6-0.2l-0.5-0.2l-0.5-0.2l-0.5-0.2l-0.5-0.3l0,0v0.1
	v0.1l0.1,0.2v0.2l0.1,0.2v0.2v0.2v0.1v0.1v0.1v0.1l0,0v0.1v0.1v0.1h-0.1h-0.1h-0.1l0,0h-0.1h-0.1h-0.1h-0.1l0,0l0,0h-0.1l-0.2-0.1
	l-0.2-0.1l-0.2-0.1h-0.1l0,0h-0.1l-0.2-0.2l-0.1-0.1h-0.1l0,0l-0.2-0.2l-0.2-0.2l-0.3-0.2l-0.2-0.2l-0.3-0.2l-0.3-0.2l-1-0.7
	l-0.9-0.6l-0.9-0.6l-0.9-0.5l-0.9-0.5l-0.8-0.5v0.3v0.1v0.1v0.2v0.3v0.1v0.1v0.3v0.3v0.1l0,0l0,0l0,0L265.9,511.8L265.9,511.8
	L265.9,511.8z M274.7,511l1.2,0.4l-0.2-0.4l-0.5-0.7l-0.5-0.7l-0.9-1.4l-0.9-1.3l-0.5-0.6l-0.5-0.5l-0.6-0.7l-0.6-0.6l-0.6-0.6
	l-0.6-0.5l-0.7-0.5l-0.4-0.3l-0.4-0.2l-0.7-0.4l-0.7-0.4l-1-0.5l-1-0.5l-1-0.6l-1-0.6l-1-0.6l-1-0.7l-0.9-0.7l-0.9-0.8l-1.1-1l-1-1
	l-1-1l-0.5-0.5l-0.5-0.5l-0.5-0.5l-0.5-0.5l-0.8-1l-0.7-1.1l-0.4-0.5l-0.3-0.5l0.4,0.5l0.4,0.5l0.4,0.5l0.4,0.5l0.8,0.7l0.4,0.4
	l0.5,0.4l0.5,0.3l0.5,0.3l0.5,0.3l0.5,0.3l0.9,0.5l0.5,0.2l0.5,0.2l0.6,0.2l0.4,0.1h0.4h0.4h0.5h0.5h0.5l-0.8-0.7l-0.4-0.4l-0.4-0.4
	l-0.4-0.5l-0.3-0.4l-0.3-0.5l-0.3-0.4l-0.5-0.8l-0.5-0.8l-0.4-0.9l-0.2-0.5l-0.1-0.5l-0.1-0.2l-0.1-0.2l-0.1-0.2l-0.1-0.2l-0.2-0.3
	l-0.2-0.2l-0.2-0.2l-0.1-0.1l-0.1-0.1l-0.2-0.1H256h-0.2l-0.2,0.1h-0.1l-0.1,0.1l-0.1,0.1l-0.1,0.1l-0.3,0.2l-0.3,0.3l-0.2,0.2
	l-0.1,0.2l-0.2,0.2l-0.1,0.2l-0.1-0.8l-0.1-0.8l-0.1-0.9v-0.9v-0.9v-0.9v-0.9V480v-0.6v-0.5v-0.5l-0.1-0.5l-0.1-0.5l-0.1-0.5
	l-0.2-0.5l-0.2-0.4l-0.2,0.3l-0.3,0.3l-0.3,0.3l-0.3,0.3l-0.4,0.3l-0.5,0.3l-0.5,0.3l-0.2,0.1l-0.1,0.1l-0.3,0.2l-0.3,0.1h-0.2H250
	h-0.1h-0.1h-0.1h-0.2h-0.1h-0.1h-0.2h-0.4h-0.4h-0.1h-0.1h0.3h-0.4l0.2,0.5v0.1l0.1,0.1l0.1,0.2l0.2,0.4v0.1l0,0v0.1l0.1,0.2
	l0.2,0.2l0.2,0.2l0.2,0.2l0.1,0.1l0,0h0.1l-0.5,0.1l-0.5,0.1h-0.5h-0.5h-0.5l-0.5-0.1l-0.5-0.1l-0.4-0.1l-0.4-0.2l-0.4-0.2l-0.4-0.2
	l-0.4-0.2l-0.4-0.3l-0.4-0.3l-0.4-0.3l-0.3-0.4l-0.2-0.2l-0.2-0.2l-0.5-0.4l-0.3-0.2l-0.3-0.2l-0.4-0.2l-0.4-0.2l-0.6,1.1l-0.5,1.1
	l-0.5,1.1l-0.4,1.2l-0.3,1.2l-0.2,1.2l-0.2,1.3l-0.1,1.3v0.6v0.6v0.6l0.1,0.5l0.1,0.5l0.1,0.5l0.1,0.5l0.2,0.5l0.2,0.5l0.2,0.5
	l0.2,0.5l0.3,0.5l0.3,0.4l0.3,0.4l0.3,0.4l0.4,0.4l0.3-0.5l0.4-0.5l0.4-0.5l0.5-0.5l0.5-0.5l0.5-0.5l0.6-0.5l0.7-0.4l0.5-0.3
	l0.6-0.3l0.6-0.2l0.6-0.1l-0.1,0.5v0.5v0.5v0.5v0.5l0.1,0.5l0.1,0.5l0.1,0.5l0.1,0.4l0.2,0.4l0.2,0.4l0.2,0.4l0.2,0.4l0.3,0.4
	l0.3,0.4l0.3,0.4l0.8,0.8l0.8,0.8l0.8,0.8l0.8,0.8l0.8,0.7l0.8,0.7l0.8,0.6l0.8,0.6l0.1-0.5l0.1-0.5l0.1-0.4l0.1-0.4v-0.4V500v-0.3
	v-0.2l0.5,0.6l0.5,0.6l0.5,0.7l0.6,0.7l0.6,0.7l0.6,0.8l0.6,0.8l0.6,0.9l0.4,0.4l0.4,0.4l0.2,0.2l0.2,0.2l0.4,0.3l0.2,0.1h0.1l0,0
	h0.1l0.3,0.2l0.3,0.1h0.2h0.1l0,0h0.1l0.3-0.1h0.1h0.1h0.2l0.1-0.1l0.1-0.1l0.3-0.2l0.1-0.2l0.1-0.1l0.2-0.3v-0.1V506l0,0l0.1-0.2
	l0.1-0.2l0.1-0.2l0.6,0.6l0.6,0.6l0.7,0.6l0.4,0.3l0.4,0.3l0.8,0.5l0.8,0.5l0.9,0.5l0.5,0.3l0.5,0.3l1,0.5l1,0.5l1,0.4L274.7,511z"
	/>
<path fill="#FFFFFF" d="M402.5,465.3c0.9,2.4-2.9,20-2.9,20.2c-3.2,14-11.9,8.9-13.9,7.1C378.2,485.7,396,446.9,402.5,465.3z"/>
<path fill="#FFFFFF" d="M288.2,369.7c19.7,0.2,29.5,15.2,29.5,15.2s-27.2,16.9-29.1,15.1C281.1,393.1,275.5,369.6,288.2,369.7z"/>
<path fill="#FFFFFF" d="M423.2,336.2c23.7,62-25.9,126.9-34.7,130c-26.3,9.3-30.9-17.8-24.5-22.7C420,400.6,418.9,325.2,423.2,336.2
	z"/>
<path fill="#FFFFFF" d="M401.7,313.1c41.1,57-22.4,129.1-31.2,132.3c-26.3,9.3-40.4-23.8-33.6-27.9
	C406.7,376.2,398.1,308.1,401.7,313.1z"/>
<path fill="#FFFFFF" d="M388,323.3c20.4,49.2-32.9,89-41.7,91.9c-12.5,4.1-30.7-14.7-23.8-18.7C392.1,355,385.5,317.6,388,323.3z"/>
<path d="M557.4,406.8c-0.5-8.3-2.2-14.5-5-18.8c-2.8-4.3-6.7-6.5-11.5-6.5c-6.2,0-11,3.2-14.3,9.3c-3.3,6.2-5,15.1-5,26.8
	c0,11.6,1.6,20.4,5,26.7c3.3,6.1,8.1,9.2,14.3,9.2c4.5,0,8.1-1.8,10.9-5.5c2.8-3.6,4.6-9.1,5.5-16.2H591
	c-1.5,18.5-6.5,32.4-14.9,41.9c-8.5,9.5-20.2,14.1-35,14.1c-16.8,0-29.4-5.9-37.8-17.7c-8.6-11.8-12.8-29.3-12.8-52.5
	s4.2-40.8,12.8-52.6c8.6-11.8,21.2-17.7,37.8-17.7c15.6,0,27.6,5.1,36.3,15.4c8.6,10.3,13.1,24.9,13.6,44.2H557.4L557.4,406.8z"/>
<polygon points="142.3,484.3 111.6,350.8 145.1,350.8 158.1,426.7 172.2,350.8 236.3,350.8 170.4,484.3 "/>
<polygon points="6.6,484.3 6.6,350.8 46.6,350.8 58.4,432.1 71.1,350.8 110.4,350.8 110.4,484.3 85.5,484.3 85.5,380.1 68.9,484.3 
	47.8,484.3 31.5,380.1 31.5,484.3 "/>
<path fill="#FFFFFF" d="M255.3,336.2c-0.6-4.6-1.7-10.1-3.4-16.8c2.9,3.4,6,7.4,9,11.9c13,20.2,13.6,40.1-1.5,62.2
	c-0.2,0.2-0.2,0.3-0.5,0.5c-13.9,13.1-19.6,7.7-22-10.7l-0.4-0.9C254.1,367.6,258.2,356.2,255.3,336.2z"/>
<path d="M420.8,451h20.6c4.8,0,7.8-0.8,9.2-2.3c1.4-1.5,2.2-4.4,2.2-8.5c0-4.2-0.7-7.1-2.2-8.6c-1.4-1.6-4.5-2.4-9.2-2.4h-15.3
	l0.1-0.4l0.5-1.5l0.4-1.5l0.5-1.5l0.8-3.1l0.4-1.5l0.4-1.5l0.7-3.2l0.1-0.5l0.1-0.4l0.2-0.8l0.4-1.5l0.6-3.2l0.2-0.8l0.1-0.5l0.4-2
	l0.6-3.2l0.2-1.1h8c4.2,0,7-0.7,8.3-2.1c1.3-1.4,1.9-3.8,1.9-7.4s-0.5-6-1.7-7.4c-1.2-1.4-4-2.1-8.4-2.1h-5.3l0,0l0.2-1.8l0.2-1.8
	l0.1-1.8l0.1-1.8l0.1-1.8v-1.8v-1.8v-1.8l-0.1-1.8l-0.1-1.8l-0.2-1.8l-0.2-1.7l-0.2-1.8l-0.3-1.7l-0.3-1.7l-0.3-1.7l-0.4-1.7
	l-0.3-1.3h18.7c10.5,0,17.9,2.5,22.3,7.7c4.3,5.1,6.6,13.7,6.6,25.6c0,6.6-0.8,12.2-2.5,17.3c-1.7,5-4.2,8.9-7.5,12
	c4.3,2.4,7.6,6.5,9.8,12.1c2.2,5.6,3.3,12.5,3.3,20.8c0,12.7-2.3,22.2-7,28.5c-4.7,6.3-11.7,9.5-21.2,9.5h-55.7l-0.5-2.5l0.1-0.9
	l0.5-0.6l0.5-0.6l0.5-0.5l0.5-0.6l0.5-0.5l0.9-1.3l1-1.3l0.9-1.3l0.5-0.6l0.5-0.6l0.9-1.4l0.9-1.4l0.9-1.4l0.9-1.4l0.5-0.7l0.2-0.4
	l0.2-0.4l0.8-1.4l0.8-1.4l0.5-0.7l0.2-0.4l0.2-0.4l0.8-1.5l0.8-1.5l0.8-1.5l0.8-1.6l0.7-1.6l0.7-1.6l0.2-0.5l0.2-0.5l0.4-0.8
	l0.7-1.7l0.4-0.9l0.4-0.8l0.4-0.9l0.4-0.8l0.2-0.5L420.8,451L420.8,451z"/>
<path d="M10.8,508.4H7.3v-11.8h5.3l4.2,7.4l4.3-7.4h5.2v11.8h-3.5v-8.5l-4.9,8.5h-2.3l-4.9-8.5V508.4L10.8,508.4z M39.6,508.6
	c-1.4,0-2.4-0.1-3.1-0.2c-0.6-0.1-1.2-0.4-1.5-0.6c-0.5-0.4-0.8-0.8-1-1.4c-0.2-0.5-0.3-1.3-0.3-2.2V501c0-1,0.1-1.8,0.3-2.3
	c0.2-0.5,0.5-1.1,1-1.4c0.4-0.3,0.9-0.5,1.6-0.6c0.6-0.1,1.6-0.2,3-0.2h4.2c1.4,0,2.3,0.1,3.1,0.2c0.6,0.1,1.2,0.4,1.6,0.6
	c0.5,0.4,0.7,0.8,1,1.4c0.2,0.5,0.3,1.4,0.3,2.3v3.3c0,0.9-0.1,1.6-0.3,2.3c-0.2,0.5-0.5,1-1,1.4c-0.4,0.3-0.9,0.5-1.5,0.6
	c-0.6,0.1-1.6,0.2-3.1,0.2L39.6,508.6L39.6,508.6z M40.5,505.6h2.3c1.3,0,2.2-0.2,2.5-0.5c0.5-0.4,0.6-0.9,0.6-1.8v-1.7
	c0-0.9-0.2-1.4-0.6-1.8c-0.5-0.4-1.3-0.5-2.5-0.5h-2.3c-1.3,0-2.2,0.2-2.5,0.5c-0.4,0.4-0.6,0.9-0.6,1.8v1.6c0,0.8,0.2,1.4,0.6,1.7
	C38.5,505.4,39.3,505.6,40.5,505.6L40.5,505.6z M72.9,508.4h-5.3l-7.1-8.6v8.6h-3.6v-11.8h5.3l7,8.6v-8.6h3.6L72.9,508.4L72.9,508.4
	z M88.2,508.4h-3.6v-8.9h-5v-2.9h13.5v2.9h-5V508.4L88.2,508.4z M103.3,503.6h4.6l-2.3-4.2L103.3,503.6L103.3,503.6z M100.8,508.4
	h-4l6.5-11.8h4.6l6.3,11.8h-4l-1.2-2h-7.2L100.8,508.4L100.8,508.4z M136.6,508.4h-5.3l-7.1-8.6v8.6h-3.6v-11.8h5.3l7,8.6v-8.6h3.6
	L136.6,508.4L136.6,508.4z M149.3,503.6h4.6l-2.3-4.2L149.3,503.6L149.3,503.6z M146.8,508.4h-4l6.5-11.8h4.6l6.3,11.8h-4l-1.2-2
	h-7.2L146.8,508.4L146.8,508.4z M14.7,524.6l4.7-8.5h3.9l-6.3,11.8h-4.4l-6.3-11.8h4L14.7,524.6L14.7,524.6z M37.4,527.9h-3.6v-11.8
	h3.6V527.9L37.4,527.9z M52.9,520.5h1.5l4.8-4.4h4.8l-6.4,5.9l7.2,6h-5l-5.3-4.5h-1.5v4.5h-3.6v-11.8h3.6V520.5L52.9,520.5z
	 M78.9,527.9h-3.6v-11.8h3.6V527.9L78.9,527.9z M106.8,527.9h-5.3l-7.1-8.6v8.6h-3.6v-11.8h5.3l7,8.6v-8.6h3.6L106.8,527.9
	L106.8,527.9z M129.6,520.4L129.6,520.4c0-0.5-0.2-1-0.5-1.2c-0.4-0.2-1.1-0.3-2.3-0.3h-2.1c-1.3,0-2.1,0.2-2.3,0.5
	c-0.4,0.3-0.5,0.9-0.5,1.9v1.6c0,0.8,0.2,1.4,0.6,1.8c0.4,0.4,1.2,0.5,2.3,0.5h2.1c1.1,0,1.7-0.1,2.2-0.3c0.4-0.2,0.6-0.5,0.6-1
	c0-0.1,0-0.2,0-0.4l0,0h-4.2v-2.4h8v3.9c0,1.1-0.5,1.9-1.3,2.3c-0.8,0.5-2.3,0.7-4.3,0.7h-4.1c-1.3,0-2.2-0.1-2.7-0.2
	c-0.6-0.1-1.1-0.4-1.5-0.7s-0.8-0.8-1.1-1.4c-0.2-0.5-0.4-1.3-0.4-2.1v-3.2c0-1.7,0.4-2.9,1.2-3.5c0.8-0.6,2.3-1,4.4-1h4.1
	c1.3,0,2.3,0.1,2.9,0.2c0.6,0.1,1.1,0.3,1.4,0.6c0.4,0.3,0.6,0.6,0.8,1.2c0.2,0.5,0.3,1.1,0.3,1.8c0,0.2,0,0.3,0,0.4
	c0,0.1,0,0.2,0,0.3H129.6L129.6,520.4z M144.6,524h3.6v0.2c0,0.5,0.1,0.7,0.4,0.9c0.2,0.2,0.6,0.3,1.4,0.3h4.5c0.5,0,0.8-0.1,1-0.3
	c0.2-0.2,0.3-0.4,0.3-0.7c0-0.4-0.1-0.6-0.4-0.8c-0.2-0.2-0.7-0.3-1.4-0.3l-5.7-0.1c-1.4,0-2.3-0.3-2.9-0.8s-0.7-1.4-0.7-2.7
	c0-0.7,0.1-1.3,0.2-1.7c0.1-0.5,0.4-0.8,0.6-1.1c0.4-0.4,0.8-0.5,1.4-0.7c0.5-0.2,1.4-0.2,2.7-0.2h5.5c1.4,0,2.3,0.3,3,0.7
	c0.6,0.5,0.9,1.4,0.9,2.4c0,0.1,0,0.2,0,0.3s0,0.2,0,0.5h-3.5v-0.1c0-0.4-0.1-0.7-0.3-0.9s-0.5-0.3-0.9-0.3H150
	c-0.7,0-1.2,0.1-1.4,0.2c-0.2,0.2-0.4,0.4-0.4,0.7c0,0.4,0.1,0.5,0.3,0.7c0.2,0.2,0.5,0.3,1.1,0.3l5.9,0.1c1.4,0,2.3,0.4,2.9,0.9
	s0.8,1.5,0.8,3c0,0.8-0.1,1.4-0.3,1.9c-0.2,0.5-0.5,0.8-1,1.2c-0.4,0.2-0.7,0.4-1.3,0.5c-0.5,0.1-1.4,0.1-2.3,0.1h-4.9
	c-2,0-3.3-0.2-4-0.6s-1-1.3-1-2.4c0-0.1,0-0.2,0-0.4C144.6,524.4,144.6,524.2,144.6,524z"/>
<path d="M413,505.7c0.4,0,0.5-0.1,0.7-0.3s0.3-0.5,0.3-0.8s-0.1-0.5-0.3-0.7c-0.2-0.2-0.5-0.3-0.7-0.3h-6.7v2.2L413,505.7L413,505.7
	z M412.6,501.2c0.3,0,0.5-0.1,0.7-0.3c0.2-0.2,0.3-0.5,0.3-0.7s-0.1-0.5-0.3-0.7c-0.2-0.2-0.4-0.3-0.6-0.3h-6.4v2L412.6,501.2
	L412.6,501.2z M413.9,508.4h-11.3v-11.8h10.7c1.4,0,2.3,0.3,3,0.8s1,1.4,1,2.5c0,0.6-0.2,1.2-0.5,1.5c-0.3,0.5-0.7,0.7-1.4,1
	c0.7,0.1,1.3,0.5,1.6,0.9c0.4,0.5,0.5,1.1,0.5,2c0,1.1-0.3,1.9-0.9,2.4C416.2,508.1,415.3,508.4,413.9,508.4L413.9,508.4z
	 M428.6,503.6h4.6l-2.3-4.2L428.6,503.6L428.6,503.6z M426.1,508.4h-4l6.5-11.8h4.6l6.3,11.8h-4l-1.2-2h-7.2L426.1,508.4
	L426.1,508.4z M443.9,504.4h3.6v0.2c0,0.5,0.1,0.7,0.4,0.9c0.2,0.2,0.6,0.3,1.4,0.3h4.5c0.5,0,0.8-0.1,1-0.3
	c0.2-0.2,0.3-0.4,0.3-0.7c0-0.4-0.1-0.6-0.4-0.8c-0.2-0.2-0.7-0.3-1.4-0.3l-5.7-0.1c-1.4,0-2.3-0.3-2.9-0.8s-0.7-1.4-0.7-2.7
	c0-0.7,0.1-1.3,0.2-1.7c0.1-0.5,0.4-0.8,0.6-1.1c0.4-0.4,0.8-0.5,1.4-0.7s1.4-0.2,2.7-0.2h5.5c1.4,0,2.3,0.3,3,0.7
	c0.6,0.5,0.9,1.4,0.9,2.4c0,0.1,0,0.2,0,0.3c0,0.1,0,0.2,0,0.5h-3.5v-0.1c0-0.4-0.1-0.7-0.3-0.9c-0.2-0.2-0.5-0.3-0.9-0.3h-4.1
	c-0.7,0-1.2,0.1-1.4,0.2c-0.2,0.1-0.4,0.4-0.4,0.7s0.1,0.5,0.3,0.7s0.5,0.3,1.1,0.3l5.9,0.1c1.4,0,2.3,0.4,2.9,0.9s0.8,1.5,0.8,3
	c0,0.8-0.1,1.4-0.3,1.9s-0.5,0.8-1,1.2c-0.4,0.2-0.7,0.4-1.3,0.5c-0.5,0.1-1.4,0.1-2.3,0.1h-4.9c-2,0-3.3-0.2-4-0.6s-1-1.3-1-2.4
	c0-0.1,0-0.2,0-0.4C443.8,504.9,443.8,504.7,443.9,504.4L443.9,504.4z M467.8,501h1.5l4.8-4.4h4.8l-6.4,5.9l7.2,6h-5l-5.3-4.5h-1.5
	v4.5h-3.6v-11.9h3.6V501L467.8,501z M497.3,499.5h-9.4v1.8h8.8v2.5h-8.8v1.8h9.5v2.9h-13.1v-11.9h13V499.5L497.3,499.5z
	 M510.8,508.4h-3.6v-8.9h-5v-2.9h13.5v2.9h-5V508.4L510.8,508.4z M531.2,505.7c0.4,0,0.5-0.1,0.7-0.3s0.3-0.5,0.3-0.8
	s-0.1-0.5-0.3-0.7s-0.5-0.3-0.7-0.3h-6.7v2.2L531.2,505.7L531.2,505.7z M530.8,501.2c0.3,0,0.5-0.1,0.7-0.3c0.2-0.2,0.3-0.5,0.3-0.7
	s-0.1-0.5-0.3-0.7s-0.4-0.3-0.6-0.3h-6.4v2L530.8,501.2L530.8,501.2z M532.1,508.4h-11.3v-11.8h10.6c1.4,0,2.3,0.3,3,0.8
	s1,1.4,1,2.5c0,0.6-0.2,1.2-0.5,1.5c-0.3,0.5-0.7,0.7-1.4,1c0.7,0.1,1.3,0.5,1.6,0.9c0.4,0.5,0.5,1.1,0.5,2c0,1.1-0.3,1.9-0.9,2.4
	C534.4,508.1,533.4,508.4,532.1,508.4L532.1,508.4z M546.8,503.6h4.6l-2.3-4.2L546.8,503.6L546.8,503.6z M544.3,508.4h-4l6.5-11.8
	h4.6l6.3,11.8h-4l-1.2-2h-7.2L544.3,508.4L544.3,508.4z M566.4,505.5h7.9v2.9h-11.5v-11.8h3.6V505.5L566.4,505.5z M583,505.5h7.9
	v2.9h-11.5v-11.8h3.6V505.5L583,505.5z M414,520.4L414,520.4c0-0.5-0.2-0.9-0.5-1.1c-0.3-0.2-0.8-0.4-1.4-0.4h-2.9
	c-1.3,0-2.1,0.2-2.4,0.5c-0.4,0.3-0.5,0.9-0.5,1.9v1.6c0,0.8,0.2,1.4,0.6,1.8c0.4,0.4,1.2,0.5,2.3,0.5h2.1c1.2,0,1.9-0.1,2.3-0.4
	c0.4-0.3,0.5-0.6,0.5-1.3v-0.1h3.7v0.1c0,0.4,0,0.6,0,0.8c0,0.7-0.1,1.4-0.3,1.9c-0.2,0.5-0.5,0.9-0.9,1.2c-0.4,0.3-0.9,0.5-1.5,0.6
	c-0.6,0.1-1.6,0.2-2.8,0.2h-4.1c-1.3,0-2.2-0.1-2.7-0.2c-0.5-0.1-1.1-0.4-1.5-0.7s-0.8-0.8-1.1-1.4c-0.2-0.5-0.4-1.3-0.4-2.1v-3.2
	c0-1.7,0.4-2.9,1.2-3.5c0.8-0.6,2.3-1,4.4-1h4.1c1.3,0,2.3,0.1,2.9,0.2c0.6,0.1,1.1,0.3,1.4,0.6c0.4,0.3,0.6,0.6,0.8,1.2
	c0.2,0.5,0.3,1.1,0.3,1.8c0,0.2,0,0.3,0,0.4c0,0.1,0,0.2,0,0.3H414V520.4z M427.1,525.1h7.9v2.9h-11.5v-11.8h3.6V525.1L427.1,525.1z
	 M439.9,516h3.6v7c0,0.8,0.2,1.4,0.5,1.6c0.4,0.3,1.2,0.5,2.3,0.5h2.1c1,0,1.7-0.2,2.1-0.5s0.5-0.8,0.5-1.6v-7h3.6v8.1
	c0,1.4-0.4,2.3-1.2,3c-0.7,0.5-2.1,0.9-3.9,0.9h-4.1c-2.2,0-3.7-0.3-4.5-0.8s-1.3-1.5-1.3-3L439.9,516L439.9,516z M470.8,525.2
	c0.4,0,0.5-0.1,0.7-0.3c0.2-0.2,0.3-0.5,0.3-0.8s-0.1-0.5-0.3-0.7c-0.2-0.2-0.5-0.3-0.7-0.3h-6.7v2.2L470.8,525.2L470.8,525.2z
	 M470.6,520.6c0.3,0,0.5-0.1,0.7-0.3s0.3-0.5,0.3-0.7c0-0.3-0.1-0.5-0.3-0.7s-0.4-0.3-0.6-0.3h-6.4v2L470.6,520.6L470.6,520.6z
	 M471.8,527.9h-11.3v-11.8h10.6c1.4,0,2.3,0.3,3,0.8c0.6,0.5,1,1.4,1,2.5c0,0.6-0.2,1.2-0.5,1.5c-0.3,0.5-0.7,0.7-1.4,1
	c0.7,0.1,1.3,0.5,1.6,0.9c0.4,0.5,0.5,1.1,0.5,2c0,1.1-0.3,1.9-0.9,2.4C474.1,527.7,473.2,527.9,471.8,527.9z"/>
<path d="M527.7,522.6h-5.5v1.1h5.2v1.4h-5.2v1.1h5.6v1.7h-7.7v-7h7.7L527.7,522.6L527.7,522.6z M529.1,526.4h1.9l0,0
	c0,0.2,0.1,0.3,0.3,0.4c0.2,0.1,0.4,0.1,0.7,0.1h1.3c0.3,0,0.5,0,0.5-0.1c0.1-0.1,0.2-0.2,0.2-0.3c0-0.1-0.1-0.2-0.2-0.3
	c-0.1-0.1-0.3-0.1-0.5-0.1h-1.8c-0.9,0-1.5-0.1-1.9-0.4c-0.4-0.3-0.5-0.6-0.5-1.2s0.2-1,0.5-1.3c0.4-0.3,1-0.4,1.9-0.4h2.1
	c0.6,0,1.2,0.1,1.4,0.4c0.3,0.3,0.5,0.6,0.5,1.1h-1.8c0-0.1-0.2-0.2-0.3-0.2c-0.2-0.1-0.4-0.1-0.6-0.1h-1.3c-0.3,0-0.5,0-0.5,0.1
	c-0.1,0.1-0.2,0.1-0.2,0.3c0,0.1,0.1,0.2,0.2,0.3c0.1,0.1,0.4,0.1,0.7,0.1h2.2c0.6,0,1.1,0.2,1.4,0.4c0.3,0.3,0.5,0.6,0.5,1.2
	c0,0.6-0.2,1.1-0.5,1.3c-0.4,0.3-0.9,0.4-1.7,0.4h-1.8c-1,0-1.7-0.1-2.1-0.4C529.3,527.4,529.1,527,529.1,526.4L529.1,526.4z
	 M537.6,524.3h-1v-1.3h1v-1.3h1.8v1.2h2.8v1.3h-2.8v1.7c0,0.3,0.1,0.5,0.2,0.5c0.1,0.1,0.3,0.2,0.5,0.2c0.3,0,0.5-0.1,0.6-0.2
	c0.1-0.1,0.2-0.3,0.2-0.5c0-0.1,0-0.2,0-0.3l0,0h1.6c0,0.1,0,0.1,0,0.2c0,0.1,0,0.2,0,0.3c0,0.6-0.2,1.2-0.6,1.4
	c-0.4,0.3-1,0.5-1.9,0.5c-0.8,0-1.4-0.1-1.8-0.4c-0.4-0.3-0.5-0.7-0.5-1.4L537.6,524.3L537.6,524.3z M546.5,527.9h-2v-2h2V527.9
	L546.5,527.9z M559.6,527.9h-2.1v-5.2l-2.3,1.6l-1-1.4l3.1-1.9h2.3L559.6,527.9L559.6,527.9z M568.4,522.4h-2
	c-0.4,0-0.5,0.1-0.7,0.2c-0.2,0.1-0.3,0.3-0.3,0.5c0,0.3,0.1,0.5,0.2,0.5c0.2,0.1,0.4,0.2,0.7,0.2h2c0.4,0,0.5-0.1,0.7-0.2
	c0.2-0.1,0.2-0.3,0.2-0.5c0-0.3-0.1-0.5-0.2-0.5C568.9,522.5,568.7,522.4,568.4,522.4L568.4,522.4z M571.3,523.1v2.8
	c0,0.8-0.3,1.4-0.7,1.7c-0.5,0.4-1.4,0.5-2.8,0.5h-2c-0.9,0-1.5-0.2-2-0.5c-0.5-0.3-0.6-0.7-0.6-1.4c0,0,0-0.1,0-0.2
	c0-0.1,0-0.1,0-0.3h1.9c0,0.2,0.1,0.4,0.3,0.5c0.2,0.1,0.4,0.2,0.7,0.2h2c0.4,0,0.7-0.1,0.8-0.2c0.2-0.1,0.3-0.4,0.3-0.6v-0.8
	c-0.2,0.2-0.4,0.4-0.6,0.5c-0.3,0.1-0.6,0.1-1.1,0.1h-1.5c-1,0-1.7-0.1-2.1-0.4c-0.5-0.3-0.6-0.6-0.6-1.2v-1.4
	c0-0.5,0.2-0.9,0.5-1.2c0.4-0.3,0.9-0.4,1.6-0.4h3.2c0.9,0,1.6,0.2,2.1,0.5C571.1,521.7,571.3,522.3,571.3,523.1L571.3,523.1z
	 M578.1,522.4h-2c-0.4,0-0.5,0.1-0.7,0.2c-0.2,0.1-0.3,0.3-0.3,0.5c0,0.3,0.1,0.5,0.2,0.5c0.2,0.1,0.4,0.2,0.7,0.2h2
	c0.4,0,0.5-0.1,0.7-0.2c0.2-0.1,0.2-0.3,0.2-0.5c0-0.3-0.1-0.5-0.2-0.5S578.4,522.4,578.1,522.4L578.1,522.4z M581.1,523.1v2.8
	c0,0.8-0.3,1.4-0.7,1.7c-0.5,0.4-1.4,0.5-2.8,0.5h-2c-0.9,0-1.5-0.2-2-0.5c-0.5-0.3-0.6-0.7-0.6-1.4c0,0,0-0.1,0-0.2
	c0-0.1,0-0.1,0-0.3h1.9c0,0.2,0.1,0.4,0.3,0.5c0.2,0.1,0.4,0.2,0.7,0.2h2c0.4,0,0.7-0.1,0.8-0.2c0.2-0.1,0.3-0.4,0.3-0.6v-0.8
	c-0.2,0.2-0.4,0.4-0.6,0.5c-0.3,0.1-0.6,0.1-1.1,0.1h-1.5c-1,0-1.7-0.1-2.1-0.4c-0.5-0.3-0.6-0.6-0.6-1.2v-1.4
	c0-0.5,0.2-0.9,0.5-1.2c0.4-0.3,0.9-0.4,1.6-0.4h3.2c0.9,0,1.6,0.2,2.1,0.5C580.8,521.7,581.1,522.3,581.1,523.1L581.1,523.1z
	 M582.8,525.8h2v0.1c0,0.2,0.1,0.4,0.3,0.5c0.2,0.1,0.5,0.1,0.9,0.1h2.2c0.4,0,0.5-0.1,0.7-0.2c0.1-0.1,0.2-0.3,0.2-0.5v-0.3
	c0-0.2-0.1-0.4-0.3-0.5c-0.2-0.1-0.5-0.1-0.8-0.1h-2.3c-0.2,0-0.4,0-0.5,0.1c-0.1,0.1-0.2,0.2-0.2,0.3h-1.8v-4.3h7.6v1.6h-5.8v1.2
	c0.2-0.2,0.4-0.3,0.6-0.4c0.3-0.1,0.6-0.1,1.1-0.1h1.9c0.8,0,1.4,0.2,1.8,0.5c0.4,0.3,0.5,0.7,0.5,1.3v1.2c0,0.7-0.2,1.2-0.6,1.4
	c-0.5,0.3-1.2,0.5-2.2,0.5h-2.5c-1.1,0-1.9-0.2-2.3-0.5c-0.5-0.3-0.6-0.8-0.6-1.4c0-0.1,0-0.2,0-0.2
	C582.8,525.9,582.8,525.9,582.8,525.8z"/>
<path fill="#FFFFFF" d="M255.3,336.2c-0.6-4.6-1.7-10.1-3.4-16.8c2.9,3.4,6,7.4,9,11.9c13,20.2,13.6,40.1-1.5,62.2
	c-0.2,0.2-0.2,0.3-0.5,0.5c-13.9,13.1-19.6,7.7-22-10.7l-0.4-0.9C254.1,367.6,258.2,356.2,255.3,336.2z"/>
<path d="M255,347.8l-0.1,1v0.2v0.2v0.5l-0.1,0.9l-0.1,0.8l-0.1,0.9l-0.2,0.8l-0.1,0.5v0.2v0.2l-0.2,0.8l-0.2,0.8l-0.2,0.8l-0.2,0.8
	l-0.1,0.4l-0.1,0.4l-0.2,0.8l-0.2,0.4l-0.1,0.4l-0.3,0.7l-0.3,0.7l-0.2,0.4l-0.1,0.4l-0.3,0.7l-0.3,0.7l-0.4,0.7l-0.4,0.7l-0.4,0.6
	l-0.4,0.6l-0.4,0.6l-0.5,0.6l-0.1,0.2l-0.1,0.2l-0.2,0.3l-0.5,0.6l-0.5,0.5l-0.1,0.2l-0.1,0.2l-0.2,0.3l-0.5,0.5l-0.3,0.3l-0.1,0.2
	l-0.1,0.2l-0.5,0.5l-0.3,0.3l-0.3,0.3l-10.4,10.7l0.1,1l0.1,1l0.1,0.9l0.2,0.9l0.2,0.9l0.2,0.9l0.2,0.8l0.2,0.8l0.2,0.8l0.2,0.8
	l0.4,1.4l0.2,0.7l0.2,0.6l0.2,0.6l0.3,0.6l0.3,0.5l0.3,0.5l0.5,1.1l0.3,0.5l0.3,0.5l0.3,0.5l0.3,0.5l0.3,0.4l0.4,0.4l0.4,0.4
	l0.4,0.4l0.4,0.3l0.4,0.3l0.4,0.3l0.4,0.2l0.4,0.2l0.4,0.2l0.4,0.2l0.5,0.1l0.5,0.1l0.5,0.1h0.5h0.5h0.5h0.5l0.5-0.1l0.5-0.1
	l0.5-0.1l0.5-0.2l0.5-0.2l0.5-0.2l0.5-0.2l0.5-0.3l0.5-0.3l0.5-0.3l0.5-0.4l0.5-0.4l0.5-0.4l0.6-0.4l0.5-0.5l0.6-0.5l0.6-0.5
	l0.6-0.5l0.6-0.5l0.6-0.5l0.6-0.5l0.6-0.5l0,0l0,0l0,0h0.1l0.2-0.2l0.1-0.1l0.1-0.1l0.2-0.4l0.1-0.2l0.2-0.2l0.4-0.5l0.2-0.3
	l0.2-0.3l0.4-0.7l0.2-0.4l0.3-0.4l0.2-0.5l0.3-0.5l0.3-0.5l0.3-0.5l0.3-0.5l0.3-0.5l0.3-0.5l0.4-0.5l0.6-1.2l0.7-1.3l0.4-0.7
	l0.4-0.7l0.7-1.4l0.6-1.4l0.6-1.4l0.5-1.4l0.5-1.4l0.5-1.4l0.5-1.4l0.4-1.4l0.4-1.4l0.2-0.7l0.2-0.7l0.3-1.4l0.2-1.4l0.2-1.4
	l0.1-1.4l0.1-1.4v-1.4v-1.4l-0.1-1.4l-0.2-1.4l-0.2-1.4l-0.2-1.4l-0.3-1.4l-0.2-0.7l-0.2-0.7l-0.2-0.7l-0.1-0.4l-0.1-0.4l-0.5-1.4
	l-0.5-1.4l-0.5-1.4l-0.5-1.5l-0.6-1.4l-0.6-1.4l-0.7-1.4l-1-1.9l-0.5-0.9l-0.5-0.9l-1.2-1.9l-0.5-0.9l-0.6-0.9l-1.3-1.9l-0.4-0.5
	l-0.2-0.3l-0.1-0.1l-0.1-0.1l-0.6-0.9l-0.7-1l-0.7-0.9l-1.4-1.8l-1.5-1.8l-1.6-1.8l-1.7-1.8l-1.7-1.8l0.1,0.4l0.1,0.5l0.3,0.8
	l0.2,0.8l0.3,0.8l0.1,0.4l0.1,0.4l0.2,0.8l0.2,0.7l0.2,0.7l0.1,0.4v0.2v0.1v0.1l0.2,0.7l0.2,0.7l0.2,0.7l0.2,0.6l0.1,0.4l0.1,0.4
	l0.1,0.3l0.1,0.4l0.2,0.6l0.3,1.4l0.1,0.7l0.2,0.7l0.3,1.4l0.1,0.6l0.1,0.7l0.1,0.6l0.1,0.6l0.2,1.3l0.2,1.3l0.2,1.3l0.1,1.2v0.6
	l0.1,0.6l0.1,1.2l0.1,1.2v1.2v1.2v1.1L255,347.8L255,347.8l0.1,0.4L255,347.8L255,347.8z M236.6,382.5c21.9-18.6,22.9-31.8,15.4-63
	c21.1,24.4,25.5,47.6,7.5,74.1c-0.2,0.2-0.2,0.3-0.5,0.5c-13.9,13.1-19.6,7.7-22-10.7L236.6,382.5z"/>
<path fill="#FFFFFF" d="M185.8,396.6c-21.6-3.2-35.7-15.3-48.4-32.4c7,24.9,19,51.5,48.1,57C183,414.5,182.2,406.8,185.8,396.6z"/>
<radialGradient id="SVGID_1_" cx="345.847" cy="682.5466" r="84.0723" gradientTransform="matrix(0.9006 0 0 -0.9006 0 1042.2427)" gradientUnits="userSpaceOnUse">
	<stop  offset="0" style="stop-color:#FFFFFF"/>
	<stop  offset="1" style="stop-color:#CA5C16"/>
</radialGradient>
<path fill="url(#SVGID_1_)" d="M319.3,487.1c9,9.9,21.3,19.9,37.2,30.8c21.3-10.2,36.7-30.5,40.1-54.8
	C356.9,517.1,340.7,472.3,319.3,487.1L319.3,487.1z M351,520.2c-7.8,3-16.4,4.6-25.3,4.6c-6,0-11.8-0.7-17.4-2.2
	c5.7-17-5.3-20.8,7-32.3C324.3,500,336.2,509.7,351,520.2L351,520.2z M312.7,487.3c-1.4-1.6-2.7-3.2-3.9-4.8
	c-14.6,5-31.2,5.5-49.6-3.3c7.7,20.1,24.3,35.7,44.9,42.2C309.5,514.2,298.4,500.6,312.7,487.3L312.7,487.3z M305.3,477.5
	c-14.4,4.7-29.7,3.8-48.3-4.9c-1.7-6.2-2.7-12.7-2.7-19.5c0-4.9,0.5-9.7,1.4-14.3c23-6.6,22.7,30.7,43.4,27.2
	C300.8,470,302.8,473.8,305.3,477.5L305.3,477.5z M297.6,462c-7.3-22.4,0.3-47.1,22.7-80c-30.3,2.3-55.3,23.5-63.3,51.8
	C278.7,428.4,281.2,461.7,297.6,462L297.6,462z M387.4,417.3c1.2,2,2.3,4.1,3.2,6.1h-0.1l-0.7,0.4l-0.7,0.5l-0.6,0.5l-0.5,0.5
	l-0.3,0.3l-0.2,0.4l-0.2,0.4l-0.2,0.4l-0.4,0.8l-0.3,0.8l-0.2,0.9l-0.1,0.5l-0.1,0.5l-0.1,0.5v0.5v0.5v0.5v1.2v0.5l0.1,0.6l0.2,1.3
	l-0.9,0.7l-0.9,0.7l-0.8,0.8l-0.8,0.8l-0.8,0.8l-0.7,0.9l-0.7,0.9l-0.6,1l-0.6,1l-0.5,1l-0.5,1.1l-0.5,1.1l-0.5,1.1l-0.5,1.2
	l-0.4,1.2l-0.4,1.3l-0.2,0.6l-0.2,0.6l-0.1,0.6l-0.1,0.6l-0.1,0.6v0.6v0.5l0.1,0.5l0.1,0.5l0.1,0.5l0.1,0.5l0.2,0.5l0.2,0.5l0.2,0.5
	l0.3,0.5l0.3,0.5l0.3,0.4l0.4,0.4l0.4,0.4l0.4,0.4l0.5,0.3l0.5,0.3l0.5,0.3l0.5,0.3l0.5,0.2l0.5,0.2l0.6,0.2l0.6,0.2l0.6,0.2
	l0.7,0.2l0.7,0.1l0.8,0.1l3.4-2.1v0.1l0.1,0.1h0.1h0.1l0.1-0.1l0.2-0.1l0.2-0.1l0.2-0.1l0.2-0.2l0.2-0.2l0.2-0.2l0.3-0.2l0.3-0.3
	l0.3-0.3l0.3-0.4l0.3-0.4l0.5-0.7l0.5-0.7l0.5-0.7l0.4-0.6l0.3-0.6l0.3-0.6l0.2-0.6l0.1-0.5l0.1-0.5l0.1-0.5l0.1-0.5l0.1-0.3
	l0.1-0.3l0.1-0.2l0.1-0.2h0.1h0.4l-0.4-0.1l0.1-0.4l0.1-0.3l0.1-0.4l0.1-0.3l0.1-0.2l0.1-0.1l0.2-0.2l0.2-0.2l0.2-0.3l0.3-0.3
	l0.3-0.4l0.4-0.5l0.2-0.2c0.1,1.5,0.2,3.1,0.2,4.6c0,0.6,0,1.3,0,1.9c-46,63.3-49.8,7.1-80.5,29c-1-1.2-2-2.3-2.9-3.5
	c21.6-9.2,38.5-27.6,50.1-39l0.2,0.1l0.4,0.2l0.7,0.2l0.4,0.1l0.5,0.1h0.8h0.5h0.5h0.2h0.1h0.1h0.4h0.2h0.1h0.1h0.4h0.1h0.1h0.2
	l0.4-0.1l0.3-0.1l0.4-0.1l0.3-0.1l0.3-0.1l0.3-0.1l0.3-0.1l0.3-0.2l0.3-0.2l0.3-0.2l0.3-0.2l0.1-0.1l0.1-0.1l0.2-0.2l0.2-0.2
	l0.1-0.1l0.1-0.1l0.1-0.1l0.1-0.1l0.2-0.2l0.1-0.1l0.1-0.1l0.2-0.2l0.1-0.3l0.1-0.3l0.1-0.3l0.1-0.2l0.1-0.1l0.1-0.3l0.1-0.3
	l0.1-0.3l0.1-0.3l0.1,0.4l0.2,0.4l0.1,0.5l0.1,0.5l0.7-0.8l0.6-0.7l0.6-0.7l0.5-0.7l0.5-0.7l0.5-0.7l0.4-0.7l0.4-0.7l0.3-0.7
	l0.3-0.7l0.2-0.7l0.2-0.7l0.1-0.7l0.1-0.7v-0.6v-0.6l0.6-0.7l0.6-0.7l0.6-0.7l0.6-0.6l0.5-0.7l0.5-0.6l0.5-0.6l0.5-0.6l0.5-0.7
	l0.5-0.6l0.4-0.6l0.4-0.6l0.4-0.6l0.3-0.6L387.4,417.3L387.4,417.3z M365.5,393.9c1.4,0.9,2.7,1.9,4.1,2.9l0,0v0.2l0.1,0.5l0.2,0.5
	l0.2,0.5l0.3,0.6l0.4,0.6l0.5,0.7l0.3,0.4l0.3,0.5l-0.4,0.5l-0.4,0.5l-0.4,0.5l-0.3,0.5l-0.3,0.5l-0.3,0.5l-0.2,0.5l-0.2,0.5
	l-0.2,0.5l-0.2,0.6l-0.2,0.6l-0.1,0.6l-0.1,0.6l-0.1,0.7v0.7v0.7l-0.5,0.3l-0.5,0.4l-0.8,0.7l-0.8,0.8l-0.7,0.9l-0.7,0.9l-0.6,1
	l-0.6,1.1l-0.6,1.2l-0.5,1.2l-0.5,1.3l-0.3,0.6l-0.2,0.7l-0.5,1.4l-0.2,0.7l-0.2,0.7l-0.4,1.5l-0.4,1.6l-0.3,1.7l-0.1,1v0.9v0.9
	l0.1,0.9l0.1,0.8l0.1,0.8l0.1,0.7l0.2,0.7l0.2,0.6l0.2,0.6l0.2,0.5l0.2,0.4c-18.4,17-34,30.6-50.3,37.4c-2.4-3.7-4.3-7.3-5.9-11
	c18.4-7.7-0.4-30.4,31.6-51.8l0,0l0.7,0.3l0.7,0.2l0.7,0.2l0.7,0.2l0.7,0.1l0.8,0.1l0.8,0.1h0.8l0.8-0.1l0.8-0.1l0.8-0.1l0.9-0.1
	h0.1l0.1-0.1l0.1-0.1l0.2-0.1l0.2-0.1l0.2-0.2l0.3-0.2l0.3-0.2l0.4-0.2l0.4-0.3l0.4-0.3l0.5-0.3l0.5-0.3l0.5-0.4l0.5-0.4l0.6-0.4
	l0.5-0.5l0.6-0.5l0.6-0.5l0.6-0.6l0.6-0.7l0.7-0.7l0.7-0.8l0.7-0.8l0.7-0.9l0.8-1l0.8-1.1l0.8-1.1l0.8-1.2l0.8-1.3l0.8-1.3l0.9-1.4
	l0.3-0.1l0.3-0.1l0.3-0.1l0.3-0.1l0.3-0.2l0.3-0.2l0.3-0.2l0.3-0.2l0.2-0.2l0.2-0.2l0.2-0.3l0.2-0.3l0.2-0.3L365.5,393.9
	L365.5,393.9z M331.1,409.4l-0.3-0.4l-0.2-0.3l-0.2-0.3l-0.4-0.5l-0.2-0.3l-0.1-0.3l-0.3-0.6l-0.2-0.6l-0.2-0.6l-0.1-0.6l-0.1-0.4
	v-0.4v-0.4v-0.4v-0.4v-0.4v-0.4l0.1-0.4l-0.1-0.6v-0.6l0.1-1.2l0.1-0.6l0.1-0.5l0.4-1.2l0.5-1.2l0.3-0.6l0.4-0.5l0.4-0.6l0.4-0.5
	l0.4-0.5l0.5-0.5l0.9-1.2l0.5-0.5l0.5-0.5l1.2-1.2l0.6-0.5l0.7-0.5l0.7-0.5l0.8-0.5l1.6-1.2l1.7-1.2l0.9-0.5l0.2-0.1
	c-5.1-1.3-10.4-2-15.9-2.1c-22.5,32.6-31.1,56.7-23.8,79.2C315.6,455.3,300.9,428.7,331.1,409.4z"/>
<path fill="#FBE800" d="M243.2,477.5l-0.2-0.2l-0.2-0.2l-0.5-0.4l-0.3-0.2l-0.3-0.2l-0.4-0.2l-0.4-0.2l-0.6,1.1l-0.5,1.1l-0.5,1.1
	l-0.4,1.2l-0.3,1.2l-0.2,1.2l-0.2,1.3l-0.1,1.3v0.6v0.6v0.6l0.1,0.5l0.1,0.5l0.1,0.5l0.1,0.5l0.2,0.5l0.2,0.5l0.2,0.5l0.2,0.5
	l0.3,0.5l0.3,0.4l0.3,0.4l0.3,0.4l0.4,0.4l0.3-0.5l0.4-0.5l0.4-0.5l0.5-0.5l0.5-0.5l0.5-0.5l0.6-0.5l0.7-0.4l0.5-0.3l0.6-0.3
	l0.6-0.2l0.6-0.1l-0.1,0.5v0.5v0.5v0.5v0.5l0.1,0.5l0.1,0.5l0.1,0.5l0.1,0.4l0.2,0.4l0.2,0.4l0.2,0.4l0.2,0.4l0.3,0.4l0.3,0.4
	l0.3,0.4l0.8,0.8l0.8,0.8l0.8,0.8l0.8,0.8l0.8,0.7l0.8,0.7l0.8,0.6l0.8,0.6l0.1-0.5l0.1-0.5l0.1-0.4l0.1-0.4v-0.4V499v-0.3v-0.2
	l0.5,0.6l0.5,0.6l0.5,0.7l0.6,0.7l0.6,0.7l0.6,0.8l0.6,0.8l0.6,0.9l0.4,0.4l0.4,0.4l0.2,0.2l0.2,0.2l0.4,0.3l0.2,0.1h0.1l0,0h0.1
	l0.3,0.2l0.3,0.1h0.2h0.1l0,0h0.1l0.3-0.1h0.1h0.1h0.2l0.1-0.1l0.1-0.1l0.3-0.2l0.1-0.2l0.1-0.1l0.2-0.3v-0.1v-0.1l0,0l0.1-0.2
	l0.1-0.2l0.1-0.2l0.6,0.6l0.6,0.6l0.7,0.6l0.4,0.3l0.4,0.3l0.8,0.5l0.8,0.5l0.9,0.5l0.5,0.3l0.5,0.3l0.6,0.3l0.6,0.3l0.6,0.3
	l0.6,0.3l0.6,0.2l0.3,0.1h0.1h0.1l0.2,0.1l0.6,0.2l0.6,0.2l-0.5-0.8l-0.5-0.7l-0.5-0.7l-0.5-0.7l-0.5-0.7l-0.5-0.6L273,506l-0.5-0.5
	l-0.6-0.7l-0.6-0.6l-0.6-0.6l-0.6-0.5l-0.7-0.5l-0.4-0.3l-0.4-0.2l-0.7-0.4l-0.7-0.4l-1.4-0.2l-1-0.5l-1-0.6l-1-0.6l-1-0.6l-1-0.7
	l-0.9-0.7l-0.9-0.8l-1.1-1l-1-1l-1-1l-0.5-0.5l-0.5-0.5l-0.5-0.5l-0.5-0.5l-0.8-1l-0.7-1.1l-0.4-0.5l-0.3-0.5l0.4,0.5l0.4,0.5
	l0.4,0.5l0.4,0.5l0.8,0.7l0.4,0.4l0.5,0.4l0.5,0.3l0.5,0.3l0.5,0.3l0.5,0.3l0.9,0.5l0.5,0.2l0.5,0.2l0.6,0.2l0.4,0.1h0.4h0.4h0.5
	h0.5h0.5l-0.8-0.7l-0.4-0.4l-0.4-0.4l-0.4-0.5l-0.3-0.4l-0.3-0.5l-0.3-0.4l-0.5-0.8l-0.5-0.8l-0.4-0.9l-0.2-0.5l-0.1-0.5l-0.1-0.2
	l-0.1-0.2l-0.1-0.2l-0.1-0.2l-0.2-0.3l-0.2-0.2l-0.2-0.2l-0.1-0.1l-0.1-0.1l-0.2-0.1H256h-0.2l-0.2,0.1h-0.1l-0.1,0.1l-0.1,0.1
	l-0.1,0.1l-0.3,0.2l-0.3,0.3l-0.2,0.2l-0.1,0.2l-0.2,0.2l-0.1,0.2l-0.1-0.8l-0.1-0.8l-0.1-0.9v-0.9v-0.9v-0.9v-0.9V480v-0.6v-0.5
	v-0.5l-0.1-0.5l-0.1-0.5l-0.1-0.5l-0.2-0.5l-0.2-0.4l-0.2,0.3l-0.3,0.3l-0.3,0.3l-0.3,0.3l-0.4,0.3l-0.5,0.3l-0.5,0.3l-0.2,0.1
	l-0.1,0.1l-0.3,0.2l-0.3,0.1h-0.2H250h-0.1h-0.1h-0.1h-0.2h-0.1h-0.1h-0.2h-0.4h-0.4h-0.1h-0.1h0.3h-0.4l0.2,0.5v0.1l0.1,0.1
	l0.1,0.2l0.2,0.4v0.1l0,0v0.1l0.1,0.2l0.2,0.2l0.2,0.2l0.2,0.2l0.1,0.1l0,0h0.1l-0.5,0.1l-0.5,0.1h-0.5h-0.5h-0.5l-0.5-0.1l-0.5-0.1
	l-0.4-0.1l-0.4-0.2l-0.4-0.2l-0.4-0.2l-0.4-0.2l-0.4-0.3l-0.4-0.3l-0.4-0.3L243.2,477.5L243.2,477.5z M228.9,498.5l-0.2,0.1h-0.2
	h-0.2h-0.2l-0.2-0.1l-0.2-0.1l-0.1-0.2l-0.1-0.2l-0.1-0.2l-0.1-0.3l-0.1-0.3l-0.1-0.3l-0.1-0.4v-0.4v-0.5v-0.5v-0.6l0.1-0.6l0.1-0.6
	l0.1-0.5l0.1-0.6l0.2-0.5l0.2-0.5l0.2-0.5l0.2-0.5l0.3-0.5l0.3-0.5l0.4-0.5l0.3-0.5l0.4-0.4l0.4-0.4l0.5-0.4l0.5-0.5l0.3-0.2
	l0.3-0.2l0.2-0.2l0.3-0.1l0.2-0.1l0.2-0.1l0.2-0.1h0.2h0.2h0.2h0.2l0.2,0.1l0.2,0.1l0.2,0.1l0.1,0.1l0.2,0.2l0.1,0.2l0.1,0.2
	l0.1,0.2l0.1,0.3l0.1,0.3l0.1,0.3l0.1,0.3l0.1,0.4l0.1,0.4l0.1,0.4v0.4v0.5v0.5v0.5l0.1,1.3l0.1,1.3l0.2,1.3l0.3,1.3l0.3,1.2
	l0.2,0.5l0.2,0.6l0.2,0.5l0.2,0.5l0.5,1.2l0.2-0.4l0.2-0.4l0.3-0.5l0.3-0.5l0.2-0.4l0.1-0.2l0.1-0.1l0.2-0.2l0.1-0.1h0.1h0.2
	l0.2,0.2l0.2,0.2l0.1,0.2l0.1,0.2l0.5,1.1l0.6,1l0.6,0.9l0.4,0.5l0.4,0.5l0.7,0.8l0.8,0.7l0.8,0.6l0.5,0.3l0.5,0.3v-1.2v-0.5
	l0.1-0.5l0.2-1.1l0.2-1l0.3-1l0.3-0.9l0.4-0.9l0.5-0.8l0.5,0.4l0.5,0.5l0.5,0.5l0.5,0.5l0.7,1l0.4,0.5l0.4,0.5l0.3,0.5l0.4,0.5
	l0.3,0.5l0.3,0.5l0.3,0.5l0.3,0.6l0.5,1.2l0.2,0.6l0.2,0.6l0.4,1.4l0.2-0.2l0.2-0.2l0.2-0.2l0.2-0.1l0.2-0.1l0.3-0.1l0.3-0.1
	l0.3-0.1l0.3-0.1h0.3h0.3h0.4h0.3l0.4,0.1l0.4,0.1l0.4,0.1l0.5,0.2l0.5,0.2l1.1,0.4l0.5,0.2l0.5,0.3l1.1,0.5l1.1,0.5l0.5,0.3
	l0.5,0.3l1,0.6l1,0.7l0,0l0,0v-0.1v-0.1v-0.2v-0.1v-0.1v-0.2v-0.1v0.2v-0.3l-0.1-0.4v-0.2V510l1.3,0.7l0.6,0.4l0.7,0.5l0.7,0.5
	l0.7,0.5l1.4,1.1l0.3,0.2l0.3,0.2l0.2,0.2l0.3,0.2l0.2,0.2l0.2,0.2l0,0h0.1l0.1,0.1l0.2,0.2h0.1l0,0h0.1l0.2,0.1l0.2,0.1l0.2,0.1
	h0.1l0,0l0,0h0.1h0.1h0.1h0.1l0,0h0.1h0.1h0.1v-0.1V515v-0.1l0,0v-0.1v-0.1v-0.1v-0.1v-0.2v-0.2l-0.1-0.2v-0.2l-0.1-0.2v-0.1v-0.1
	l0,0l0.5,0.3l0.5,0.2l0.5,0.2l0.5,0.2l0.6,0.2l0.6,0.3l0.5,0.3l0.5,0.4l0.5,0.4l0.3,0.2l0.3,0.3l0.2,0.3l0.3,0.3l0.2,0.3l0.3,0.3
	l0,0v0.1l0.1,0.1l0.2,0.2l0.3,0.4l0.1,0.2l0.2,0.2l0.3,0.3l0.1,0.1l0.1,0.1l0.3,0.2l0.1,0.1l0.1,0.1l0.3,0.1h0.1h0.1h0.2h0.1h0.1
	l0.2-0.1l0.2-0.2v-0.1h0.1l0.1-0.1l0.1-0.1v-0.1l0,0l0,0l0.2-0.3l0.2-0.5l0.2-0.5l0.1-0.5l0.1-0.4l0.1-0.4v-0.4v-0.4v-0.4l0.3,0.3
	l0.4,0.3l0.4,0.3l0.5,0.4l0.5,0.3l0.5,0.4l0.5,0.4l0.6,0.4l1.2,0.6l1.2,0.6l1.2,0.6l1.2,0.7l2.3,1.4l2.3,1.4l-0.6,0.6l-0.6,0.6
	l-0.6,0.5l-0.5,0.5l-0.5,0.4l-0.3,0.2l-0.5,0.4l-0.5,0.3l-0.5,0.3l-0.5,0.3l-0.2,0.1l-0.1,0.1l-0.3,0.2l-0.5,0.2l-0.5,0.2L290,528
	l-0.5,0.2l-0.5,0.2l-0.5,0.1h-0.3H288h-0.1h-0.2l-0.5,0.1h-0.3h-0.3h-0.5h-0.9h-0.8l-1.6-0.1l-0.8-0.1l-0.8-0.1l-0.8-0.1l-0.8-0.2
	l-1.5-0.4l-1.5-0.5l-0.7-0.3l-0.7-0.3l-0.7-0.3l-0.7-0.3l-0.8-0.4l-0.8-0.4l-1.6-0.8l-0.8-0.5l-0.7-0.5l-0.7-0.5l-0.7-0.5l-1.4-1
	l-1.4-1l-0.7-0.5l-0.6-0.5l-0.6-0.5l-0.6-0.5l-0.3-0.3l-0.3-0.2l-0.5-0.4l-0.5-0.3l-0.2-0.1l-0.2-0.1l-0.2-0.1l-0.2-0.1l-0.2-0.1
	h-0.1h-0.2h-0.1l-0.2,0.1l-0.1,0.1l-0.1,0.1l-0.1,0.1v0.2l-0.1,0.2v0.2v0.4v0.5l0.1,0.5l0.1,0.6l0.1,0.4l0.1,0.4l-0.8-0.2l-0.8-0.3
	l-0.7-0.3l-0.7-0.3l-0.7-0.4l-0.7-0.4l-0.7-0.4l-0.6-0.4l-0.6-0.5l-0.6-0.5l-0.6-0.5l-0.5-0.5l-0.5-0.5l-0.5-0.5l-0.5-0.5l-0.5-0.5
	l-0.5-0.5l-0.5-0.5l-0.5-0.5l-0.4-0.5l-0.5-0.5l-0.4-0.5l-0.4-0.5l-0.4-0.4l-0.4-0.3l-0.4-0.2l-0.4-0.2l-0.3-0.1h-0.3l-0.3,0.1
	l-0.3,0.2l-0.2,0.3l-0.2,0.3l-0.2,0.4l-0.2,0.5l-0.2,0.5l-0.6-0.3l-0.6-0.4l-0.6-0.4l-0.5-0.4l-0.5-0.5l-0.5-0.5l-0.5-0.5l-0.5-0.5
	l-0.5-0.5L237,508l-0.7-0.9l-0.4-0.5l-0.3-0.5l-0.3-0.5l-0.3-0.5l-0.3-0.5l-0.3-0.5l-0.5-1l-0.5-1.1l-0.2-0.5l-0.2-0.5l-0.2-0.5
	l-0.1-0.2l-0.1-0.2l-0.2-0.4l-0.2-0.3l-0.2-0.3l-0.2-0.2l-0.3-0.2l-0.3-0.2l-0.3-0.2l-0.3-0.1l-0.3-0.1h-0.3h-0.4l-0.4,0.1l-0.4,0.1
	L228.9,498.5L228.9,498.5z M202.2,469.9v0.4v0.4v0.7v0.7l-0.1,0.7l-0.1,0.7l-0.1,0.7l-0.2,0.7l-0.2,0.7l-0.5,1.6l-0.5,1.6l-0.5,1.6
	l-0.5,1.6l-0.5,1.5l-0.5,1.5l-0.6,1.5l-0.3,0.8l-0.3,0.8l0.5-0.2l0.6-0.2l0.5-0.2l0.2-0.1h0.2l0.3-0.1l0.3-0.1l0.2-0.1h0.2l0.5-0.2
	l0.3-0.1l0.2-0.1h0.2l0.5-0.2l0.5,4.9l0.6,5l1.4,10.9l0.2,1.2l0.2,1.2l0.2,1.2l0.3,1.2l0.3,1.1l0.3,1.2l0.4,1.1l0.4,1.1l0.2-0.1
	l0.2-0.1l0.1-0.1l0.1-0.1l0.1-0.1l0.1-0.1l0.2-0.2l0.1-0.1l0.1-0.1l0.1-0.2l0.1-0.2l0.4-0.7l0.5-0.6l0.5-0.5l0.5-0.5l0.5-0.4
	l0.5-0.3l0.5-0.2l0.5-0.1h0.5l0.5,0.1l0.5,0.2l0.5,0.2l0.5,0.3l0.5,0.4l0.5,0.5l0.5,0.5l1.6,1.9l1.7,1.9l1.6,1.9l1.7,2l0.3,0.3
	l0.3,0.3l0.3,0.3l0.3,0.3l0.2,0.2l0.3,0.2l0.2,0.2l0.1,0.1h0.1l0.1,0.1l0.2,0.1l0.2,0.1l0.2,0.1l0,0h0.1h0.1h0.1l0,0h0.1h0.2h0.1
	h0.1h0.2l0.1-0.1l0.2-0.1l0.1-0.1l0.1-0.1l0.2-0.1l0.1-0.2l0.1-0.2v-0.1v-0.1l0,0l0.1-0.2l0.1-0.3v-0.2v-0.1v-0.1v-0.1v-0.1v-0.2
	l0.1-0.3v-0.4l0.1-0.4v-0.4l0.1-0.4l0.5,0.6l0.5,0.6l0.5,0.5l0.6,0.5l0.6,0.5l0.7,0.5l0.7,0.4l0.7,0.4v-0.5v-1.2l1.4,0.4l1.4,0.4
	l1.4,0.4l1.3,0.4l1.2,0.4l0.5,0.2l0.5,0.2l0.5,0.1l0.5,0.1l0.5,0.1h0.3h0.2h0.2l0.5,0.1h0.1h0.2h0.3h0.5h0.5h0.3h0.3h0.5l1-0.1
	l-0.5-0.3l-0.5-0.3l-0.6-0.2l-0.7-0.2l-1.5-0.5l-1.4-0.5l-0.7-0.3l-0.7-0.3l-1.4-0.6l-0.7-0.4l-0.6-0.4l-0.6-0.4l-0.6-0.4l-0.6-0.5
	l-0.6-0.5l-0.6-0.5l-0.5-0.5l-0.1,0.3l-0.1,0.3l-0.1,0.3l-0.1,0.2v0.1l0,0v0.1L232,520l0,0l0,0v0.1l-0.1,0.2l-0.1,0.1l0,0l0,0v0.1
	l-0.2,0.2l-0.1-0.1h-0.1l-0.1-0.1l-0.2-0.2l-0.5-0.3l-0.5-0.3l-0.5-0.3l-0.5-0.4l-0.5-0.3l-0.5-0.4l-0.5-0.3l-0.5-0.3l-0.4-0.3
	l-0.4-0.3l-0.4-0.3l-0.4-0.3l-0.4-0.3L225,516l-0.6-0.6l-0.5-0.6l-0.5-0.7l-0.3-0.4l-0.2-0.4l-0.4-0.5l-0.4-0.5l-0.4-0.5l-0.4-0.4
	l-0.4-0.3l-0.4-0.2l-0.4-0.1h-0.3h-0.4l-0.3,0.1l-0.3,0.2l-0.3,0.3l-0.3,0.4l-0.3,0.5l-0.3,0.5l-0.3,0.5l-0.5-0.6l-0.5-0.6l-0.5-0.6
	l-0.4-0.6l-0.7-1.4l-0.4-0.7l-0.4-0.7l-0.9-2.1l-0.9-2l-0.8-2l-0.8-1.9l-0.2,0.2l-0.2,0.2l-0.3,0.2l-0.3,0.2l-0.2,0.1l-0.2,0.1
	l-0.4,0.2l-0.5,0.2l-0.5,0.2l-0.2-0.5l-0.2-0.5l-0.2-0.5l-0.2-0.5l-0.2-0.5l-0.1-0.5l-0.2-1.2l-0.1-0.6l-0.1-0.6l-0.1-0.6v-0.6v-0.7
	V493l0.1-1.4l0.1-1.4l0.2-1.4l0.2-1.4l0.3-1.4l0.2-0.8l0.1-0.4l0.1-0.4v-0.4v-0.4v-0.6l-0.1-0.4v-0.3l-0.1-0.5l-0.2-0.5l-0.1-0.2
	l-0.1-0.2l-0.3-0.4l-0.2-0.2l-0.2-0.2l-0.5-0.3l-0.5-0.2l-0.5-0.2l-0.5-0.1H205h-0.5h-0.4h-0.4l0.6-0.8l0.7-0.9l0.7-1l0.7-1l0.2-0.3
	l0.2-0.3l0.2-0.3l0.2-0.3l0.4-0.5l0.2-0.3l0.2-0.3l0.3-0.6l0.2-0.3l0.2-0.3l0.3-0.6l0.3-0.6l0.3-0.6l0.3-0.6l0.3-0.6l0.3-0.6
	l0.2-0.7l0.2-0.7l0.2-0.7l0.2-0.7l0.3,0.3l0.3,0.3l0.3,0.2l0.4,0.2l0.4,0.2l0.4,0.1l0.4,0.1l0.5,0.1l-0.4,2.5l-0.3,2.5l-0.2,2.5v2.6
	v0.6v0.6l0.1,0.5l0.1,0.5l0.1,0.5l0.2,0.5l0.2,0.5l0.2,0.5l0.2,0.4l0.3,0.4l0.3,0.3l0.3,0.3l0.3,0.2l0.4,0.2l0.4,0.2l0.5,0.2
	l0.2,0.7l0.2,0.7l0.2,0.7l0.2,0.8l0.3,1.6l0.1,0.8l0.1,0.8l0.1,0.6l0.1,0.6l0.1,0.6l0.1,0.6l0.3,1.2l0.4,1.2l0.2,0.5l0.2,0.5
	l0.2,0.5l0.2,0.5l0.5,0.9l0.5,0.9l-0.1-0.5v-0.4v-0.4v-0.4l0.1-0.6l0.1-0.4l0.1-0.3l0.3-0.7l0.3-0.6l0.2-0.6l0.1-0.3l0.1-0.3
	l0.1,0.7l0.1,0.7l0.2,0.7l0.2,0.7l0.2,0.6l0.3,0.7l0.2,0.4l0.2,0.4l0.4,0.7l0.8,1.4l0.5,0.6l0.5,0.6l0.5,0.6l0.5,0.6l1,1.2l1,1.1
	l0.5,0.5l0.5,0.5l0.5,0.5l0.5,0.5l1.2,0.9l0.4,0.3l0.2,0.2l0.2,0.2l0.8,0.5l0.7,0.5l0.7,0.5v-0.6v-0.5v-0.5v-0.4v-0.5v-0.4v-0.4
	v-0.3l0.1,0.4l0.2,0.4l0.3,0.8l0.4,0.7l0.4,0.8l0.5,0.7l0.5,0.7l0.5,0.7l0.5,0.7l1.1,1.2l1.1,1.2l1.1,1.1l1.1,1l1.1,1l1.2,0.9
	l1.2,0.8l1.2,0.8l0.1-0.8l0.2-0.7l0.2-0.6l0.2-0.5l0.2,0.4l0.2,0.4l0.2,0.4l0.2,0.4l0.2,0.4l0.3,0.4l0.3,0.4l0.3,0.4l0.3,0.3
	l0.3,0.3l0.3,0.3l0.4,0.3l0.6,0.5l0.4,0.3l0.4,0.3l0.9,0.5l0.9,0.5l0.9,0.4l1,0.4l1,0.3l1.1,0.3l1.1,0.2l1.2,0.2v-0.5l0.1-0.5
	l0.1-0.4l0.1-0.4l0.1-0.3l0.2-0.3l0.2-0.2l0.2-0.2l0.2-0.1l0.2-0.1h0.2l0.3,0.1l0.3,0.1l0.3,0.2l0.3,0.2l0.4,0.3l0.6,0.5l0.6,0.5
	l1.4,0.9l0.7,0.5l0.7,0.4l1.4,0.7l1.4,0.6l0.7,0.3l0.7,0.3l0.7,0.2l0.7,0.2l0.7,0.2l0.7,0.2l0.8,0.2l0.8,0.3l-0.6,0.1h-0.4h-0.2
	h-0.2h-0.2h-0.2h-0.4H272h-0.4h-0.5h-0.5h-0.5h-0.5h-0.5h-0.5H268h-1.2h-1.2h-1.2l-1.1,0.1l-1.1,0.1l-1,0.1l-1,0.1l-1,0.2v0.4v0.4
	l0.1,0.4l0.1,0.4l0.1,0.3l0.2,0.4l0.2,0.3l0.2,0.3h-0.6H259h-0.5l-0.5-0.1l-0.5-0.1l-0.5-0.1l-0.5-0.2L256,532l-1.4-0.5l-1.4-0.4
	l-1.4-0.3l-1.4-0.2l-1.4-0.1h-0.7l-0.7,0.1l-1.4,0.2l-1.4,0.3l0.3,0.3l0.3,0.3l0.1,0.1l0.1,0.2l0.1,0.1l0.1,0.2l0.2,0.2l0.2,0.2
	l0.2,0.2l0.1,0.1l0,0l0,0l0,0l-0.9,0.5l-0.8,0.6l-0.8,0.6l-0.8,0.7l-0.8,0.7l-0.7,0.7l-0.7,0.7l-0.7,0.8l-0.5,0.5l-0.5,0.5l-0.5,0.5
	l-0.5,0.5l-0.5,0.4l-0.5,0.4l-0.5,0.4l-0.5,0.4l-0.5,0.3l-0.3,0.2l-0.3,0.2l-0.3,0.1l-0.3,0.2l-0.6,0.3l-0.6,0.2l-0.6,0.2l-0.6,0.2
	l-0.4,0.1l-0.3,0.1l0.9,0.8l0.9,0.9l0.9,1l0.9,1.1l-1.9-0.1l-1.8-0.1l-1.2-0.1l-1.1-0.1l-1.1-0.2l-1.1-0.2l-1.1-0.2l-1-0.3l-1-0.3
	l-1-0.3l-1-0.4l-0.9-0.4l-0.9-0.5l-0.9-0.5l-0.9-0.5l-0.8-0.5l-0.8-0.5l-0.8-0.5l0.1,0.5l0.2,0.5l0.2,0.4l0.3,0.4l0.3,0.3l0.3,0.3
	l0.3,0.2l0.4,0.2l-1.1-0.1l-1.1-0.1l-1-0.2l-1-0.2l-1-0.3l-1-0.3l-1-0.3l-1-0.3l-1-0.4l-0.9-0.4l-0.9-0.4l-0.9-0.4l-0.9-0.5
	l-0.9-0.5l-1.8-1l-0.9-0.5l-0.8-0.5l-0.8-0.5l-0.8-0.5l-1.3-1l-0.6-0.5l-0.5-0.5l-0.5-0.5l-0.5-0.5l-0.5-0.5l-0.5-0.5l-0.5-0.5
	l-0.4-0.5l-0.4-0.5l-0.4-0.5l-0.4-0.5l-0.3-0.5l-0.5-1l-0.3,0.6l-0.3,0.6l-0.3,0.6l-0.3,0.5l-0.4,0.5l-0.3,0.5l-0.2,0.2l-0.2,0.3
	l-0.3,0.5l-0.4-0.6l-0.4-0.6l-0.5-1.3l-0.5-1.3l-0.5-1.3l-0.2-0.7l-0.2-0.6l-0.3-1.4l-0.1-0.7l-0.1-0.7l-0.1-1.4l-0.1-1.3l-0.1-1.2
	l-0.1-1.2v-1.2v-1.1v-1.1v-1.1v-1l-0.6,0.4l-0.3,0.2L185,515l-0.4,0.1l-0.3,0.1l-0.6,0.2H183h-0.7l-0.4-0.1l-0.4-0.1h-0.1h-0.1l0,0
	h-0.2l-0.4-0.1l0.6-1.4l0.7-1.4l0.7-1.5l0.8-1.5l0.5-1.1l0.5-1.1l0.5-1.1l0.5-1.1l0.5-1.1l0.5-1.1l0.5-1.1l0.2-0.5l0.2-0.5l0.2-0.5
	l0.2-0.5l0.2-0.5l0.2-0.5l0.3-1.2l0.3-1.2l0.2-1.2l0.2-1.2l0.1-0.6l0.1-0.6l0.2-1.2l0.1-1.3l0.1-1.3l0.1-1.3l0.1-1.3v-1.3v-1.3v-1.3
	l-0.1-1.3l-0.1-2.5l-0.2-2.4l-0.1-1.2l-0.1-1.2l-0.2-1.2l-0.2-1.2l-0.2-1.3l-0.1-1.3l-0.1-1.2v-1.2l0.1-1.2l0.2-1.2l0.2-1.2l0.3-1.1
	l0.4,0.2l0.4,0.3l0.7,0.6l0.7,0.7l0.7,0.8l0.4-0.6l0.4-0.5l0.4-0.5l0.5-0.5l0.5-0.5l0.5-0.5l0.5-0.5l0.5-0.4l0.4,1.3l0.3,1.4
	l0.3,1.4l0.2,1.4l0.2,1.4l0.1,1.4l0.1,1.4v1.5l0.4-0.1l0.4-0.1l0.4-0.1l0.4-0.1l0.2-0.1l0.2-0.1l0.4-0.1l0.6-0.3l0.6-0.3l0.3-0.2
	l0.3-0.2l0.3-0.2l0.2-0.1l0.1-0.1h0.1L202.2,469.9L202.2,469.9z M236.3,461.5l0.2-0.3l0.2-0.3l0.2-0.3l0.2-0.2l0.2-0.2l0.2-0.2
	l0.4-0.3l0.1-0.2l0.1-0.1l0.1-0.1h0.1h0.1h0.1l0,0v0.1l3-1.2l0.2-0.2l0.3-0.1l0.3-0.1l0.4-0.1l0.5-0.1h0.5h0.5l0.6,0.1v-0.1l0.2,0.1
	l0.6,0.2l0.6,0.2h0.2l0.3,0.1l0.4,0.1l0.4,0.1l0.4,0.2l0.4,0.2l0.3,0.2l0.2,0.2l0.2,0.2l0.2,0.3l0.5,1.1l0.2,0.5l0.2,0.5l0.4,1.1
	l0.2,0.5l0.2,0.6l0.1,0.5l0.1,0.6l0.1,0.6v0.6v1.3l-0.1,1.4v0.2v0.1v0.1v0.1v0.1l-0.1,0.2l-0.1,0.1v0.1l-0.1,0.2l-0.1,0.1l0,0l0,0
	l0,0l0,0l-0.1,0.2l-0.3,0.3l0,0l0,0l0,0l-0.1,0.1l-0.2,0.2l-0.3,0.3l-0.3,0.3l-0.7,0.5l-0.4,0.2l-0.4,0.2l-0.5,0.1l-0.5,0.1H246
	h-0.2h-0.2h-0.3h-0.2l-0.5-0.1l-0.3-0.1l-0.2-0.1l-0.5-0.2l-0.7-0.4l-0.6-0.3l-0.6-0.2l-0.6-0.2l-0.5-0.1h-0.5h-0.3h-0.2l-0.5,0.1
	l-0.5,0.2l-0.4,0.2l-0.4,0.3l-0.3,0.4l-0.3,0.4l-0.1,0.2l-0.1,0.3l-0.1,0.3l-0.1,0.3l-0.1,0.6l-0.1,0.5l-0.1,0.5l-0.2,0.4l-0.2,0.4
	l-0.2,0.4l-0.2,0.4l-0.1,0.2l-0.1,0.2l-0.1,0.2l-0.1,0.2l-0.3,0.3l-0.3,0.3l-0.3-0.1l-0.1,0.2l-0.2,0.1l-0.1,0.2l-0.3,0.2l-0.3,0.3
	l-0.4,0.2l-0.4,0.2l-0.7,0.4l-0.6,0.3l-0.6,0.2l-0.6,0.2l-0.6,0.1l-0.5,0.1h-0.5l-0.5-0.1l-0.5-0.2l-0.5-0.2l-0.5-0.3l-0.5-0.3
	l-0.5-0.4l-0.5-0.5l-0.5-0.5l-0.4-0.5l-0.1,0.6l-0.1,0.7l-0.1,0.6l-0.1,0.6l-0.1,0.6l-0.1,0.3v0.4l-0.1,0.3l-0.1,0.3l-0.1,0.6
	l-0.1,0.3l-0.1,0.3l-0.2,0.5v0.1v0.1v0.2l-0.1,0.3l-0.2,0.5l-0.2,0.5l-0.2,0.5l-0.2,0.5l-0.2,0.5l-0.7-2.2l-0.7-2.2l-0.7-2.1
	l-0.8-2.1l-0.4-1.1l-0.3-1l-0.2-1v-1l0.1-1l0.2-1l0.1-0.5l0.2-0.5l0.4-1l0.2-0.5l0.3-0.5l0.3-0.4l0.4-0.4l0.4-0.4l0.5-0.4l0.5-0.4
	l0.5-0.3l0.1,0.1l0.5,0.2l0.2,0.1l0.2,0.1l0.5,0.1h0.2h0.2h0.2h0.2h0.3h0.2h0.2h0.1l0,0l0,0l0,0h0.1l0.2-0.1l1.9,0.2l2.5-0.8
	l0.6-0.5l0.6-0.5l0.5-0.5l0.5-0.5l0.5-0.5l0.5-0.4l0.4-0.4l0.3-0.3l1-1.2L236.3,461.5z"/>
<polygon fill="#12100D" points="255,348.8 255,347.8 255,347.3 255,347 255,346.8 255,346.7 255,345.7 255,344.5 255,343.4 
	255,342.2 254.9,341.1 254.9,340.4 254.8,339.8 254.7,338.6 254.6,337.4 254.4,336.1 254.2,334.8 254.1,334.1 254.1,333.5 
	254,332.8 253.8,332.1 253.6,330.8 253.4,330.1 253.3,329.4 253.1,328 250.4,330 247.8,332.1 245.2,334.2 242.7,336.6 240.2,338.9 
	237.7,341.4 235.2,344 232.8,346.7 231.6,348.2 230.4,349.5 228,352.5 225.7,355.5 223.3,358.6 221.1,361.9 218.8,365.2 
	216.7,368.6 214.4,372.1 215.6,371.9 216.9,371.5 218,371.2 219.3,371.1 220.6,370.8 221.9,370.6 223.2,370.5 224.5,370.3 
	225.9,370.2 227.2,370.2 228.7,370.2 230.1,370.2 231.4,370.2 233,370.2 234.4,370.2 236,370.4 236.1,370.3 236.3,370.4 
	237.3,368.6 238.3,367 239.3,365.4 240.4,363.8 241.4,362.3 242.6,360.9 243.7,359.4 244.9,358.1 246,356.7 247.2,355.5 
	248.5,354.2 249.7,353 250.9,351.9 252.3,350.8 253.5,349.8 "/>
<polygon fill="#12100D" points="424.3,350.3 424,349.6 423.7,349 423.3,347.6 423.7,349 424,349.6 424.3,350.3 424.8,352.4 
	425.3,354.6 425.5,355.7 425.7,356.7 426.1,358.9 426.2,361.1 426.4,363.4 426.5,364.6 426.5,365.6 426.5,368 426.5,369.2 
	426.4,370.3 426.3,372.8 426.2,373.9 426.1,375.2 426,376.4 425.8,377.6 425.6,378.9 425.4,380.1 425.2,381.3 425,382.6 
	424.4,385.1 424.1,386.5 423.8,387.7 423.1,390.3 422.7,391.7 422.4,392.9 421.5,395.6 420.6,398.3 419.5,401 418.4,403.8 
	417.9,405.2 417.2,406.6 416.1,409.5 415.3,410.9 414.7,412.3 413.3,415.2 412.6,416.6 411.8,418.2 411,419.6 410.2,421.1 
	409.4,422.6 408.6,424.1 407.7,425.5 406.9,427.1 405.1,430.1 404.2,431.7 403.2,433.2 403,434.6 402.9,435.3 402.9,435.4 
	402.8,435.6 402.8,436 402.7,436.3 402.7,436.4 402.7,436.6 402.6,437.2 402.4,438.4 402.1,439.6 401.9,440.1 401.8,440.7 
	401.7,441.1 401.5,441.7 401.3,442.1 401.2,442.6 400.8,443.5 400.6,443.9 400.4,444.4 399.9,445.1 399.8,445.4 399.6,445.8 
	399,446.3 398.6,447 398.1,447.5 397.8,447.7 397.7,447.8 397.6,447.9 397.6,448 397.6,449.2 397.7,450.5 397.8,453.1 397.8,453.6 
	397.8,454.2 397.7,455.2 397.6,457.2 397.6,457.5 398,459.3 398.1,461 398.2,461.8 398.3,462.1 398.3,462.3 398.4,462.7 
	398.6,464.4 398.8,466.2 398.8,467.1 398.9,467.9 398.9,468.8 399,469.6 399,471.3 399.6,470.7 400,469.9 400.3,469.6 400.6,469.3 
	401,468.5 401.6,467.8 402,467 402.1,466.8 402.2,466.5 402.5,466.2 402.9,465.3 403.2,464.8 403.4,464.4 403.8,463.5 404.2,462.5 
	404.4,462 404.6,461.6 405.1,460.5 405.1,460.2 405.3,459.9 405.4,459.5 405.8,458.4 406.2,457.2 405.7,458.9 405.6,459.2 
	405.5,459.6 405.3,460.4 404.9,461.8 404.4,463.3 404,464.6 403.5,466 403.1,467.3 402.6,468.6 402.2,469.8 401.7,470.8 401.3,472 
	400.8,473 400.4,474 400.1,474.5 399.9,475 399.4,475.9 399.2,476.3 399,476.7 398.9,478.1 398.8,479.7 398.6,481 398.5,482.5 
	399.5,481.4 400.5,480.2 400.9,479.7 401.5,479 401.9,478.5 402.5,477.9 403.4,476.7 404.4,475.4 405.3,474.2 405.7,473.4 
	406.2,472.8 407.1,471.6 408,470.2 408.9,468.9 409.8,467.4 410.1,466.7 410.4,466.3 410.6,466.1 411.4,464.6 412.3,463.1 
	412.6,462.4 412.9,462 413.1,461.7 413.9,460.1 414.7,458.6 415.4,457.1 416.2,455.4 417,453.8 417.8,452.2 418,451.7 418.1,451.3 
	418.5,450.5 419.2,448.9 419.6,448 419.9,447.2 420.3,446.3 420.7,445.4 421.3,443.6 422,441.8 422.6,440 423,439.1 423.3,438.2 
	423.6,437.2 423.9,436.3 424.6,434.5 425,433.2 425.2,432.5 425.4,431.8 425.9,430.2 426.2,428.7 426.7,427.2 427.1,425.6 
	427.5,424.1 428.3,421 428.7,419.5 429,418 429.8,414.8 429.8,414.4 429.8,414 430,413.2 430.4,411.7 431,408.5 431.2,407.7 
	431.3,407.3 431.4,406.9 431.6,405.3 432.3,402 432.8,398.8 432.8,398.3 432.9,397.9 433.1,397.1 433.4,395.5 433.5,393.7 
	433.6,393.4 433.7,392.9 433.8,392.1 434.3,388.8 434.5,387.1 434.7,385.5 435.2,382 435.3,380.2 435.4,378.4 435.6,376.6 
	435.7,374.8 435.8,373 435.8,371.3 435.8,369.5 435.7,367.8 435.6,366 435.5,364.2 435.3,362.5 435.2,360.7 435,359 434.7,357.3 
	434.4,355.5 434.2,353.8 433.8,352.1 433.4,350.3 433,348.6 432.5,346.9 432,345.2 431.5,343.5 430.9,341.8 430.3,340.1 
	429.7,338.4 429,336.7 428.3,335 427.6,333.3 426.8,331.7 426.1,330 425.2,328.3 424.4,326.7 423.4,325.1 422.3,323.7 421.3,322.2 
	420.2,320.9 419.2,319.5 418.1,318.1 417,316.8 415.9,315.6 414.7,314.3 413.5,313.1 412.3,312 411.1,310.8 409.9,309.7 
	408.6,308.6 407.3,307.7 406.1,306.7 404.7,305.7 403.4,304.7 402,303.8 400.6,303 399.2,302.1 397.8,301.3 396.3,300.5 
	394.8,299.8 393.4,299.1 391.8,298.5 390.3,297.8 388.7,297.2 387.2,296.7 385.5,296.1 383.9,295.6 382.3,295.1 381.8,294.9 
	380,294.3 378.3,293.9 376.6,293.4 374.9,293 373.1,292.6 371.3,292.3 369.5,292 367.7,291.7 365.8,291.4 363.9,291.3 362,291.1 
	360,291 358.1,290.8 356.1,290.8 354.1,290.7 352,290.7 350,290.7 347.9,290.8 345.7,290.9 343.7,291 341.4,291.2 339.2,291.4 
	337.1,291.6 334.8,291.9 332.5,292.2 330.2,292.5 327.9,292.9 325.6,293.2 323.2,293.7 320.8,294.1 318.4,294.6 316,295.1 
	312,296.1 308.2,297.2 304.4,298.4 300.5,299.7 298.6,300.4 296.7,301.1 293,302.6 289.3,304.2 287.4,305 285.6,305.9 281.9,307.8 
	280,308.7 278.2,309.7 276.3,310.7 274.5,311.8 270.9,314 267.3,316.2 263.8,318.6 262,319.8 260.2,321.1 256.7,323.7 258.2,325.6 
	258.9,326.5 259.5,327.5 260.3,328.4 260.4,328.5 260.4,328.5 260.5,328.8 260.9,329.3 262.2,331.2 262.8,332.1 263.3,333 
	264.5,334.9 265,335.8 265.5,336.7 266.5,338.6 268.7,337 271.1,335.4 273.3,333.9 275.6,332.4 277.8,331 280.2,329.6 282.4,328.3 
	284.7,326.9 286.9,325.7 289.2,324.5 291.4,323.3 292.6,322.7 293.7,322.2 295.9,321.1 298.2,320.1 300.4,319.1 302.7,318.1 
	304.9,317.2 307.2,316.3 309.4,315.5 311.7,314.7 313.9,314 316.2,313.2 318.4,312.6 320.7,312 322.9,311.4 325.1,310.9 
	327.4,310.4 329.6,310 331.8,309.5 334,309.2 336.3,308.9 338.5,308.6 339.9,308.6 341.3,308.6 342.7,308.6 344,308.7 345.3,308.8 
	346.6,308.9 347.9,309 349.2,309.1 350.3,309.2 351.5,309.4 352.7,309.5 353.8,309.7 354.9,309.9 356,310.1 357.1,310.4 
	358.1,310.6 359.1,310.8 360.1,311.1 361,311.3 362,311.7 362.9,312 363.8,312.3 364.6,312.7 365.5,313.1 366.3,313.4 367.1,313.9 
	367.8,314.2 368.5,314.7 369.2,315.1 370,315.6 370.6,316 371.2,316.6 371.8,317.1 372.4,317.6 372.9,318.1 373.5,318.7 374,319.3 
	374.5,319.8 374.9,320.4 375.4,321.1 375.7,321.7 376.1,322.3 376.4,323.1 376.7,323.7 377.1,324.4 377.3,325.1 377.5,325.8 
	377.8,326.7 378,327.4 378.2,328.2 378.3,328.9 378.4,329.8 378.5,330.6 378.6,331.4 378.6,332.3 378.6,333.1 378.6,334 
	378.6,334.9 378.5,335.9 378.4,336.8 378.3,337.8 378.2,338.7 378,339.7 377.9,340.8 377.6,341.8 377.3,342.8 377.1,343.7 
	376.8,344.7 376.4,345.6 376,346.6 375.6,347.5 375.4,347.9 375.2,348.4 374.7,349.2 374.5,349.6 374.2,350.1 373.9,350.5 
	373.7,350.9 373.4,351.3 373.1,351.8 372.8,352.1 372.6,352.6 371.9,353.4 371.2,354.1 370.6,354.9 370.2,355.3 369.9,355.7 
	369.1,356.5 368.2,357.2 367.5,357.9 366.6,358.5 365.7,359.3 365.3,359.5 364.8,359.9 364.4,360.2 363.9,360.6 362.9,361.1 
	362.4,361.5 361.9,361.8 361.4,362.1 360.9,362.4 359.9,363 359.2,363.3 358.7,363.6 357.6,364.1 356.4,364.7 355.3,365.2 
	354.6,365.5 354,365.7 353.4,365.9 352.8,366.2 351.5,366.7 350.1,367.2 348.8,367.6 347.4,368.1 346,368.4 344.6,368.9 343,369.3 
	341.6,369.6 340.1,370 339.2,370.2 338.4,370.3 337.6,370.5 336.8,370.7 336,370.8 335.2,371 333.6,371.3 331.9,371.6 330.2,371.9 
	329.3,372 328.3,372.1 327.4,372.2 326.5,372.3 324.7,372.6 322.9,372.8 321,372.9 319.1,373.1 317.1,373.3 315.1,373.5 
	313.1,373.6 311.1,373.7 310.1,373.8 309,373.8 306.9,373.9 305.8,373.9 304.8,374 303.7,374 302.6,374 300.4,374.1 302,374.8 
	303.6,375.6 304.4,376 305.2,376.5 306.9,377.4 307.7,378 308.6,378.5 310.3,379.6 312.1,380.9 314,382.2 316.2,381.9 318.4,381.6 
	320.6,381.4 322.9,381.3 323.1,381.3 323.4,381.3 324.7,381.2 325.9,381.2 327.2,381.2 328.3,381.2 329.5,381.3 330.8,381.3 
	331.9,381.4 333,381.5 334.2,381.6 335.3,381.8 336.4,381.9 337.4,382 338.5,382.2 339.5,382.4 340.6,382.6 341.6,382.9 
	342.6,383.1 343.6,383.4 343.7,383.3 344,383.2 344.3,383.1 344.6,383 344.9,382.9 345.3,382.7 345.6,382.5 345.9,382.2 346.4,382 
	346.7,381.6 347.2,381.2 347.6,380.9 348.1,380.5 348.5,380.1 349.1,379.6 349.5,379.2 350,378.7 350.3,378.4 350.8,378.1 
	351.2,377.8 351.7,377.6 352.1,377.4 352.7,377.3 353.1,377.1 353.7,377 354.2,376.9 354.7,376.9 355.3,376.9 355.8,377 
	356.4,377.1 357,377.2 357.6,377.4 359.4,376.2 359.5,376.2 360.8,375.4 361.4,374.9 362,374.5 362.6,374 363.2,373.6 363.8,373 
	364.5,372.6 365.5,371.5 366.7,370.5 367.9,369.3 368.4,368.8 368.7,368.5 369,368.3 369.5,367.6 370,367 371.1,365.7 372.1,364.5 
	372.4,364.1 372.7,363.8 373.1,363.1 373.6,362.5 374.1,361.8 375.1,360.3 375.3,360 375.5,359.6 376,358.9 377,357.4 377.3,356.6 
	377.8,355.8 378.7,354.2 379.1,353.4 379.5,352.6 380.3,350.9 381.1,349.2 381.5,348.3 381.8,347.4 382.2,346.5 382.6,345.6 
	383.3,343.8 384,341.8 384.2,341.3 384.4,340.8 384.6,339.9 385,338.8 385.3,337.8 385.6,336.8 385.8,336.3 385.9,335.8 
	386.5,333.8 387.1,331.6 387.6,329.4 387.8,328.8 387.9,328.3 388.1,327.2 388.3,329.1 388.3,330.1 388.3,330.5 388.4,331.1 
	388.4,332 388.4,333 388.4,333.4 388.4,333.9 388.4,334.9 388.3,335.8 388.3,336.7 388.1,338.5 388,340.4 387.8,342.2 387.4,344 
	387.2,345.9 387,346.7 386.8,347.2 386.8,347.6 386.5,348.5 386.3,349.4 386.2,349.9 386.1,350.3 385.8,351.2 385.3,353 
	384.7,354.8 384.1,356.5 383.4,358.2 382.7,359.9 381.8,361.6 381.5,362.4 381,363.2 380.6,364.1 380.1,364.9 379.7,365.7 
	379.4,366.2 379.2,366.6 378.2,368.2 377.2,369.9 376.6,370.6 376.1,371.4 374.9,373 373.7,374.7 373.1,375.4 372.5,376.2 
	372.2,376.5 371.8,377 371.2,377.7 370.9,378.2 370.5,378.5 369.9,379.3 369.1,380.1 368.8,380.4 368.5,380.9 367.1,382.4 
	367.4,382.5 367.9,382.7 368.2,382.8 368.6,382.9 369,383.2 369.2,383.4 369.6,383.7 369.9,383.9 370,384.2 370.3,384.5 
	370.5,384.7 370.7,385.1 370.8,385.5 370.9,385.8 371,386.2 371.1,386.6 371.1,387 371.1,387.4 371.1,387.9 371.1,388.4 371,388.9 
	370.9,389.4 370.9,389.9 370.8,390.4 370.6,391 370.4,391.6 370.2,392.2 370,392.8 369.8,393.5 369.5,394.1 369.1,394.7 
	368.9,395.5 369.3,395.8 369.8,396.2 370,395.8 370.1,395.7 370.3,395.6 370.5,395.5 370.8,395.5 371,395.5 371.3,395.4 371.8,395 
	372.3,394.7 373.3,394.2 373.7,393.9 374.3,393.7 374.7,393.6 375.2,393.4 375.6,393.2 376.1,393.1 377,392.9 377.4,392.8 
	377.9,392.8 378.2,392.8 378.7,392.9 379.5,393 379.9,393.1 380.2,393.2 380.6,393.4 380.9,393.6 381.3,393.7 381.8,394 
	382.4,394.5 382.7,394.7 383.1,395.1 383.4,395.4 383.7,395.8 384,396.2 384.4,396.6 385.3,395.3 386.3,393.9 388.1,391.3 
	388.9,390 389.8,388.7 390.6,387.4 391.4,386.1 392.2,384.8 393,383.5 393.7,382.2 394.5,381 395.2,379.6 395.8,378.3 396.5,377.1 
	397.2,375.8 398.3,373.2 399.5,370.7 400,369.4 400.5,368.2 401,366.9 401.5,365.6 402.4,363.1 403.1,360.6 403.5,359.3 
	403.8,358.1 404.2,356.8 404.4,355.7 405,353.1 405.4,350.7 405.8,348.2 406.1,345.7 406.2,343.3 406.3,340.9 406.3,339.7 
	406.3,338.5 406.2,336.1 406.1,333.7 406,332.5 405.8,331.3 405.4,329 405.1,326.7 404.5,324.2 404.3,323.1 404,321.9 403.3,319.5 
	402.6,317.3 403.2,318.3 403.8,319.3 404.4,320.3 405.1,321.3 405.6,322.3 406.2,323.4 406.6,324.5 407.1,325.7 407.5,326.7 
	408,327.8 408.4,329 408.7,330.2 409,331.3 409.4,332.5 409.7,333.7 409.9,334.9 410.1,336.1 410.3,337.4 410.4,338.6 410.6,339.9 
	410.7,341.2 410.8,342.5 410.8,343.8 410.8,345.1 410.8,346.5 410.8,347.8 410.7,349.2 410.6,350.6 410.4,352 410.3,353.4 
	410.1,354.8 409.9,356.3 409.7,357.7 409.4,359.2 409,360.6 408.8,362.1 408.4,363.7 408,365.2 407.6,366.7 407.1,368.3 
	406.6,369.8 406.2,371.4 405.6,373 405.1,374.7 404.4,376.3 403.8,377.9 403.2,379.5 402.6,381.2 401.8,382.9 401.1,384.6 
	400.3,386.3 399.6,388 398.7,389.7 397.9,391.5 397,393.3 396.1,395.1 395.2,396.9 394.2,398.7 393.2,400.5 392.2,402.3 
	391.1,404.2 390,406.1 389,408 387.8,409.9 388,410.2 388.1,410.7 388.3,411.6 388.4,411.9 388.4,412.4 388.4,412.7 388.5,413.2 
	388.4,413.7 388.4,414 388.4,414.5 388.3,414.8 388.2,415.3 388.1,415.6 387.8,416.4 389,418.3 389.9,420.2 390.1,419.9 
	390.4,419.5 390.8,419.2 391,419 391.4,418.7 391.8,418.5 392.3,418.3 392.7,418.2 393.2,418.2 393.7,418.2 394.3,418.2 
	394.9,418.2 395.4,418.3 396.2,418.4 396.8,418.6 397.6,418.9 397.9,418.9 398.1,419.1 398.5,419.1 398.8,419.3 399,419.5 
	399.2,419.7 399.5,419.9 399.7,420.1 399.9,420.4 400.1,420.8 400.2,421 400.4,421.4 400.6,421.8 400.7,422.1 400.8,422.6 
	400.8,423 402.5,420.6 404,418.2 405.5,415.8 407,413.4 408.3,411 409.7,408.6 410.9,406.3 412.1,403.9 413.3,401.6 414.4,399.2 
	415.4,396.9 416.4,394.6 417.3,392.3 418.2,390.1 419,387.7 419.8,385.5 420.5,383.2 421.1,380.9 421.6,378.6 422.2,376.5 
	422.7,374.2 423.1,372 423.5,369.8 423.8,367.5 424.1,365.4 424.3,363.2 424.4,361 424.4,358.9 424.5,356.7 424.4,354.6 
	424.4,352.4 "/>
<path d="M240.1,383.7l7.6-6.8h0.6l-7.4,9.6c-0.8-0.1-1.4-0.5-1.4-1.3C239.5,384.8,239.6,384.3,240.1,383.7z"/>
<polygon fill="#9F9C9B" points="274.6,402.7 274.7,402.6 274.9,402.5 274.8,401.8 274.6,401 274.3,399.8 274,398.5 273.8,397.9 
	273.6,397.3 273.1,396 272.9,395.5 272.7,394.9 272.2,393.7 271.6,392.7 271,391.6 270.4,390.6 270,390.1 269.7,389.6 269,388.6 
	268.6,388.2 268.2,387.7 267.4,386.8 266.5,386 265.7,385.2 264.9,386.5 264.3,387.6 264,388.2 263.7,388.7 263.4,389.2 
	263.1,389.7 262.9,390.1 262.6,390.6 262.3,391 262.1,391.4 261.9,391.8 261.6,392.1 261.3,392.8 261.1,393.1 260.9,393.4 
	260.5,393.9 260.4,394.1 260.3,394.3 260.1,394.6 259.9,394.7 259.9,394.9 259.7,395.1 259.6,395.1 259.6,395.1 259.5,395.2 
	259.5,395.2 258.9,395.7 258.3,396.3 257.7,396.8 257,397.3 256.4,397.9 255.8,398.3 255.2,398.8 254.6,399.2 254.1,399.5 
	253.4,400 252.9,400.2 252.3,400.6 251.8,400.9 251.3,401.1 250.7,401.4 250.2,401.6 249.7,401.8 249.2,401.9 248.7,402.1 
	248.2,402.2 247.7,402.3 247.3,402.4 246.8,402.4 246.4,402.4 245.9,402.4 245.5,402.4 245,402.3 244.7,402.2 244.2,402.1 
	243.9,401.9 243.5,401.9 243.1,401.7 242.7,401.4 242.3,401.1 242,400.9 241.6,400.6 241.3,400.3 241,400 240.6,399.6 240.4,399.2 
	240,398.8 239.7,398.3 239.5,397.9 239.2,397.4 238.7,396.4 238.4,395.8 238.2,395.2 237.9,394.6 237.7,393.9 237.5,393.3 
	237.3,392.6 236.9,391.1 236.7,390.3 236.5,389.5 236.4,388.7 236.2,387.9 236,387 236,386.1 235.8,385.2 235.7,384.3 235.5,383.3 
	235.4,382.3 245.8,371.6 243.3,371.1 242.2,371 241,370.8 239.7,370.7 238.7,370.5 237.5,370.4 236.3,370.4 236.1,370.3 236,370.4 
	234.4,370.2 233,370.2 231.4,370.2 230.1,370.2 228.7,370.2 227.2,370.2 225.9,370.2 224.5,370.3 223.2,370.5 221.9,370.6 
	220.6,370.8 219.3,371.1 218,371.2 216.9,371.5 215.6,371.9 214.4,372.1 213.3,372.5 212.2,372.9 211,373.3 209.9,373.7 
	208.8,374.1 207.9,374.7 206.8,375.1 205.8,375.6 204.8,376.2 203.8,376.8 202.8,377.4 201.9,378.1 201,378.7 200.1,379.4 
	199.2,380.2 198.4,381 197.5,381.8 196.6,382.7 195.8,383.5 195,384.4 193.4,386.2 192.1,388 190.7,389.8 189.7,391.7 189.1,392.7 
	188.6,393.7 188.1,394.6 187.7,395.6 187,397.2 186.5,398.7 186.1,400.3 185.7,401.9 185.3,403.6 185.1,405.2 185,406.9 
	184.9,408.6 184.8,410.3 184.9,412 185,413.8 185.2,415.5 185.5,417.3 185.9,419.2 186.3,421 186.9,422.9 187.1,424.1 187.6,425.2 
	188.4,427.5 188.9,428.7 189.4,429.9 189.8,431 190.5,432.2 191.6,430.9 192.1,430.3 192.7,429.7 193.4,429.1 194.1,428.4 
	194.7,427.8 195.4,427.2 196.9,426.1 198.4,425.1 199.9,424 200.7,423.5 201.6,423 203.3,422 205.2,421.1 207.1,420.2 208,419.9 
	209.1,419.4 210.1,419.1 211.2,418.7 213.3,417.9 215.5,417.3 217.8,416.6 219,416.3 220.2,416 222.6,415.5 225.1,414.9 
	227.8,414.5 229.1,414.2 230.5,414 231.8,413.7 233.2,413.6 234.6,413.4 236,413.3 239,412.9 242,412.7 243.5,412.6 245,412.5 
	246.6,412.4 248.2,412.3 251.4,412.2 254.7,412.1 256.4,412.1 258.1,412.1 259.8,412.1 261.5,412.1 263.3,412.1 265.1,412.2 
	266.7,412.2 268.5,409.8 270.4,407.3 271.3,406.2 272.4,405 273.5,403.8 "/>
<polygon fill="#9F9C9B" points="242.5,419.5 244.8,419.3 247.2,419.2 249.5,419.2 252,419.1 254.5,419.2 257,419.2 259.5,419.3 
	262.2,419.5 263.1,417.8 264.1,416 265.1,414.3 266.3,412.7 266.5,412.4 266.7,412.2 265.1,412.2 263.3,412.1 261.5,412.1 
	259.8,412.1 258.1,412.1 256.4,412.1 254.7,412.1 251.4,412.2 248.2,412.3 246.6,412.4 245,412.5 243.5,412.6 242,412.7 239,412.9 
	236,413.3 234.6,413.4 233.2,413.6 231.8,413.7 230.5,414 229.1,414.2 227.8,414.5 225.1,414.9 222.6,415.5 220.2,416 219,416.3 
	217.8,416.6 215.5,417.3 213.3,417.9 211.2,418.7 210.1,419.1 209.1,419.4 208,419.9 207.1,420.2 205.2,421.1 203.3,422 201.6,423 
	200.7,423.5 199.9,424 198.4,425.1 196.9,426.1 195.4,427.2 194.7,427.8 194.1,428.4 193.4,429.1 192.7,429.7 192.1,430.3 
	191.6,430.9 190.5,432.2 190.3,432.7 190.2,433.1 190,433.5 190,433.9 189.8,434.6 189.8,434.9 189.8,435.3 189.8,435.5 
	189.8,435.9 189.9,436.4 189.9,436.7 190,436.9 190.2,437.2 190.3,437.3 190.4,437.5 190.6,437.6 190.7,437.8 190.9,437.9 
	191.1,438.1 191.3,438.1 191.8,438.2 192.4,438.3 192.6,438.3 193,438.3 193.3,438.3 193.6,438.3 194,438.2 194.4,438.1 
	194.8,437.8 195.2,437.5 196.3,436.5 197.4,435.5 198.6,434.6 199.7,433.7 200.9,432.8 202.2,432 203.4,431.2 204.7,430.4 
	206,429.6 207.3,428.9 208.7,428.1 210,427.5 211.5,426.9 212.8,426.3 214.2,425.6 215.8,425.1 217.2,424.5 218.7,424 220.3,423.5 
	221.8,423 223.4,422.6 225.1,422.1 226.7,421.8 228.3,421.4 230,421 231.7,420.8 233.4,420.5 235.2,420.2 236.9,420 238.7,419.8 
	240.6,419.6 "/>
<path d="M187.7,395.6l-1.8-0.3l-1.8-0.4l-1.8-0.4l-1.8-0.5l-1.8-0.5l-1.8-0.5l-1.7-0.5l-1.7-0.6l-1.7-0.7l-1.7-0.7l-1.7-0.8
	l-1.7-0.8l-1.7-0.9l-1.6-1l-1.6-1L160,385l-1.6-1.2l-1.6-1.2l-1.6-1.3l-1.6-1.3l-1.6-1.4l-1.5-1.4l-1.5-1.4l-1.5-1.4l-1.5-1.5
	l-1.5-1.6l-1.5-1.6l-1.4-1.7l-1.5-1.8l-1.4-1.8l-1.4-1.9l-1.4-1.9l0.5,1.8l0.5,1.8l0.5,1.8l0.5,1.7l0.5,1.7l0.5,1.7l0.5,1.6l0.5,1.6
	l0.5,1.6l0.5,1.5l0.5,1.5l0.6,1.5l0.6,1.4l0.6,1.4l0.6,1.4l0.6,1.4l0.6,1.4l0.6,1.4l0.6,1.4l0.7,1.4l0.7,1.3l0.7,1.3l0.7,1.3
	l0.7,1.2l0.7,1.2l0.7,1.2l0.7,1.2l0.8,1.1l0.8,1.1l0.8,1.1l0.8,1l0.8,1l0.8,0.9l0.8,0.9l0.8,0.9l0.8,0.9l0.8,0.8l0.9,0.8l0.9,0.8
	l0.9,0.8l0.9,0.7l0.9,0.7l0.9,0.7l0.9,0.7l0.9,0.6l1,0.6l1,0.6l1,0.5l1,0.5l1,0.5l1,0.5l1,0.5l1,0.5l1.1,0.4l1.1,0.4l1.1,0.4
	l1.1,0.3l1.1,0.3l1.1,0.3l1.1,0.3l1.1,0.2l1.2,0.2l1.2,0.2l1.2,0.2l-0.5-1.9l-0.5-1.8l-0.4-1.8l-0.3-1.8l-0.2-1.8l-0.2-1.8l-0.1-1.7
	v-1.7l0.1-1.7l0.2-1.7l0.3-1.6l0.4-1.6l0.4-1.6l0.5-1.6l0.5-1.5L187.7,395.6L187.7,395.6z M185.8,396.6c-3.6,10.2-2.9,17.9-0.4,24.7
	c-29.1-5.6-41-32.2-48.1-57C150.2,381.2,164.2,393.4,185.8,396.6z"/>
<path d="M143.9,379.1c-0.5-1.2,0.5-1.6,1.4-0.9c6.7,14.2,14.7,26.1,22.2,30.3c0.5,0.6,0.6,1.4-0.9,1.4
	C156.7,402.9,150.3,393.5,143.9,379.1z"/>
<path d="M169.3,412.2c-1-0.8-0.2-1.7,0.9-1.4c3.9,3,7.2,4.3,10,4.1c0.8,0.4,1.2,1-0.3,1.6C175.4,416.5,172,414.4,169.3,412.2z"/>
<path d="M325.7,380.1c6.8,0,13.2,0.9,19.5,2.6l-2.3,1.2c-5.2-1.3-10.6-2-16.2-2.1c-22.5,32.6-31.1,56.7-23.8,79.2
	c12.6-5.7-2.2-32.4,28.4-51.8l4.6,3.7c-32,21.3-13.2,43.9-31.6,51.8c1.5,3.7,3.5,7.4,5.9,11c16.4-6.8,32-20.4,50.4-37.6l3.2,3.4
	c-11.5,11.3-28.5,29.9-50.2,39.1c0.9,1.2,1.9,2.3,2.9,3.5c30.7-21.9,34.5,34.3,80.5-29c0-0.6,0-1.3,0-1.9c0-1.5-0.1-3-0.2-4.5
	l1.5-1.8c0.2,2.1,0.3,4.1,0.3,6.3c0,40.4-32.7,73.2-73,73.2c-6.2,0-12.2-0.8-17.9-2.3l-0.1,0.2l-1-0.5c-31.2-8.4-54-36.8-54-70.7
	C252.7,412.8,285.4,380.1,325.7,380.1L325.7,380.1z M390.7,423.6l1.6-0.5c-1.2-2.7-2.5-5.2-4.1-7.7l-0.8,1.9
	C388.6,419.3,389.7,421.5,390.7,423.6L390.7,423.6z M369.6,396.9l1-1.4c-1.3-1-2.6-2-4-2.9l-1.1,1.4
	C367,394.9,368.2,395.8,369.6,396.9L369.6,396.9z M319.3,487.1c9,9.9,21.3,19.9,37.2,30.8c21.3-10.2,36.7-30.5,40.1-54.8
	C356.9,517.1,340.7,472.3,319.3,487.1L319.3,487.1z M351,520.2c-14.9-10.4-26.7-20.2-35.7-29.9c-12.3,11.5-1.3,15.3-7,32.3
	c5.6,1.4,11.3,2.2,17.4,2.2C334.7,524.8,343.1,523.2,351,520.2L351,520.2z M312.7,487.3c-1.4-1.6-2.7-3.2-3.9-4.8
	c-14.6,5-31.2,5.5-49.6-3.3c7.7,20.1,24.3,35.7,44.9,42.2C309.5,514.2,298.4,500.6,312.7,487.3L312.7,487.3z M305.3,477.5
	c-2.4-3.8-4.5-7.5-6-11.3c-20.8,3.5-20.4-33.8-43.4-27.2c-0.9,4.6-1.4,9.4-1.4,14.3c0,6.8,0.9,13.2,2.7,19.5
	C275.6,481.4,290.9,482.2,305.3,477.5L305.3,477.5z M297.6,462c-7.3-22.4,0.3-47.1,22.7-80c-30.3,2.3-55.3,23.5-63.3,51.8
	C278.7,428.4,281.2,461.7,297.6,462z"/>
<polygon points="281.6,372.8 281.2,373.1 280.9,373.5 280.6,373.9 280.3,374.4 280.2,374.8 279.9,375.3 279.7,375.7 279.6,376.3 
	279.4,376.8 279.4,377.4 279.3,377.9 279.2,378.4 279.2,379.1 279.2,379.7 279.2,380.3 279.3,381 279.4,381.6 279.4,382.3 
	279.5,383 279.6,383.8 279.8,384.5 280,385.2 280.3,386 280.4,386.8 280.8,387.6 281.1,388.4 281.3,389.2 281.7,390.1 282.1,391 
	282.4,391.9 282.9,392.8 283.3,393.7 283.8,394.7 285.3,393.7 286.9,392.6 288.5,391.6 290.1,390.6 289.3,390 288.5,389.3 
	287.8,388.7 287.1,388.2 286.5,387.5 285.9,386.9 285.3,386.4 284.8,385.7 284.3,385.2 283.9,384.6 283.4,384 283.1,383.4 
	282.7,382.9 282.3,382.2 282.1,381.7 281.9,381.1 281.6,380.5 281.4,380 281.2,379.4 281.2,378.9 281.2,378.3 281.1,377.7 
	281.1,377.2 281.2,376.6 281.2,376 281.3,375.5 281.5,374.9 281.7,374.4 281.9,373.8 282.2,373.3 282.4,372.8 282.8,372.2 
	282.3,372.4 282.2,372.5 281.8,372.7 281.7,372.8 "/>
<path d="M331.5,396.7c1.8-5,9-7.2,16.4-3.4c3.9,3.2,6.3,8.9,1.4,14.8C340.8,407.8,333.5,403.9,331.5,396.7L331.5,396.7z
	 M333.6,397.3c2.3,5.3,8.2,8.4,14.3,9.2c4-4.8,2.1-9.4-1.1-11.9C340.9,391.6,335.1,393.3,333.6,397.3z"/>
<path stroke="#000000" stroke-width="0.216" stroke-miterlimit="2.6131" d="M379.1,421.8c4.1,6.2,2,12.2-4.5,18.5
	c-0.6-6.5-4.7-7.6-10.6-6.6C368.4,424.4,373.2,418.4,379.1,421.8L379.1,421.8z M378,423.3c-4.1-2.2-7.4,1.6-11.1,8.3
	c3.7-0.4,6.8,1,8.6,5.3C379.9,431.4,380.4,428.1,378,423.3z"/>
<path d="M389,445.7c4.8,0.3,6.1,5,6.5,5.8c0.2,0.7-0.3,1.9-0.5,2.3c-0.2,4.2-2.5,7.3-5.7,9c-0.3,0.1-0.9-0.5-1.1-0.4
	c-1.7-2.8-2.9-4.7-5.4-5.6c-0.8-2-0.5-4.2,1.4-6.9C386.5,446.9,388.1,445.6,389,445.7L389,445.7z M388.9,447.5
	c-0.7-0.1-1.4,1.1-3.1,3.3c-1.4,2.1-1.9,3.3-1.4,4.8c3.2,1.5,4.9,5.1,4.9,5.1c2.2-2.2,3.9-4.1,4.1-7.2c0.2-0.3,0.7-1.8,0.5-2.3
	C393.6,450.8,392.5,447.8,388.9,447.5z"/>
<path d="M386,492.2v0.4l0.1,0.4l0.1,0.3l0.1,0.3l0.1,0.3l0.2,0.3l0.2,0.2l0.2,0.2l0.2,0.2l0.3,0.2l0.3,0.2l0.3,0.2l0.3,0.1l0.4,0.1
	l0.4,0.1l0.4,0.1l0.5,0.1h0.3h0.1h0.2h0.1h0.1h0.3h0.5h0.5h0.1h0.1h0.3l0.9-0.1l0.4-0.1l0.5-0.1l0.4-0.2l0.4-0.2l0.4-0.2l0.4-0.3
	l0.4-0.3l0.4-0.3l0.4-0.4l0.4-0.4l0.4-0.4l0.4-0.4l0.3-0.5l0.4-0.5l0.3-0.5l0.1-0.2l0.1-0.1l0.2-0.3l0.3-0.5l0.3-0.5l0.3-0.6
	l0.3-0.6v-0.2l0.1-0.2l0.1-0.4l0.3-0.7l0.2-0.7l0.3-0.7l-0.8-3.7l0.2-1.7l0.2-1.7l0.1-1.7c0.2-3-1.4,0.2-1.8,0.9l0.4,2.1l-0.2,1.4
	l-0.2,1.4l0.6,3.2l-0.2,0.6l-0.2,0.6l-0.2,0.5l-0.1,0.3l-0.1,0.2v0.2l-0.3,0.5l-0.2,0.5l-0.3,0.5l-0.2,0.5l-0.2,0.2l-0.1,0.1
	l-0.1,0.1l-0.3,0.5l-0.3,0.4l-0.3,0.4l-0.3,0.4l-0.3,0.4l-0.3,0.3l-0.3,0.3l-0.4,0.3l-0.3,0.2l-0.4,0.2l-0.3,0.2l-0.4,0.2l-0.4,0.2
	l-0.4,0.1l-0.4,0.1l-0.7,0.1h-0.2h-0.1h-0.1H391h-0.5h-0.2h-0.1h-0.1h-0.1H390h-0.2l-0.5-0.1l-0.4-0.1l-0.3-0.1l-0.3-0.1l-0.3-0.1
	l-0.3-0.2l-0.2-0.1l-0.2-0.2l-0.2-0.2l-0.2-0.2l-0.2-0.2l-0.1-0.2l-0.1-0.2l-0.1-0.3l-0.1-0.3l-0.1-0.3L386,492.2z"/>
<path d="M405.5,457.1l1.3,0.3c-3.4,13.3-6.6,19.5-9.5,23c-0.8,0.5-1.2-0.2-1.2-0.8c2.3-3.1,4.1-6.9,5.8-11.1
	c-1.6,2.3-2.4,3.6-4.2,5.8c-0.8,0.5-1.2-0.2-1.2-0.8C399.7,470.4,401.7,468.4,405.5,457.1z"/>
<polygon points="283,370.2 283,370.2 282.6,370.8 282.2,371.4 282,372 281.7,372.6 281.5,373.2 281.3,373.8 281.2,374.4 281.2,375 
	281.1,375.6 281.1,376.3 281.2,376.9 281.2,376.9 281.2,376.6 281.2,376 281.3,375.5 281.5,374.9 281.7,374.4 281.9,373.8 
	282.2,373.3 282.4,372.8 282.8,372.2 282.8,372.2 283.7,371.9 284.6,371.6 285.5,371.4 286.5,371.2 287.5,371.1 288.5,371.1 
	289.6,371.1 290.7,371.2 291.8,371.4 293,371.6 294.1,371.9 295.3,372.1 296.6,372.6 297.8,373 299.1,373.5 300.4,374.1 302,374.8 
	303.6,375.6 304.4,376 305.2,376.5 306.9,377.4 307.7,378 308.6,378.5 310.3,379.6 312.1,380.9 313.7,382 314.1,381.9 315.9,381.5 
	317.7,381.2 315.7,379.8 313.7,378.4 311.7,377.2 310.7,376.5 309.8,376 307.9,374.9 307,374.4 306.1,373.9 304.3,373 302.6,372.2 
	301.1,371.6 299.7,371.1 298.3,370.5 296.9,370.1 295.6,369.7 294.3,369.4 293,369.3 291.8,369.1 290.5,369 289.4,369 288.2,369 
	287.1,369.1 286,369.3 284.9,369.5 284,369.8 "/>
<path d="M400.9,418.7v4.3l-3.6,5.5c-1,1.1-2.7-0.3-1.5-1.6L400.9,418.7z"/>
<path d="M404.4,431.2v4.3l-3.6,5.5c-1,1.1-2.7-0.3-1.5-1.6L404.4,431.2z"/>
<path d="M384.8,391.6v4.3l-5.8,8.6c-1,1.1-2.7-0.3-1.5-1.6L384.8,391.6z"/>
<path d="M390.8,405v4.3l-3.6,5.5c-1,1.1-2.7-0.3-1.5-1.6L390.8,405z"/>
<path d="M360.6,372.5l-0.5,3.2l-7.2,5c-1.4,0.6-2.4-1.3-0.8-2.1L360.6,372.5z"/>
<path d="M370.5,378.5l-1.1,4.6l-6.8,7.7c-1.2,0.9-2.7-0.9-1.3-2.1L370.5,378.5z"/>
<path d="M275.8,401.2l0.1-0.2l0.2-0.1l-0.2-0.7l-0.2-0.7l-0.3-1.4l-0.4-1.4l-0.2-0.6l-0.2-0.6l-0.5-1.3l-0.3-0.6l-0.3-0.5l-0.5-1.2
	l-0.5-1.1l-0.6-1.1l-0.6-1l-0.4-0.5l-0.4-0.5l-0.7-1l-0.5-0.5l-0.5-0.5l-0.8-0.9l-0.9-0.9l-0.9-0.8l-0.7,1.3l-0.2,0.6l0.9,0.8
	l0.8,0.8l0.8,0.9l0.4,0.5l0.4,0.5l0.7,0.9l0.4,0.5l0.4,0.5l0.6,1l0.6,1.1l0.5,1.1l0.5,1.2l0.2,0.5l0.3,0.6l0.5,1.2l0.2,0.6l0.2,0.6
	l0.4,1.3l0.3,1.4l0.2,0.6l0.1,0.5L275.8,401.2L275.8,401.2z M266.6,412.7l-0.1-0.2l0.2-0.2l-1.5-0.1l-1.8-0.1h-1.8h-1.8H258h-1.7
	h-1.7l-3.3,0.1l-3.2,0.1l-1.6,0.1l-1.5,0.1l-1.5,0.1l-1.5,0.1l-3,0.3l-2.9,0.3l-1.4,0.2l-1.4,0.2l-1.4,0.2l-1.4,0.2l-1.4,0.2
	l-1.4,0.3l-2.6,0.5l-2.5,0.5l-2.4,0.5l-1.2,0.3l-1.2,0.4l-2.3,0.6l-2.3,0.7l-2.2,0.7l-1.1,0.4l-1,0.5l-1,0.4l-1,0.5l-1.9,0.9
	l-1.8,0.9l-1.7,1l-0.9,0.5l-0.8,0.5l-1.6,1.1l-1.5,1.1l-1.2,1.1l-0.7,0.5l-0.6,0.6l-0.6,0.6l-0.6,0.6l-0.6,0.6l-1.7,2l-1-1.5
	l-0.6,0.7l-0.5-1.3l-0.5-1.2l-0.5-1.2l-0.5-1.2l-0.9-2.3l-0.5-1.2l-0.4-1.2l-0.5-2l-0.5-1.9l-0.4-1.9l-0.3-1.8l-0.3-1.8l-0.2-1.8
	l-0.1-1.8v-1.7l0.1-1.7l0.2-1.7l0.3-1.7l0.4-1.6l0.5-1.6l0.5-1.6l0.5-1.6l0.6-1.5l0.5-1l0.5-1l0.5-1l0.5-1l1.2-2l1.4-1.9l1.4-1.9
	l1.5-1.8l0.8-0.9l0.9-0.9l0.9-0.9l0.9-0.9l0.9-0.8l0.9-0.7l0.9-0.7l1-0.7l1-0.7l1-0.6l1-0.6l1.1-0.5l1.1-0.5l1.1-0.5l1.1-0.5
	l1.2-0.5l1.2-0.5l1.2-0.4l1.2-0.4l1.3-0.4l1.2-0.4l1.3-0.3l1.3-0.3l1.4-0.3l1.3-0.3l1.4-0.2l1.4-0.2l1.4-0.1l1.4-0.1l1.4-0.1
	l1.4-0.1h1.4h1.4l1.5,0.1l1.5,0.1l1.5,0.1h0.2h0.3l1.2,0.1l1.2,0.1l1.2,0.1l1.3,0.2l1.2,0.2l1.3,0.2l4.5,1.3l-3.7,2.9l1.4-1.5
	l-2.4-0.5l-1.2-0.2l-1.2-0.2l-1.2-0.2h-1.2l-1.2-0.1l-1.2-0.1h-0.2H236l-1.5-0.1l-1.4-0.1l-1.4-0.1h-1.4h-1.4l-1.4,0.1l-1.4,0.1
	l-1.4,0.1l-1.4,0.1l-1.3,0.2l-1.3,0.2l-1.3,0.2l-1.3,0.2l-1.2,0.3l-1.2,0.3l-1.2,0.4l-1.2,0.4l-1.2,0.4l-1.2,0.4l-1.1,0.5L209,374
	l-1.1,0.5l-1.1,0.5l-1,0.5l-1,0.5l-1,0.6l-1,0.6L202,378l-0.9,0.6l-0.9,0.7l-0.9,0.7l-0.8,0.8l-0.9,0.8l-0.9,0.8l-0.8,0.9l-0.8,0.9
	l-1.5,1.8l-1.4,1.8l-1.3,1.8l-1.2,1.9l-0.5,1l-0.5,1l-0.5,1l-0.5,1l-0.6,1.5l-0.5,1.5l-0.5,1.6l-0.4,1.6l-0.4,1.6l-0.3,1.6l-0.2,1.7
	l-0.1,1.7v1.7l0.1,1.7l0.2,1.8l0.2,1.8l0.3,1.8l0.4,1.8l0.5,1.8l0.5,1.9l0.4,1.1l0.4,1.2l0.8,2.3l0.5,1.2l0.5,1.2l0.1,0.3l0.4-0.4
	l0.6-0.6l0.6-0.7l0.7-0.6l0.7-0.6l0.7-0.6l1.5-1.3l1.6-1.2l1.7-1.1l0.9-0.5l0.9-0.5l1.8-1.1l1.9-1l2-0.9l1-0.5l1.1-0.5l1.1-0.5
	l1.1-0.4l2.3-0.8l2.3-0.7l2.4-0.6l1.3-0.4l1.3-0.3l2.6-0.6l2.6-0.5l2.7-0.5l1.4-0.3l1.4-0.2l1.4-0.2l1.4-0.2l1.4-0.2l1.5-0.2
	l3.1-0.3l3.2-0.3l1.6-0.1l1.6-0.1l1.6-0.1l1.7-0.1l3.4-0.1l3.4-0.1h1.8h1.8h1.8h1.9h1.9l1.9,0.1l1.4,0.1l0.5-0.6l0.2-0.3l-0.7,1h0.2
	l-0.2,0.2l-0.2,0.2L266.6,412.7z"/>
</svg>