<svg class="svg-logo" version="1.1" xmlns="http://www.w3.org/2000/svg" xmlns:xlink="http://www.w3.org/1999/xlink" x="0px" y="0px" viewBox="0 0 661 304" enable-background="new 0 0 661 304" xml:space="preserve" width="100%" height="100%">
<g id="Layer_1">
	<path fill="#FFFFFF" d="M446.9,201.2c1,2.7-3.2,22.2-3.2,22.4c-3.6,15.5-13.2,9.9-15.4,7.9C419.9,223.9,439.7,180.8,446.9,201.2z"
		/>
	<path fill="#FFFFFF" d="M320,95.1c21.9,0.2,32.8,16.9,32.8,16.9s-30.2,18.8-32.3,16.8C312.1,121.1,305.9,95,320,95.1z"/>
	<path fill="#FFFFFF" d="M469.9,57.9c26.3,68.9-28.8,140.9-38.5,144.4c-29.2,10.3-34.3-19.8-27.2-25.2
		C466.4,129.4,465.2,45.7,469.9,57.9z"/>
	<path fill="#FFFFFF" d="M446,32.3c45.6,63.3-24.9,143.4-34.6,146.9c-29.2,10.3-44.9-26.4-37.3-31C451.6,102.3,442,26.7,446,32.3z"
		/>
	<path fill="#FFFFFF" d="M430.8,43.6c22.7,54.6-36.5,98.8-46.3,102c-13.9,4.5-34.1-16.3-26.4-20.8C435.4,78.8,428.1,37.2,430.8,43.6
		z"/>
	<path fill-rule="evenodd" clip-rule="evenodd" fill="#FFFFFF" d="M218.3,196.1c-7,2.1-6.7,0.8-9.9-21.4
		c-22.3-20.3,35.6-24.6,46.5-28.5c9.3-0.7,43.1-4,46.3,1c14.4,22.4,0.3,42.4-16.4,67c-0.2,0.2-37.2-5.8-37.4-5.7"/>
	<path fill-rule="evenodd" clip-rule="evenodd" d="M618.9,136.3c-0.5-9.2-2.4-16.1-5.5-20.9c-3.1-4.8-7.4-7.2-12.8-7.2
		c-6.9,0-12.2,3.5-15.9,10.3c-3.7,6.9-5.5,16.8-5.5,29.8c0,12.9,1.8,22.7,5.5,29.6c3.7,6.8,9,10.2,15.9,10.2c5,0,9-2,12.1-6.1
		c3.1-4,5.1-10.1,6.1-18h37.4c-1.7,20.5-7.2,36-16.6,46.5c-9.4,10.5-22.4,15.7-38.9,15.7c-18.6,0-32.6-6.6-42-19.7
		c-9.5-13.1-14.2-32.5-14.2-58.3c0-25.8,4.7-45.3,14.2-58.4c9.5-13.1,23.5-19.7,42-19.7c17.3,0,30.7,5.7,40.3,17.1
		c9.5,11.4,14.5,27.7,15.1,49.1H618.9z"/>
	<polygon fill-rule="evenodd" clip-rule="evenodd" points="158,222.3 123.9,74.1 161.1,74.1 175.5,158.4 191.2,74.1 262.4,74.1 
		189.2,222.3 	"/>
	<polygon fill-rule="evenodd" clip-rule="evenodd" points="7.3,222.3 7.3,74.1 51.7,74.1 64.8,164.4 78.9,74.1 122.6,74.1 
		122.6,222.3 94.9,222.3 94.9,106.6 76.5,222.3 53.1,222.3 35,106.6 35,222.3 	"/>
	<path fill-rule="evenodd" clip-rule="evenodd" fill="#FFFFFF" d="M283.5,57.9c-0.7-5.1-1.9-11.2-3.8-18.6c3.2,3.8,6.7,8.2,10,13.2
		c14.4,22.4,15.1,44.5-1.7,69.1c-0.2,0.2-0.2,0.3-0.5,0.5c-15.4,14.5-21.8,8.5-24.4-11.9l-0.4-1C282.1,92.8,286.7,80.1,283.5,57.9z"
		/>
	<path fill-rule="evenodd" clip-rule="evenodd" d="M467.3,185.4h22.9c5.3,0,8.7-0.9,10.2-2.6c1.6-1.7,2.4-4.9,2.4-9.4
		c0-4.7-0.8-7.9-2.4-9.6c-1.6-1.8-5-2.7-10.2-2.7h-17l0.1-0.4l0.5-1.7l0.4-1.7l0.5-1.7l0.9-3.4l0.4-1.7l0.4-1.7l0.8-3.5l0.1-0.5
		l0.1-0.4l0.2-0.9l0.4-1.7l0.7-3.5l0.2-0.9l0.1-0.5l0.4-2.2l0.7-3.6l0.2-1.2h8.9c4.7,0,7.8-0.8,9.2-2.3c1.4-1.5,2.1-4.2,2.1-8.2
		c0-4-0.6-6.7-1.9-8.2c-1.3-1.5-4.4-2.3-9.3-2.3h-5.9l0,0l0.2-2l0.2-2l0.1-2l0.1-2l0.1-2l0-2l0-2l0-2l-0.1-2l-0.1-2l-0.2-2l-0.2-1.9
		l-0.2-2l-0.3-1.9l-0.3-1.9l-0.3-1.9l-0.4-1.9l-0.3-1.4h20.8c11.7,0,19.9,2.8,24.8,8.6c4.8,5.7,7.3,15.2,7.3,28.4
		c0,7.3-0.9,13.6-2.8,19.2c-1.9,5.5-4.7,9.9-8.3,13.3c4.8,2.7,8.4,7.2,10.9,13.4c2.4,6.2,3.7,13.9,3.7,23.1
		c0,14.1-2.6,24.7-7.8,31.7c-5.2,7-13,10.6-23.5,10.6h-61.9l-0.6-2.8l0.1-1l0.6-0.7l0.5-0.7l0.5-0.6l0.5-0.7l0.5-0.6l1-1.4l1.1-1.4
		l1-1.4l0.5-0.7l0.5-0.7l1-1.5l1-1.5l1-1.5l1-1.5l0.5-0.8l0.2-0.4l0.2-0.4l0.9-1.6l0.9-1.6l0.5-0.8l0.2-0.4l0.2-0.4l0.9-1.7l0.9-1.7
		l0.9-1.7l0.9-1.8l0.8-1.8l0.8-1.8l0.2-0.5l0.2-0.5l0.4-0.9l0.8-1.9l0.4-1l0.4-0.9l0.4-1l0.4-0.9l0.2-0.6V185.4z"/>
	<path fill-rule="evenodd" clip-rule="evenodd" d="M12,249.1H8.1V236H14l4.7,8.2l4.8-8.2h5.8v13.1h-3.9v-9.4l-5.4,9.4h-2.6l-5.4-9.4
		V249.1L12,249.1z M44,249.3c-1.5,0-2.7-0.1-3.4-0.2c-0.7-0.1-1.3-0.4-1.7-0.7c-0.5-0.4-0.9-0.9-1.1-1.5c-0.2-0.6-0.3-1.4-0.3-2.4
		v-3.6c0-1.1,0.1-2,0.3-2.6c0.2-0.6,0.6-1.2,1.1-1.5c0.4-0.3,1-0.6,1.8-0.7c0.7-0.1,1.8-0.2,3.3-0.2h4.7c1.5,0,2.6,0.1,3.4,0.2
		c0.7,0.1,1.3,0.4,1.8,0.7c0.5,0.4,0.8,0.9,1.1,1.5c0.2,0.6,0.3,1.5,0.3,2.5v3.7c0,1-0.1,1.8-0.3,2.5c-0.2,0.6-0.6,1.1-1.1,1.5
		c-0.4,0.3-1,0.6-1.7,0.7c-0.7,0.1-1.8,0.2-3.4,0.2H44L44,249.3z M45,246h2.6c1.4,0,2.4-0.2,2.8-0.5c0.5-0.4,0.7-1,0.7-2v-1.9
		c0-1-0.2-1.6-0.7-2c-0.5-0.4-1.4-0.5-2.8-0.5H45c-1.4,0-2.4,0.2-2.8,0.5c-0.4,0.4-0.7,1-0.7,2v1.8c0,0.9,0.2,1.6,0.7,1.9
		C42.7,245.8,43.6,246,45,246L45,246z M81,249.1h-5.9l-7.9-9.6v9.6h-4V236h5.9l7.8,9.6V236h4V249.1L81,249.1z M97.9,249.1h-4v-9.9
		h-5.5V236h15v3.2h-5.5V249.1L97.9,249.1z M114.7,243.8h5.1l-2.6-4.7L114.7,243.8L114.7,243.8z M111.9,249.1h-4.4l7.2-13.1h5.1
		l7,13.1h-4.4l-1.3-2.2h-8L111.9,249.1L111.9,249.1z M151.7,249.1h-5.9l-7.9-9.6v9.6h-4V236h5.9l7.8,9.6V236h4V249.1L151.7,249.1z
		 M165.8,243.8h5.1l-2.6-4.7L165.8,243.8L165.8,243.8z M163,249.1h-4.4l7.2-13.1h5.1l7,13.1h-4.4l-1.3-2.2h-8L163,249.1L163,249.1z
		 M16.3,267.1l5.2-9.4h4.3l-7,13.1h-4.9l-7-13.1h4.4L16.3,267.1L16.3,267.1z M41.5,270.8h-4v-13.1h4V270.8L41.5,270.8z M58.7,262.5
		h1.7l5.3-4.9H71l-7.1,6.5l8,6.7h-5.6l-5.9-5h-1.7v5h-4v-13.1h4V262.5L58.7,262.5z M87.6,270.8h-4v-13.1h4V270.8L87.6,270.8z
		 M118.6,270.8h-5.9l-7.9-9.6v9.6h-4v-13.1h5.9l7.8,9.6v-9.6h4V270.8L118.6,270.8z M143.9,262.4L143.9,262.4c0-0.6-0.2-1.1-0.5-1.3
		c-0.4-0.2-1.2-0.3-2.5-0.3h-2.3c-1.4,0-2.3,0.2-2.6,0.5c-0.4,0.3-0.6,1-0.6,2.1v1.8c0,0.9,0.2,1.6,0.7,2c0.4,0.4,1.3,0.5,2.6,0.5
		h2.3c1.2,0,1.9-0.1,2.4-0.3c0.4-0.2,0.7-0.6,0.7-1.1c0-0.1,0-0.2,0-0.4c0,0,0,0,0,0h-4.7v-2.7h8.9v4.3c0,1.2-0.5,2.1-1.4,2.6
		c-0.9,0.5-2.5,0.8-4.8,0.8h-4.5c-1.4,0-2.4-0.1-3-0.2c-0.7-0.1-1.2-0.4-1.7-0.8c-0.5-0.4-0.9-0.9-1.2-1.5c-0.2-0.6-0.4-1.4-0.4-2.3
		v-3.6c0-1.9,0.4-3.2,1.3-3.9c0.9-0.7,2.5-1.1,4.9-1.1h4.5c1.4,0,2.5,0.1,3.2,0.2c0.7,0.1,1.2,0.3,1.6,0.7c0.4,0.3,0.7,0.7,0.9,1.3
		c0.2,0.5,0.3,1.2,0.3,2c0,0.2,0,0.3,0,0.4c0,0.1,0,0.2,0,0.3H143.9L143.9,262.4z M160.6,266.4l4,0v0.2c0,0.5,0.1,0.8,0.4,1
		c0.2,0.2,0.7,0.3,1.5,0.3h5c0.5,0,0.9-0.1,1.1-0.3c0.2-0.2,0.3-0.4,0.3-0.8c0-0.4-0.1-0.7-0.4-0.9c-0.2-0.2-0.8-0.3-1.6-0.3
		l-6.3-0.1c-1.6,0-2.6-0.3-3.2-0.9c-0.6-0.6-0.8-1.6-0.8-3c0-0.8,0.1-1.4,0.2-1.9c0.1-0.5,0.4-0.9,0.7-1.2c0.4-0.4,0.9-0.6,1.5-0.8
		c0.6-0.2,1.6-0.2,3-0.2h6.1c1.5,0,2.6,0.3,3.3,0.8c0.7,0.6,1,1.5,1,2.7c0,0.1,0,0.2,0,0.3c0,0.1,0,0.2,0,0.5h-3.9v-0.1
		c0-0.4-0.1-0.8-0.3-1c-0.2-0.2-0.6-0.3-1-0.3h-4.6c-0.8,0-1.3,0.1-1.5,0.2c-0.2,0.2-0.4,0.4-0.4,0.8c0,0.4,0.1,0.6,0.3,0.8
		c0.2,0.2,0.6,0.3,1.2,0.3l6.6,0.1c1.5,0,2.6,0.4,3.2,1c0.6,0.6,0.9,1.7,0.9,3.3c0,0.9-0.1,1.6-0.3,2.1c-0.2,0.5-0.6,0.9-1.1,1.3
		c-0.4,0.2-0.8,0.4-1.4,0.5c-0.6,0.1-1.5,0.1-2.6,0.1h-5.4c-2.2,0-3.7-0.2-4.4-0.7c-0.7-0.5-1.1-1.4-1.1-2.7c0-0.1,0-0.2,0-0.4
		C160.6,266.9,160.6,266.7,160.6,266.4z"/>
	<path fill-rule="evenodd" clip-rule="evenodd" d="M458.6,246.1c0.4,0,0.6-0.1,0.8-0.3c0.2-0.2,0.3-0.5,0.3-0.9
		c0-0.4-0.1-0.6-0.3-0.8c-0.2-0.2-0.5-0.3-0.8-0.3h-7.4v2.4H458.6L458.6,246.1z M458.2,241.1c0.3,0,0.6-0.1,0.8-0.3
		c0.2-0.2,0.3-0.5,0.3-0.8c0-0.3-0.1-0.6-0.3-0.8c-0.2-0.2-0.4-0.3-0.7-0.3h-7.1v2.2H458.2L458.2,241.1z M459.6,249.1h-12.5V236H459
		c1.5,0,2.6,0.3,3.3,0.9c0.7,0.6,1.1,1.5,1.1,2.8c0,0.7-0.2,1.3-0.5,1.7c-0.3,0.5-0.8,0.8-1.5,1.1c0.8,0.1,1.4,0.5,1.8,1
		c0.4,0.5,0.6,1.2,0.6,2.2c0,1.2-0.3,2.1-1,2.7C462.1,248.8,461.1,249.1,459.6,249.1L459.6,249.1z M475.9,243.8h5.1l-2.6-4.7
		L475.9,243.8L475.9,243.8z M473.1,249.1h-4.4l7.2-13.1h5.1l7,13.1h-4.4l-1.3-2.2h-8L473.1,249.1L473.1,249.1z M492.9,244.7l4,0v0.2
		c0,0.5,0.1,0.8,0.4,1c0.2,0.2,0.7,0.3,1.5,0.3h5c0.5,0,0.9-0.1,1.1-0.3c0.2-0.2,0.3-0.4,0.3-0.8c0-0.4-0.1-0.7-0.4-0.9
		c-0.2-0.2-0.8-0.3-1.6-0.3l-6.3-0.1c-1.6,0-2.6-0.3-3.2-0.9c-0.6-0.6-0.8-1.6-0.8-3c0-0.8,0.1-1.4,0.2-1.9c0.1-0.5,0.4-0.9,0.7-1.2
		c0.4-0.4,0.9-0.6,1.5-0.8c0.6-0.2,1.6-0.2,3-0.2h6.1c1.5,0,2.6,0.3,3.3,0.8c0.7,0.6,1,1.5,1,2.7c0,0.1,0,0.2,0,0.3
		c0,0.1,0,0.2,0,0.5h-3.9V240c0-0.4-0.1-0.8-0.3-1c-0.2-0.2-0.6-0.3-1-0.3h-4.6c-0.8,0-1.3,0.1-1.5,0.2s-0.4,0.4-0.4,0.8
		c0,0.4,0.1,0.6,0.3,0.8c0.2,0.2,0.6,0.3,1.2,0.3l6.6,0.1c1.5,0,2.6,0.4,3.2,1c0.6,0.6,0.9,1.7,0.9,3.3c0,0.9-0.1,1.6-0.3,2.1
		c-0.2,0.5-0.6,0.9-1.1,1.3c-0.4,0.2-0.8,0.4-1.4,0.5c-0.6,0.1-1.5,0.1-2.6,0.1h-5.4c-2.2,0-3.7-0.2-4.4-0.7
		c-0.7-0.5-1.1-1.4-1.1-2.7c0-0.1,0-0.2,0-0.4C492.8,245.2,492.8,245,492.9,244.7L492.9,244.7z M519.5,240.9h1.7l5.3-4.9h5.3
		l-7.1,6.5l8,6.7h-5.6l-5.9-5h-1.7v5h-4V236h4V240.9L519.5,240.9z M552.2,239.2h-10.4v2h9.8v2.8h-9.8v2h10.5v3.2h-14.5V236h14.4
		V239.2L552.2,239.2z M567.2,249.1h-4v-9.9h-5.5V236h15v3.2h-5.5V249.1L567.2,249.1z M589.8,246.1c0.4,0,0.6-0.1,0.8-0.3
		c0.2-0.2,0.3-0.5,0.3-0.9c0-0.4-0.1-0.6-0.3-0.8c-0.2-0.2-0.5-0.3-0.8-0.3h-7.4v2.4H589.8L589.8,246.1z M589.4,241.1
		c0.3,0,0.6-0.1,0.8-0.3c0.2-0.2,0.3-0.5,0.3-0.8c0-0.3-0.1-0.6-0.3-0.8c-0.2-0.2-0.4-0.3-0.7-0.3h-7.1v2.2H589.4L589.4,241.1z
		 M590.8,249.1h-12.5V236h11.8c1.5,0,2.6,0.3,3.3,0.9c0.7,0.6,1.1,1.5,1.1,2.8c0,0.7-0.2,1.3-0.5,1.7c-0.3,0.5-0.8,0.8-1.5,1.1
		c0.8,0.1,1.4,0.5,1.8,1c0.4,0.5,0.6,1.2,0.6,2.2c0,1.2-0.3,2.1-1,2.7C593.4,248.8,592.3,249.1,590.8,249.1L590.8,249.1z
		 M607.2,243.8h5.1l-2.6-4.7L607.2,243.8L607.2,243.8z M604.4,249.1H600l7.2-13.1h5.1l7,13.1h-4.4l-1.3-2.2h-8L604.4,249.1
		L604.4,249.1z M628.9,245.9h8.8v3.2h-12.8V236h4V245.9L628.9,245.9z M647.4,245.9h8.8v3.2h-12.8V236h4V245.9L647.4,245.9z
		 M459.7,262.4v-0.1c0-0.5-0.2-0.9-0.5-1.1c-0.3-0.2-0.9-0.4-1.6-0.4h-3.2c-1.4,0-2.3,0.2-2.7,0.5c-0.4,0.3-0.6,1-0.6,2.1v1.8
		c0,0.9,0.2,1.6,0.7,2c0.4,0.4,1.3,0.5,2.6,0.5h2.3c1.3,0,2.1-0.1,2.5-0.4c0.4-0.3,0.6-0.7,0.6-1.4v-0.1h4.1c0,0,0,0.1,0,0.1
		c0,0.4,0,0.7,0,0.9c0,0.8-0.1,1.5-0.3,2.1c-0.2,0.5-0.5,1-1,1.3c-0.4,0.3-1,0.5-1.7,0.7c-0.7,0.1-1.8,0.2-3.1,0.2h-4.5
		c-1.4,0-2.4-0.1-3-0.2c-0.6-0.1-1.2-0.4-1.7-0.8c-0.5-0.4-0.9-0.9-1.2-1.5c-0.2-0.6-0.4-1.4-0.4-2.3v-3.6c0-1.9,0.4-3.2,1.3-3.9
		c0.9-0.7,2.5-1.1,4.9-1.1h4.5c1.4,0,2.5,0.1,3.2,0.2c0.7,0.1,1.2,0.3,1.6,0.7c0.4,0.3,0.7,0.7,0.9,1.3c0.2,0.5,0.3,1.2,0.3,2
		c0,0.2,0,0.3,0,0.4c0,0.1,0,0.2,0,0.3H459.7L459.7,262.4z M474.3,267.6h8.8v3.2h-12.8v-13.1h4V267.6L474.3,267.6z M488.5,257.6h4
		v7.8c0,0.9,0.2,1.5,0.6,1.8c0.4,0.3,1.3,0.5,2.6,0.5h2.3c1.1,0,1.9-0.2,2.3-0.5c0.4-0.3,0.6-0.9,0.6-1.8v-7.8h4v9
		c0,1.5-0.4,2.6-1.3,3.3c-0.8,0.6-2.3,1-4.3,1h-4.5c-2.4,0-4.1-0.3-5-0.9c-0.9-0.6-1.4-1.7-1.4-3.3V257.6L488.5,257.6z M522.8,267.8
		c0.4,0,0.6-0.1,0.8-0.3c0.2-0.2,0.3-0.5,0.3-0.9c0-0.4-0.1-0.6-0.3-0.8c-0.2-0.2-0.5-0.3-0.8-0.3h-7.4v2.4H522.8L522.8,267.8z
		 M522.5,262.7c0.3,0,0.6-0.1,0.8-0.3c0.2-0.2,0.3-0.5,0.3-0.8c0-0.3-0.1-0.6-0.3-0.8c-0.2-0.2-0.4-0.3-0.7-0.3h-7.1v2.2H522.5
		L522.5,262.7z M523.9,270.8h-12.5v-13.1h11.8c1.5,0,2.6,0.3,3.3,0.9c0.7,0.6,1.1,1.5,1.1,2.8c0,0.7-0.2,1.3-0.5,1.7
		c-0.3,0.5-0.8,0.8-1.5,1.1c0.8,0.1,1.4,0.5,1.8,1c0.4,0.5,0.6,1.2,0.6,2.2c0,1.2-0.3,2.1-1,2.7
		C526.4,270.5,525.4,270.8,523.9,270.8z"/>
	<path fill-rule="evenodd" clip-rule="evenodd" d="M586,264.9h-6.1v1.2h5.8v1.6h-5.8v1.2h6.2v1.9h-8.6V263h8.5V264.9L586,264.9z
		 M587.5,269.1l2.1,0v0c0,0.2,0.1,0.3,0.3,0.4c0.2,0.1,0.4,0.1,0.8,0.1h1.4c0.3,0,0.5,0,0.6-0.1c0.1-0.1,0.2-0.2,0.2-0.3
		c0-0.1-0.1-0.2-0.2-0.3c-0.1-0.1-0.3-0.1-0.6-0.1l-2,0c-1,0-1.7-0.1-2.1-0.4c-0.4-0.3-0.6-0.7-0.6-1.3c0-0.6,0.2-1.1,0.6-1.4
		c0.4-0.3,1.1-0.4,2.1-0.4h2.3c0.7,0,1.3,0.1,1.6,0.4c0.3,0.3,0.5,0.7,0.5,1.2h-2c0-0.1-0.2-0.2-0.3-0.2c-0.2-0.1-0.4-0.1-0.7-0.1
		h-1.4c-0.3,0-0.5,0-0.6,0.1c-0.1,0.1-0.2,0.1-0.2,0.3c0,0.1,0.1,0.2,0.2,0.3c0.1,0.1,0.4,0.1,0.8,0.1h2.4c0.7,0,1.2,0.2,1.6,0.4
		c0.3,0.3,0.5,0.7,0.5,1.3c0,0.7-0.2,1.2-0.5,1.4c-0.4,0.3-1,0.4-1.9,0.4h-2c-1.1,0-1.9-0.1-2.3-0.4
		C587.7,270.2,587.5,269.8,587.5,269.1L587.5,269.1z M597,266.8h-1.1v-1.4h1.1V264h2v1.3h3.1v1.4H599v1.9c0,0.3,0.1,0.5,0.2,0.6
		c0.1,0.1,0.3,0.2,0.6,0.2c0.3,0,0.5-0.1,0.7-0.2c0.1-0.1,0.2-0.3,0.2-0.6c0-0.1,0-0.2,0-0.3c0,0,0,0,0,0h1.8c0,0.1,0,0.1,0,0.2
		c0,0.1,0,0.2,0,0.3c0,0.7-0.2,1.3-0.7,1.6c-0.4,0.3-1.1,0.5-2.1,0.5c-0.9,0-1.6-0.1-2-0.4c-0.4-0.3-0.6-0.8-0.6-1.5V266.8
		L597,266.8z M606.8,270.8h-2.2v-2.2h2.2V270.8L606.8,270.8z M621.4,270.8h-2.3V265l-2.6,1.8l-1.1-1.6l3.4-2.1h2.6V270.8
		L621.4,270.8z M631.1,264.7h-2.2c-0.4,0-0.6,0.1-0.8,0.2c-0.2,0.1-0.3,0.3-0.3,0.6c0,0.3,0.1,0.5,0.2,0.6c0.2,0.1,0.4,0.2,0.8,0.2
		h2.2c0.4,0,0.6-0.1,0.8-0.2c0.2-0.1,0.2-0.3,0.2-0.6c0-0.3-0.1-0.5-0.2-0.6C631.7,264.8,631.5,264.7,631.1,264.7L631.1,264.7z
		 M634.4,265.4v3.1c0,0.9-0.3,1.6-0.8,1.9c-0.6,0.4-1.6,0.5-3.1,0.5h-2.2c-1,0-1.7-0.2-2.2-0.5c-0.5-0.3-0.7-0.8-0.7-1.5
		c0,0,0-0.1,0-0.2c0-0.1,0-0.1,0-0.3h2.1c0,0.2,0.1,0.4,0.3,0.5c0.2,0.1,0.4,0.2,0.8,0.2h2.2c0.4,0,0.8-0.1,0.9-0.2
		c0.2-0.1,0.3-0.4,0.3-0.7v-0.9c-0.2,0.2-0.4,0.4-0.7,0.5c-0.3,0.1-0.7,0.1-1.2,0.1h-1.7c-1.1,0-1.9-0.1-2.3-0.4
		c-0.5-0.3-0.7-0.7-0.7-1.3v-1.5c0-0.6,0.2-1,0.6-1.3c0.4-0.3,1-0.4,1.8-0.4h3.5c1,0,1.8,0.2,2.3,0.6
		C634.1,263.9,634.4,264.6,634.4,265.4L634.4,265.4z M641.9,264.7h-2.2c-0.4,0-0.6,0.1-0.8,0.2c-0.2,0.1-0.3,0.3-0.3,0.6
		c0,0.3,0.1,0.5,0.2,0.6c0.2,0.1,0.4,0.2,0.8,0.2h2.2c0.4,0,0.6-0.1,0.8-0.2c0.2-0.1,0.2-0.3,0.2-0.6c0-0.3-0.1-0.5-0.2-0.6
		C642.5,264.8,642.3,264.7,641.9,264.7L641.9,264.7z M645.2,265.4v3.1c0,0.9-0.3,1.6-0.8,1.9c-0.6,0.4-1.6,0.5-3.1,0.5h-2.2
		c-1,0-1.7-0.2-2.2-0.5s-0.7-0.8-0.7-1.5c0,0,0-0.1,0-0.2c0-0.1,0-0.1,0-0.3h2.1c0,0.2,0.1,0.4,0.3,0.5c0.2,0.1,0.4,0.2,0.8,0.2h2.2
		c0.4,0,0.8-0.1,0.9-0.2c0.2-0.1,0.3-0.4,0.3-0.7v-0.9c-0.2,0.2-0.4,0.4-0.7,0.5c-0.3,0.1-0.7,0.1-1.2,0.1h-1.7
		c-1.1,0-1.9-0.1-2.3-0.4c-0.5-0.3-0.7-0.7-0.7-1.3v-1.5c0-0.6,0.2-1,0.6-1.3c0.4-0.3,1-0.4,1.8-0.4h3.5c1,0,1.8,0.2,2.3,0.6
		C644.9,263.9,645.2,264.6,645.2,265.4L645.2,265.4z M647.1,268.4h2.2v0.1c0,0.2,0.1,0.4,0.3,0.5c0.2,0.1,0.5,0.1,1,0.1h2.4
		c0.4,0,0.6-0.1,0.8-0.2c0.1-0.1,0.2-0.3,0.2-0.6V268c0-0.2-0.1-0.4-0.3-0.5c-0.2-0.1-0.5-0.1-0.9-0.1h-2.6c-0.2,0-0.4,0-0.5,0.1
		c-0.1,0.1-0.2,0.2-0.2,0.3h-2V263h8.4v1.8h-6.4v1.3c0.2-0.2,0.4-0.3,0.7-0.4c0.3-0.1,0.7-0.1,1.2-0.1h2.1c0.9,0,1.6,0.2,2,0.5
		c0.4,0.3,0.6,0.8,0.6,1.4v1.3c0,0.8-0.2,1.3-0.7,1.6c-0.5,0.3-1.3,0.5-2.4,0.5h-2.8c-1.2,0-2.1-0.2-2.5-0.5
		c-0.5-0.3-0.7-0.9-0.7-1.6c0-0.1,0-0.2,0-0.2C647.1,268.5,647.1,268.5,647.1,268.4z"/>
	<path fill-rule="evenodd" clip-rule="evenodd" fill="#FFFFFF" d="M283.5,57.9c-0.7-5.1-1.9-11.2-3.8-18.6c3.2,3.8,6.7,8.2,10,13.2
		c14.4,22.4,15.1,44.5-1.7,69.1c-0.2,0.2-0.2,0.3-0.5,0.5c-15.4,14.5-21.8,8.5-24.4-11.9l-0.4-1C282.1,92.8,286.7,80.1,283.5,57.9z"
		/>
	<path fill-rule="evenodd" clip-rule="evenodd" d="M283.2,70.8l-0.1,1.1l0,0.2l0,0.2l0,0.5l-0.1,1l-0.1,0.9l-0.1,1l-0.2,0.9
		l-0.1,0.5l0,0.2l0,0.2l-0.2,0.9l-0.2,0.9l-0.2,0.9l-0.2,0.9l-0.1,0.4l-0.1,0.4l-0.2,0.9l-0.2,0.4l-0.1,0.4l-0.3,0.8l-0.3,0.8
		l-0.2,0.4l-0.1,0.4l-0.3,0.8l-0.3,0.8l-0.4,0.8l-0.4,0.8l-0.4,0.7l-0.4,0.7l-0.4,0.7L277,92l-0.1,0.2l-0.1,0.2l-0.2,0.3l-0.5,0.7
		l-0.5,0.6l-0.1,0.2l-0.1,0.2l-0.2,0.3l-0.5,0.6l-0.3,0.3l-0.1,0.2l-0.1,0.2l-0.5,0.6l-0.3,0.3l-0.3,0.3l-11.5,11.9l0.1,1.1l0.1,1.1
		l0.1,1l0.2,1l0.2,1l0.2,1l0.2,0.9l0.2,0.9l0.2,0.9l0.2,0.9l0.4,1.6l0.2,0.8l0.2,0.7l0.2,0.7l0.3,0.7l0.3,0.6l0.3,0.6l0.6,1.2
		l0.3,0.5l0.3,0.5l0.3,0.5l0.3,0.5l0.3,0.4l0.4,0.4l0.4,0.4l0.4,0.4l0.4,0.3l0.4,0.3l0.4,0.3l0.4,0.2l0.4,0.2l0.4,0.2l0.4,0.2
		l0.5,0.1l0.5,0.1l0.5,0.1l0.5,0l0.5,0l0.5,0l0.5,0l0.5-0.1l0.5-0.1l0.5-0.1l0.5-0.2l0.5-0.2l0.6-0.2l0.6-0.2l0.6-0.3l0.6-0.3
		l0.6-0.3l0.6-0.4l0.6-0.4l0.6-0.4l0.7-0.4l0.6-0.5l0.7-0.5l0.7-0.5l0.7-0.5l0.7-0.6l0.7-0.6l0.7-0.6l0.7-0.6h0l0,0l0,0l0.1,0
		l0.2-0.2l0.1-0.1l0.1-0.1l0.2-0.4l0.1-0.2l0.2-0.2l0.4-0.6l0.2-0.3l0.2-0.3l0.4-0.8l0.2-0.4l0.3-0.4l0.2-0.5l0.3-0.5l0.3-0.5
		l0.3-0.5l0.3-0.5l0.3-0.6l0.3-0.6l0.4-0.6l0.7-1.3l0.8-1.4l0.4-0.8l0.4-0.8l0.8-1.6l0.7-1.6l0.7-1.6l0.6-1.6l0.6-1.6l0.5-1.6
		l0.5-1.6l0.4-1.6l0.4-1.6l0.2-0.8l0.2-0.8l0.3-1.6l0.2-1.6l0.2-1.6l0.1-1.6l0.1-1.6l0-1.6l0-1.6l-0.1-1.6l-0.2-1.6l-0.2-1.6
		l-0.2-1.6l-0.3-1.6l-0.2-0.8l-0.2-0.8l-0.2-0.8l-0.1-0.4l-0.1-0.4l-0.5-1.6l-0.5-1.6l-0.6-1.6l-0.6-1.7l-0.7-1.6l-0.7-1.6l-0.8-1.6
		l-1.1-2.1l-0.6-1l-0.6-1l-1.3-2.1l-0.6-1l-0.7-1l-1.4-2.1l-0.4-0.5l-0.2-0.3l-0.1-0.1l-0.1-0.1l-0.7-1l-0.8-1.1l-0.8-1l-1.6-2
		l-1.7-2l-1.8-2l-1.9-2l-1.9-2l0.1,0.4l0.1,0.5l0.3,0.9l0.2,0.9l0.3,0.9l0.1,0.4l0.1,0.4l0.2,0.9l0.2,0.8l0.2,0.8l0.1,0.4l0,0.2
		l0,0.1l0,0.1l0.2,0.8l0.2,0.8l0.2,0.8l0.2,0.7l0.1,0.4l0.1,0.4l0.1,0.3l0.1,0.4l0.2,0.7l0.3,1.6l0.1,0.8l0.2,0.8l0.3,1.5l0.1,0.7
		l0.1,0.8l0.1,0.7l0.1,0.7l0.2,1.4l0.2,1.4l0.2,1.4l0.1,1.3l0,0.7l0.1,0.7l0.1,1.3l0.1,1.3l0,1.3l0,1.3l0,1.2l0,0.1v0.2v0.3V70.8
		L283.2,70.8z M262.7,109.3c24.3-20.6,25.4-35.3,17.1-70c23.4,27.1,28.3,52.9,8.3,82.3c-0.2,0.2-0.2,0.3-0.5,0.5
		c-15.4,14.5-21.8,8.5-24.4-11.9L262.7,109.3z"/>
	<path fill-rule="evenodd" clip-rule="evenodd" fill="#FFFFFF" d="M206.3,125c-24-3.6-39.6-17-53.7-36c7.8,27.6,21.1,57.2,53.4,63.3
		C203.2,144.8,202.3,136.3,206.3,125z"/>
	<radialGradient id="SVGID_1_" cx="345.847" cy="159.3434" r="84.0723" gradientUnits="userSpaceOnUse">
		<stop  offset="0" style="stop-color:#FFFFFF"/>
		<stop  offset="1" style="stop-color:#CA5C16"/>
	</radialGradient>
	<path fill-rule="evenodd" clip-rule="evenodd" fill="url(#SVGID_1_)" d="M354.5,225.5c10,11,23.7,22.1,41.3,34.2
		c23.6-11.3,40.8-33.9,44.5-60.8C396.3,258.8,378.3,209,354.5,225.5L354.5,225.5z M389.8,262.2c-8.7,3.3-18.2,5.1-28.1,5.1
		c-6.7,0-13.1-0.8-19.3-2.4c6.3-18.9-5.9-23.1,7.8-35.9C360.1,239.8,373.3,250.6,389.8,262.2L389.8,262.2z M347.2,225.7
		c-1.5-1.8-3-3.5-4.3-5.3c-16.2,5.6-34.6,6.1-55.1-3.7c8.6,22.3,27,39.6,49.9,46.9C343.7,255.6,331.3,240.5,347.2,225.7L347.2,225.7
		z M339,214.8c-16,5.2-33,4.2-53.6-5.4c-1.9-6.9-3-14.1-3-21.6c0-5.4,0.5-10.8,1.6-15.9c25.5-7.3,25.2,34.1,48.2,30.2
		C334,206.5,336.2,210.7,339,214.8L339,214.8z M330.5,197.6c-8.1-24.9,0.3-52.3,25.2-88.8c-33.6,2.5-61.4,26.1-70.3,57.5
		C309.5,160.3,312.2,197.2,330.5,197.6L330.5,197.6z M430.2,148c1.3,2.2,2.5,4.5,3.5,6.8l-0.1,0l-0.8,0.4l-0.8,0.5l-0.7,0.6
		l-0.6,0.6l-0.3,0.3l-0.2,0.4l-0.2,0.4l-0.2,0.4l-0.4,0.9l-0.3,0.9l-0.2,1l-0.1,0.5l-0.1,0.5l-0.1,0.5l0,0.6l0,0.6v0.6l0,1.3l0,0.6
		l0.1,0.7l0.2,1.4l-1,0.8l-1,0.8L426,171l-0.9,0.9l-0.9,0.9l-0.8,1l-0.8,1l-0.7,1.1l-0.7,1.1l-0.6,1.1l-0.6,1.2l-0.5,1.2l-0.5,1.2
		l-0.5,1.3l-0.4,1.3l-0.4,1.4l-0.2,0.7l-0.2,0.7l-0.1,0.7l-0.1,0.7l-0.1,0.7l0,0.7v0.6l0.1,0.6l0.1,0.6l0.1,0.6l0.1,0.5l0.2,0.5
		l0.2,0.5l0.2,0.5l0.3,0.5l0.3,0.5l0.3,0.4l0.4,0.4l0.4,0.4l0.4,0.4l0.5,0.3l0.5,0.3l0.5,0.3l0.6,0.3l0.6,0.2l0.6,0.2l0.7,0.2
		l0.7,0.2l0.7,0.2l0.8,0.2l0.8,0.1l0.9,0.1l3.8-2.3l0,0.1l0.1,0.1l0.1,0h0.1l0.1-0.1l0.2-0.1l0.2-0.1l0.2-0.1l0.2-0.2l0.2-0.2
		l0.2-0.2l0.3-0.2l0.3-0.3l0.3-0.3l0.3-0.4l0.3-0.4l0.6-0.8l0.5-0.8l0.5-0.8l0.4-0.7l0.3-0.7l0.3-0.7l0.2-0.7l0.1-0.6l0.1-0.6
		l0.1-0.5l0.1-0.5l0.1-0.3l0.1-0.3l0.1-0.2l0.1-0.2l0.1,0h0.4l-0.4-0.1l0.1-0.4l0.1-0.3l0.1-0.4l0.1-0.3l0.1-0.2l0.1-0.1l0.2-0.2
		l0.2-0.2l0.2-0.3l0.3-0.3l0.3-0.4l0.4-0.5l0.2-0.2c0.1,1.7,0.2,3.4,0.2,5.1c0,0.7,0,1.4,0,2.1c-51.1,70.3-55.3,7.9-89.4,32.2
		c-1.1-1.3-2.2-2.6-3.2-3.9c24-10.2,42.8-30.7,55.6-43.3l0.2,0.1l0.4,0.2l0.8,0.2l0.4,0.1l0.5,0.1l0.9,0h0.5l0.5,0l0.2,0l0.1,0h0.1
		l0.4,0l0.2,0l0.1,0h0.1l0.4,0l0.1,0l0.1,0l0.2,0l0.4-0.1l0.3-0.1l0.4-0.1l0.3-0.1l0.3-0.1l0.3-0.1l0.3-0.1l0.3-0.2l0.3-0.2l0.3-0.2
		l0.3-0.2l0.1-0.1l0.1-0.1l0.2-0.2l0.2-0.2l0.1-0.1l0.1-0.1l0.1-0.1l0.1-0.1l0.2-0.2l0.1-0.1l0.1-0.1l0.2-0.2l0.1-0.3l0.1-0.3
		l0.1-0.3l0.1-0.2l0.1-0.1l0.1-0.3l0.1-0.3l0.1-0.3l0.1-0.3l0.1,0.4l0.2,0.4l0.1,0.5l0.1,0.5l0.8-0.9l0.7-0.8l0.7-0.8l0.6-0.8
		l0.5-0.8l0.5-0.8l0.4-0.8l0.4-0.8l0.3-0.8l0.3-0.8l0.2-0.8l0.2-0.8l0.1-0.8l0.1-0.8v-0.7l0-0.7l0.7-0.8l0.7-0.8l0.7-0.8l0.7-0.7
		l0.6-0.8l0.6-0.7l0.6-0.7l0.5-0.7l0.5-0.8l0.5-0.7l0.4-0.7l0.4-0.7l0.4-0.7l0.3-0.7L430.2,148L430.2,148z M405.9,122
		c1.5,1,3,2.1,4.5,3.2l0,0l0,0.2l0.1,0.5l0.2,0.5l0.2,0.6l0.3,0.7l0.4,0.7l0.5,0.8l0.3,0.4l0.3,0.5l-0.4,0.5l-0.4,0.5l-0.4,0.5
		l-0.3,0.6l-0.3,0.6l-0.3,0.6l-0.2,0.6l-0.2,0.6l-0.2,0.6l-0.2,0.7l-0.2,0.7l-0.1,0.7l-0.1,0.7l-0.1,0.8l0,0.8l0,0.8l-0.5,0.3
		l-0.5,0.4l-0.9,0.8l-0.9,0.9l-0.8,1l-0.8,1l-0.7,1.1l-0.7,1.2l-0.7,1.3l-0.6,1.3l-0.6,1.4l-0.3,0.7l-0.2,0.8l-0.5,1.6l-0.2,0.8
		l-0.2,0.8l-0.4,1.7l-0.4,1.8l-0.3,1.9l-0.1,1.1l0,1v1l0.1,1l0.1,0.9l0.1,0.9l0.1,0.8l0.2,0.8l0.2,0.7l0.2,0.7l0.2,0.6l0.2,0.4
		c-20.4,18.9-37.7,34-55.8,41.5c-2.7-4.1-4.8-8.1-6.5-12.2c20.4-8.6-0.4-33.8,35.1-57.5h0l0.8,0.3l0.8,0.2l0.8,0.2l0.8,0.2l0.8,0.1
		l0.9,0.1l0.9,0.1l0.9,0l0.9-0.1l0.9-0.1l0.9-0.1l1-0.1l0.1,0l0.1-0.1l0.1-0.1l0.2-0.1l0.2-0.1l0.2-0.2l0.3-0.2l0.3-0.2l0.4-0.2
		l0.4-0.3l0.4-0.3l0.5-0.3l0.5-0.3l0.5-0.4l0.6-0.4l0.7-0.4l0.6-0.5l0.7-0.5l0.7-0.6l0.7-0.7l0.7-0.8l0.8-0.8l0.8-0.9l0.8-0.9l0.8-1
		l0.9-1.1l0.9-1.2l0.9-1.2l0.9-1.3l0.9-1.4l0.9-1.4l1-1.5l0.3-0.1l0.3-0.1l0.3-0.1l0.3-0.1l0.3-0.2l0.3-0.2l0.3-0.2l0.3-0.2l0.2-0.2
		l0.2-0.2l0.2-0.3l0.2-0.3l0.2-0.3L405.9,122L405.9,122z M367.7,139.2l-0.3-0.4l-0.2-0.3l-0.2-0.3l-0.4-0.6l-0.2-0.3l-0.1-0.3
		l-0.3-0.7l-0.2-0.7l-0.2-0.7l-0.1-0.7l-0.1-0.4l0-0.4l0-0.4l0-0.4v-0.4l0-0.4l0-0.4l0.1-0.4l-0.1-0.7l0-0.7l0.1-1.3l0.1-0.7
		l0.1-0.6l0.4-1.3l0.5-1.3l0.3-0.7l0.4-0.6l0.4-0.7l0.4-0.6l0.4-0.6l0.5-0.6l1-1.3l0.6-0.6l0.6-0.6l1.3-1.3l0.7-0.6l0.8-0.6l0.8-0.6
		l0.9-0.6l1.8-1.3l1.9-1.3l1-0.6l0.2-0.1c-5.7-1.4-11.6-2.2-17.7-2.3c-25,36.2-34.5,63-26.4,87.9
		C350.4,190.2,334.1,160.6,367.7,139.2z"/>
	<path fill-rule="evenodd" clip-rule="evenodd" fill="#FBE800" d="M270,214.8l-0.2-0.2l-0.2-0.2l-0.5-0.4l-0.3-0.2l-0.3-0.2
		l-0.4-0.2l-0.4-0.2l-0.7,1.2l-0.6,1.2l-0.5,1.2l-0.4,1.3l-0.3,1.3l-0.2,1.3l-0.2,1.4l-0.1,1.4l0,0.7v0.7l0,0.7l0.1,0.6l0.1,0.6
		l0.1,0.6l0.1,0.6l0.2,0.6l0.2,0.5l0.2,0.5l0.2,0.5l0.3,0.5l0.3,0.4l0.3,0.4l0.3,0.4l0.4,0.4l0.3-0.5l0.4-0.5l0.4-0.5l0.5-0.5
		l0.5-0.5l0.6-0.5l0.7-0.5l0.8-0.4l0.6-0.3l0.7-0.3l0.7-0.2l0.7-0.1l-0.1,0.5l0,0.5l0,0.5l0,0.5l0,0.5l0.1,0.5l0.1,0.5l0.1,0.5
		l0.1,0.4l0.2,0.4l0.2,0.4l0.2,0.4l0.2,0.4l0.3,0.4l0.3,0.4l0.3,0.4l0.9,0.9l0.9,0.9l0.9,0.9l0.9,0.9l0.9,0.8l0.9,0.8l0.9,0.7
		l0.9,0.7l0.1-0.5l0.1-0.5l0.1-0.4l0.1-0.4l0-0.4l0-0.3l0-0.3l0-0.2l0.6,0.7l0.6,0.7l0.6,0.8l0.7,0.8l0.7,0.8l0.7,0.9l0.7,0.9l0.7,1
		l0.4,0.4l0.4,0.4l0.2,0.2l0.2,0.2l0.4,0.3l0.2,0.1l0.1,0l0,0l0.1,0l0.3,0.2l0.3,0.1l0.2,0h0.1h0l0.1,0l0.3-0.1l0.1,0l0.1,0l0.2,0
		l0.1-0.1l0.1-0.1l0.3-0.2l0.1-0.2l0.1-0.1l0.2-0.3l0-0.1l0-0.1l0,0l0.1-0.2l0.1-0.2l0.1-0.2l0.7,0.7l0.7,0.7l0.8,0.7l0.4,0.3
		l0.4,0.3l0.9,0.6l0.9,0.6l1,0.6l0.5,0.3l0.5,0.3l0.7,0.3l0.7,0.3l0.7,0.3l0.7,0.3l0.7,0.2l0.3,0.1l0.1,0l0.1,0l0.2,0.1l0.7,0.2
		l0.7,0.2l-0.5-0.9l-0.5-0.8l-0.5-0.8l-0.5-0.8l-0.5-0.8l-0.5-0.7l-0.5-0.7l-0.5-0.6l-0.7-0.8l-0.7-0.7l-0.7-0.7l-0.7-0.6l-0.8-0.5
		l-0.4-0.3l-0.4-0.2l-0.8-0.4l-0.8-0.4L295,241l-1.1-0.6l-1.1-0.7l-1.1-0.7l-1.1-0.7l-1.1-0.8l-1-0.8l-1-0.9l-1.2-1.1l-1.1-1.1
		l-1.1-1.1l-0.5-0.6l-0.5-0.5l-0.5-0.6l-0.5-0.6l-0.9-1.1l-0.8-1.2l-0.4-0.6l-0.3-0.6l0.4,0.5l0.4,0.5l0.4,0.5l0.4,0.5l0.9,0.8
		l0.4,0.4l0.5,0.4l0.5,0.3l0.5,0.3l0.5,0.3l0.5,0.3l1,0.5l0.5,0.2l0.6,0.2l0.7,0.2l0.4,0.1l0.4,0h0.4l0.5,0l0.5,0l0.5,0l-0.9-0.8
		l-0.4-0.4l-0.4-0.4l-0.4-0.5l-0.3-0.4l-0.3-0.5l-0.3-0.4l-0.5-0.9l-0.5-0.9l-0.4-1l-0.2-0.5l-0.1-0.5l-0.1-0.2l-0.1-0.2l-0.1-0.2
		l-0.1-0.2l-0.2-0.3l-0.2-0.2l-0.2-0.2l-0.1-0.1l-0.1-0.1l-0.2-0.1l-0.2,0h-0.2l-0.2,0.1l-0.1,0l-0.1,0.1l-0.1,0.1l-0.1,0.1
		l-0.3,0.2l-0.3,0.3l-0.2,0.2l-0.1,0.2l-0.2,0.2l-0.1,0.2l-0.1-0.9l-0.1-0.9l-0.1-1l0-1l0-1v-1v-1l0-1l0-0.7l0-0.6l0-0.6l-0.1-0.6
		l-0.1-0.6l-0.1-0.5l-0.2-0.5l-0.2-0.4l-0.2,0.3l-0.3,0.3l-0.3,0.3l-0.3,0.3l-0.4,0.3l-0.5,0.3l-0.5,0.3l-0.2,0.1l-0.1,0.1l-0.3,0.2
		l-0.3,0.1l-0.2,0l-0.1,0l-0.1,0h-0.1l-0.1,0l-0.2,0h-0.1l-0.1,0l-0.2,0l-0.4,0l-0.4,0l-0.1,0h-0.1H276l-0.4,0l0.2,0.5l0,0.1
		l0.1,0.1l0.1,0.2l0.2,0.4l0,0.1l0,0l0,0.1l0.1,0.2l0.2,0.2l0.2,0.2l0.2,0.2l0.1,0.1l0,0l0.1,0l-0.5,0.1l-0.5,0.1l-0.5,0l-0.5,0
		l-0.5,0l-0.5-0.1l-0.5-0.1l-0.4-0.1l-0.4-0.2l-0.4-0.2l-0.4-0.2l-0.4-0.2l-0.4-0.3l-0.4-0.3l-0.4-0.3L270,214.8L270,214.8z
		 M254.2,238.1l-0.2,0.1l-0.2,0l-0.2,0l-0.2,0l-0.2-0.1l-0.2-0.1l-0.1-0.2l-0.1-0.2l-0.1-0.2l-0.1-0.3l-0.1-0.3l-0.1-0.3l-0.1-0.4
		l0-0.4l0-0.5l0-0.5v-0.7l0.1-0.7l0.1-0.7l0.1-0.6l0.1-0.7l0.2-0.6l0.2-0.6l0.2-0.6l0.2-0.6l0.3-0.5l0.3-0.5l0.4-0.5l0.3-0.5
		l0.4-0.4l0.4-0.4l0.5-0.4l0.6-0.5l0.3-0.2l0.3-0.2l0.2-0.2l0.3-0.1l0.2-0.1l0.2-0.1l0.2-0.1l0.2,0l0.2,0l0.2,0l0.2,0l0.2,0.1
		l0.2,0.1l0.2,0.1l0.1,0.1l0.2,0.2l0.1,0.2l0.1,0.2l0.1,0.2l0.1,0.3l0.1,0.3l0.1,0.3l0.1,0.3l0.1,0.4l0.1,0.4l0.1,0.4l0,0.4l0,0.5
		l0,0.5l0,0.5l0.1,1.4l0.1,1.4l0.2,1.4l0.3,1.4l0.3,1.3l0.2,0.6l0.2,0.7l0.2,0.6l0.2,0.6l0.5,1.3l0.2-0.4l0.2-0.4l0.3-0.5l0.3-0.5
		l0.2-0.4l0.1-0.2l0.1-0.1l0.2-0.2l0.1-0.1h0.1l0.2,0l0.2,0.2l0.2,0.2l0.1,0.2l0.1,0.2l0.6,1.2l0.7,1.1l0.7,1l0.4,0.5l0.4,0.5
		l0.8,0.9l0.9,0.8l0.9,0.7l0.5,0.3l0.5,0.3l0-1.3l0-0.6l0.1-0.6l0.2-1.2l0.2-1.1l0.3-1.1l0.3-1l0.4-1l0.5-0.9l0.5,0.4l0.5,0.5
		l0.5,0.5l0.5,0.6l0.8,1.1l0.4,0.5l0.4,0.6l0.3,0.6l0.4,0.6l0.3,0.6l0.3,0.6l0.3,0.6l0.3,0.7l0.5,1.3l0.2,0.7l0.2,0.7l0.4,1.5
		l0.2-0.2l0.2-0.2l0.2-0.2l0.2-0.1l0.2-0.1l0.3-0.1l0.3-0.1l0.3-0.1l0.3-0.1l0.3,0l0.3,0l0.4,0l0.3,0l0.4,0.1l0.4,0.1l0.4,0.1
		l0.6,0.2l0.6,0.2l1.2,0.4l0.6,0.2l0.6,0.3l1.2,0.6l1.2,0.6l0.6,0.3l0.6,0.3l1.1,0.7l1.1,0.8l0,0v0v-0.1v-0.1l0-0.2l0-0.1v-0.1
		l0-0.2l0-0.1V252l0-0.3l-0.1-0.4l0-0.2l0-0.2l1.4,0.8l0.7,0.4l0.8,0.5l0.8,0.5l0.8,0.5l1.6,1.2l0.3,0.2l0.3,0.2l0.2,0.2l0.3,0.2
		l0.2,0.2l0.2,0.2l0,0l0.1,0l0.1,0.1l0.2,0.2l0.1,0l0,0l0.1,0l0.2,0.1l0.2,0.1l0.2,0.1l0.1,0h0l0,0l0.1,0l0.1,0l0.1,0l0.1,0l0,0h0.1
		l0.1,0l0.1,0l0-0.1l0-0.1v-0.1l0,0l0-0.1l0-0.1v-0.1v-0.1l0-0.2l0-0.2l-0.1-0.2l0-0.2l-0.1-0.2l0-0.1l0-0.1v0l0.5,0.3l0.5,0.2
		l0.5,0.2l0.6,0.2l0.7,0.2l0.7,0.3l0.6,0.3l0.6,0.4l0.6,0.4l0.3,0.2l0.3,0.3l0.2,0.3l0.3,0.3l0.2,0.3l0.3,0.3l0,0l0,0.1l0.1,0.1
		l0.2,0.2l0.3,0.4l0.1,0.2l0.2,0.2l0.3,0.3l0.1,0.1l0.1,0.1l0.3,0.2l0.1,0.1l0.1,0.1l0.3,0.1h0.1l0.1,0h0.2l0.1,0l0.1,0l0.2-0.1
		l0.2-0.2l0-0.1l0.1,0l0.1-0.1l0.1-0.1l0-0.1l0,0l0,0l0.2-0.3l0.2-0.5l0.2-0.5l0.1-0.5l0.1-0.4l0.1-0.4l0-0.4l0-0.4l0-0.4l0.3,0.3
		l0.4,0.3l0.4,0.3l0.5,0.4l0.5,0.3l0.6,0.4l0.6,0.4l0.7,0.4l1.3,0.7l1.3,0.7l1.3,0.7l1.3,0.8l2.5,1.5l2.5,1.6l-0.7,0.7l-0.7,0.7
		l-0.7,0.6l-0.6,0.6l-0.5,0.4l-0.3,0.2L326,269l-0.5,0.3l-0.5,0.3l-0.6,0.3l-0.2,0.1l-0.1,0.1l-0.3,0.2l-0.6,0.2l-0.6,0.2l-0.6,0.2
		l-0.6,0.2l-0.6,0.2l-0.6,0.1l-0.3,0h-0.1l-0.1,0l-0.2,0l-0.6,0.1l-0.3,0l-0.3,0l-0.6,0h-1l-0.9,0l-1.8-0.1l-0.9-0.1l-0.9-0.1
		l-0.9-0.1l-0.9-0.2l-1.7-0.4l-1.7-0.5l-0.8-0.3l-0.8-0.3l-0.8-0.3l-0.8-0.3l-0.9-0.4l-0.9-0.4l-1.8-0.9l-0.9-0.5l-0.8-0.5l-0.8-0.5
		l-0.8-0.5l-1.6-1.1l-1.5-1.1l-0.8-0.6l-0.7-0.6l-0.7-0.6l-0.7-0.6l-0.3-0.3l-0.3-0.2l-0.5-0.4l-0.5-0.3l-0.2-0.1l-0.2-0.1l-0.2-0.1
		l-0.2-0.1l-0.2-0.1l-0.1,0l-0.2,0l-0.1,0l-0.2,0.1l-0.1,0.1l-0.1,0.1l-0.1,0.1l0,0.2l-0.1,0.2l0,0.2l0,0.4l0,0.5l0.1,0.6l0.1,0.7
		l0.1,0.4l0.1,0.4l-0.9-0.2l-0.9-0.3l-0.8-0.3l-0.8-0.3l-0.8-0.4l-0.8-0.4l-0.8-0.4l-0.7-0.4l-0.7-0.5l-0.7-0.5l-0.7-0.5l-0.6-0.5
		l-0.6-0.5l-0.6-0.5l-0.6-0.5l-0.5-0.6l-0.5-0.6l-0.5-0.6l-0.5-0.6l-0.4-0.6l-0.5-0.6l-0.4-0.5l-0.4-0.5l-0.4-0.4l-0.4-0.3l-0.4-0.2
		l-0.4-0.2l-0.3-0.1h-0.3l-0.3,0.1l-0.3,0.2l-0.2,0.3l-0.2,0.3l-0.2,0.4l-0.2,0.5l-0.2,0.6l-0.7-0.3l-0.7-0.4l-0.7-0.4l-0.6-0.4
		l-0.6-0.5l-0.6-0.5l-0.6-0.5l-0.6-0.5l-0.5-0.5l-0.4-0.5l-0.8-1l-0.4-0.5l-0.3-0.5l-0.3-0.5l-0.3-0.5l-0.3-0.6l-0.3-0.5l-0.5-1.1
		l-0.5-1.2l-0.2-0.6l-0.2-0.6l-0.2-0.5l-0.1-0.2l-0.1-0.2l-0.2-0.4l-0.2-0.3l-0.2-0.3l-0.2-0.2l-0.3-0.2l-0.3-0.2l-0.3-0.2l-0.3-0.1
		l-0.3-0.1l-0.3,0l-0.4,0l-0.4,0.1l-0.4,0.1L254.2,238.1L254.2,238.1z M224.5,206.4v0.4l0,0.4v0.8l0,0.8l-0.1,0.8l-0.1,0.8l-0.1,0.8
		l-0.2,0.8l-0.2,0.8l-0.5,1.8l-0.5,1.8l-0.5,1.8l-0.5,1.8l-0.6,1.7l-0.6,1.7l-0.7,1.7l-0.3,0.9l-0.3,0.9l0.6-0.2l0.7-0.2l0.6-0.2
		l0.2-0.1l0.2,0l0.3-0.1l0.3-0.1l0.2-0.1l0.2,0l0.6-0.2l0.3-0.1l0.2-0.1l0.2,0l0.6-0.2l0.6,5.4l0.7,5.5l1.5,12.1l0.2,1.3l0.2,1.3
		l0.2,1.3l0.3,1.3l0.3,1.2l0.3,1.3l0.4,1.2l0.4,1.2l0.2-0.1l0.2-0.1l0.1-0.1l0.1-0.1l0.1-0.1l0.1-0.1l0.2-0.2l0.1-0.1l0.1-0.1
		l0.1-0.2l0.1-0.2l0.4-0.8l0.5-0.7l0.5-0.6l0.5-0.5l0.5-0.4l0.5-0.3l0.5-0.2l0.5-0.1l0.5,0l0.5,0.1l0.5,0.2l0.5,0.2l0.5,0.3l0.5,0.4
		l0.6,0.5l0.6,0.6l1.8,2.1l1.9,2.1l1.8,2.1l1.9,2.2l0.3,0.3l0.3,0.3l0.3,0.3l0.3,0.3l0.2,0.2l0.3,0.2l0.2,0.2l0.1,0.1l0.1,0l0.1,0.1
		l0.2,0.1l0.2,0.1l0.2,0.1h0l0.1,0l0.1,0h0.1h0l0.1,0l0.2,0l0.1,0h0.1l0.2,0l0.1-0.1l0.2-0.1l0.1-0.1l0.1-0.1l0.2-0.1l0.1-0.2
		l0.1-0.2l0-0.1l0-0.1l0,0l0.1-0.2l0.1-0.3l0-0.2l0-0.1l0-0.1v-0.1l0-0.1l0-0.2l0.1-0.3l0-0.4l0.1-0.4l0-0.4l0.1-0.4l0.6,0.7
		l0.6,0.7l0.6,0.6l0.7,0.6l0.7,0.5l0.8,0.5l0.8,0.4l0.8,0.4V266v-1.3l1.5,0.4l1.5,0.4l1.5,0.4l1.4,0.4l1.3,0.4l0.6,0.2l0.6,0.2
		l0.6,0.1l0.6,0.1l0.6,0.1l0.3,0l0.2,0l0.2,0l0.6,0.1h0.1l0.2,0l0.3,0l0.6,0l0.6,0l0.3,0h0.3h0.6l1.1-0.1l-0.6-0.3l-0.6-0.3
		l-0.7-0.2l-0.8-0.2l-1.7-0.5l-1.6-0.6l-0.8-0.3l-0.8-0.3l-1.5-0.7l-0.8-0.4l-0.7-0.4l-0.7-0.4l-0.7-0.4l-0.7-0.5l-0.7-0.5l-0.7-0.5
		l-0.6-0.5l-0.1,0.3L258,261l-0.1,0.3l-0.1,0.2l0,0.1l0,0v0.1l-0.2,0.3l0,0l0,0l0,0.1l-0.1,0.2l-0.1,0.1l0,0l0,0l0,0.1l-0.2,0.2
		l-0.1-0.1l-0.1,0l-0.1-0.1l-0.2-0.2l-0.5-0.3l-0.5-0.3l-0.5-0.3l-0.5-0.4l-0.5-0.3l-0.6-0.4l-0.6-0.3l-0.5-0.3l-0.4-0.3l-0.4-0.3
		l-0.4-0.3l-0.4-0.3l-0.4-0.3l-0.7-0.7l-0.7-0.7l-0.6-0.7l-0.5-0.8l-0.3-0.4l-0.2-0.4l-0.4-0.6l-0.4-0.6l-0.4-0.5l-0.4-0.4l-0.4-0.3
		l-0.4-0.2l-0.4-0.1l-0.3,0l-0.4,0l-0.3,0.1l-0.3,0.2l-0.3,0.3l-0.3,0.4l-0.3,0.5l-0.3,0.5l-0.3,0.6l-0.5-0.7l-0.5-0.7l-0.5-0.7
		l-0.4-0.7l-0.8-1.6l-0.4-0.8l-0.4-0.8l-1-2.3l-1-2.2l-0.9-2.2l-0.9-2.1l-0.2,0.2l-0.2,0.2l-0.3,0.2l-0.3,0.2l-0.2,0.1l-0.2,0.1
		l-0.4,0.2l-0.5,0.2l-0.5,0.2l-0.2-0.6l-0.2-0.5l-0.2-0.6l-0.2-0.6l-0.2-0.6l-0.1-0.6l-0.2-1.3l-0.1-0.7l-0.1-0.7l-0.1-0.7l0-0.7
		l0-0.8l0-0.8l0.1-1.6l0.1-1.6l0.2-1.5l0.2-1.5l0.3-1.5l0.2-0.9l0.1-0.4l0.1-0.4l0-0.4l0-0.4l0-0.7l-0.1-0.4l0-0.3l-0.1-0.6
		l-0.2-0.5l-0.1-0.2l-0.1-0.2l-0.3-0.4l-0.2-0.2l-0.2-0.2l-0.5-0.3l-0.5-0.2l-0.6-0.2l-0.6-0.1l-0.4,0H227h-0.4l-0.4,0l0.7-0.9
		l0.8-1l0.8-1.1l0.8-1.1l0.2-0.3l0.2-0.3l0.2-0.3l0.2-0.3l0.4-0.6l0.2-0.3l0.2-0.3l0.3-0.7l0.2-0.3l0.2-0.3l0.3-0.7l0.3-0.7l0.3-0.7
		l0.3-0.7l0.3-0.7l0.3-0.7l0.2-0.8l0.2-0.8l0.2-0.8l0.2-0.8l0.3,0.3l0.3,0.3l0.3,0.2l0.4,0.2l0.4,0.2l0.4,0.1l0.4,0.1l0.5,0.1
		l-0.4,2.8l-0.3,2.8l-0.2,2.8l0,2.9l0,0.7l0,0.7l0.1,0.6l0.1,0.6l0.1,0.5l0.2,0.5l0.2,0.5l0.2,0.5l0.2,0.4l0.3,0.4l0.3,0.3l0.3,0.3
		l0.3,0.2l0.4,0.2l0.4,0.2l0.5,0.2l0.2,0.8l0.2,0.8l0.2,0.8l0.2,0.9l0.3,1.8l0.1,0.9l0.1,0.9l0.1,0.7l0.1,0.7l0.1,0.7l0.1,0.7
		l0.3,1.3l0.4,1.3l0.2,0.6l0.2,0.6l0.2,0.5l0.2,0.6l0.5,1l0.6,1l-0.1-0.5v-0.4v-0.4l0-0.4l0.1-0.7l0.1-0.4l0.1-0.3l0.3-0.8l0.3-0.7
		l0.2-0.7l0.1-0.3l0.1-0.3l0.1,0.8l0.1,0.8l0.2,0.8l0.2,0.8l0.2,0.7l0.3,0.8l0.2,0.4l0.2,0.4l0.4,0.8l0.9,1.5l0.5,0.7l0.5,0.7
		l0.5,0.7l0.5,0.7l1.1,1.3l1.1,1.2l0.6,0.6l0.6,0.6l0.6,0.5l0.6,0.5l1.3,1l0.4,0.3l0.2,0.2l0.2,0.2l0.9,0.6l0.8,0.6l0.8,0.6v-0.7
		v-0.6v-0.5V249v-0.5v-0.4v-0.4v-0.3l0.1,0.4l0.2,0.4l0.3,0.9l0.4,0.8l0.4,0.9l0.5,0.8l0.5,0.8l0.6,0.8l0.6,0.8l1.2,1.3l1.2,1.3
		l1.2,1.2l1.2,1.1l1.2,1.1l1.3,1l1.3,0.9l1.3,0.9l0.1-0.9l0.2-0.8l0.2-0.7l0.2-0.6l0.2,0.4l0.2,0.4l0.2,0.4l0.2,0.4l0.2,0.4l0.3,0.4
		l0.3,0.4l0.3,0.4l0.3,0.3l0.3,0.3l0.3,0.3l0.4,0.3l0.7,0.6l0.4,0.3l0.4,0.3l1,0.5l1,0.5l1,0.4l1.1,0.4l1.1,0.3l1.2,0.3l1.2,0.2
		l1.3,0.2l0-0.5l0.1-0.5l0.1-0.4l0.1-0.4l0.1-0.3l0.2-0.3l0.2-0.2l0.2-0.2l0.2-0.1l0.2-0.1l0.2,0l0.3,0.1l0.3,0.1l0.3,0.2l0.3,0.2
		l0.4,0.3l0.7,0.5l0.7,0.5l1.5,1l0.8,0.5l0.8,0.4l1.6,0.8l1.6,0.7l0.8,0.3l0.8,0.3l0.8,0.2l0.8,0.2l0.8,0.2l0.8,0.2l0.9,0.2l0.9,0.3
		l-0.7,0.1l-0.4,0l-0.2,0l-0.2,0h-0.2l-0.2,0l-0.4,0l-0.4,0l-0.4,0h-0.5l-0.5,0h-0.5l-0.5,0l-0.5,0h-0.5h-1l-1.3,0l-1.3,0l-1.3,0
		l-1.2,0.1l-1.2,0.1l-1.1,0.1l-1.1,0.1l-1.1,0.2v0.4l0,0.4l0.1,0.4l0.1,0.4l0.1,0.3l0.2,0.4l0.2,0.3l0.2,0.3h-0.7h-0.6l-0.6,0
		l-0.6-0.1l-0.6-0.1l-0.5-0.1l-0.5-0.2l-0.5-0.2l-1.6-0.6l-1.6-0.4l-1.6-0.3l-1.5-0.2l-1.6-0.1l-0.8,0l-0.8,0.1l-1.5,0.2l-1.5,0.3
		l0.3,0.3l0.3,0.3l0.1,0.1l0.1,0.2l0.1,0.1l0.1,0.2l0.2,0.2l0.2,0.2l0.2,0.2l0.1,0.1l0,0l0,0l0,0l-1,0.6l-0.9,0.7l-0.9,0.7l-0.9,0.8
		l-0.9,0.8l-0.8,0.8l-0.8,0.8l-0.8,0.9l-0.5,0.5l-0.5,0.5l-0.5,0.5l-0.5,0.5l-0.6,0.4l-0.6,0.4l-0.6,0.4l-0.6,0.4l-0.6,0.3l-0.3,0.2
		l-0.3,0.2l-0.3,0.1l-0.3,0.2l-0.7,0.3l-0.7,0.2l-0.7,0.2l-0.7,0.2l-0.4,0.1l-0.3,0.1l1,0.9l1,1l1,1.1l1,1.2l-2.1-0.1l-2-0.1
		l-1.3-0.1l-1.2-0.1l-1.2-0.2l-1.2-0.2l-1.2-0.2l-1.1-0.3l-1.1-0.3l-1.1-0.3l-1.1-0.4l-1-0.4l-1-0.5l-1-0.5l-1-0.5l-0.9-0.5
		l-0.9-0.6l-0.9-0.6l0.1,0.5l0.2,0.5l0.2,0.4l0.3,0.4l0.3,0.3l0.3,0.3l0.3,0.2l0.4,0.2l-1.2-0.1l-1.2-0.1l-1.1-0.2l-1.1-0.2
		l-1.1-0.3l-1.1-0.3l-1.1-0.3l-1.1-0.3l-1.1-0.4l-1-0.4l-1-0.4l-1-0.4l-1-0.5l-1-0.5l-2-1.1l-1-0.6l-0.9-0.6l-0.9-0.6l-0.9-0.6
		l-1.4-1.1l-0.7-0.5l-0.6-0.5l-0.6-0.5l-0.5-0.5l-0.5-0.5l-0.5-0.5l-0.5-0.6l-0.4-0.5l-0.4-0.6l-0.4-0.5l-0.4-0.6l-0.3-0.6l-0.5-1.1
		l-0.3,0.7l-0.3,0.7l-0.3,0.7l-0.3,0.6l-0.4,0.6l-0.3,0.5l-0.2,0.2l-0.2,0.3l-0.3,0.5l-0.4-0.7l-0.4-0.7l-0.6-1.4l-0.6-1.4l-0.5-1.4
		l-0.2-0.8l-0.2-0.7l-0.3-1.5l-0.1-0.8l-0.1-0.8l-0.1-1.6l-0.1-1.4l-0.1-1.3l-0.1-1.3l0-1.3l0-1.2v-1.2v-1.2l0-1.1l-0.7,0.4
		l-0.3,0.2l-0.3,0.2l-0.4,0.1l-0.3,0.1l-0.7,0.2l-0.8,0l-0.8,0l-0.4-0.1l-0.4-0.1l-0.1,0l-0.1,0h0l-0.2,0l-0.4-0.1l0.7-1.6l0.8-1.6
		l0.8-1.7l0.9-1.7l0.6-1.2l0.6-1.2l0.5-1.2l0.5-1.2l0.5-1.2l0.5-1.2l0.5-1.2l0.2-0.6l0.2-0.6l0.2-0.6l0.2-0.6l0.2-0.6l0.2-0.6
		l0.3-1.3l0.3-1.3l0.2-1.3l0.2-1.3l0.1-0.7l0.1-0.7l0.2-1.3l0.1-1.4l0.1-1.4l0.1-1.4l0.1-1.4l0-1.4v-1.4l0-1.4l-0.1-1.4l-0.1-2.8
		l-0.2-2.7l-0.1-1.3l-0.1-1.3l-0.2-1.3l-0.2-1.3l-0.2-1.4l-0.1-1.4l-0.1-1.3l0-1.3l0.1-1.3l0.2-1.3l0.2-1.3l0.3-1.2l0.4,0.2l0.4,0.3
		l0.8,0.7l0.8,0.8l0.8,0.9l0.4-0.7l0.4-0.6l0.4-0.6l0.5-0.5l0.5-0.5l0.5-0.5l0.5-0.5l0.6-0.4l0.4,1.4l0.3,1.5l0.3,1.5l0.2,1.6
		l0.2,1.5l0.1,1.6l0.1,1.6v1.7l0.4-0.1l0.4-0.1l0.4-0.1l0.4-0.1l0.2-0.1l0.2-0.1l0.4-0.1l0.7-0.3l0.7-0.3l0.3-0.2l0.3-0.2l0.3-0.2
		l0.2-0.1l0.1-0.1l0.1,0L224.5,206.4L224.5,206.4z M262.4,197l0.2-0.3l0.2-0.3l0.2-0.3l0.2-0.2l0.2-0.2l0.2-0.2l0.4-0.3l0.1-0.2
		l0.1-0.1l0.1-0.1l0.1,0l0.1,0h0.1l0,0l0,0.1l3.3-1.3l0.2-0.2l0.3-0.1l0.3-0.1l0.4-0.1l0.5-0.1l0.5,0l0.6,0l0.7,0.1V193l0.2,0.1
		l0.7,0.2l0.7,0.2l0.2,0l0.3,0.1l0.4,0.1l0.4,0.1l0.4,0.2l0.4,0.2l0.3,0.2l0.2,0.2l0.2,0.2l0.2,0.3l0.6,1.2l0.2,0.6l0.2,0.6l0.4,1.2
		l0.2,0.6l0.2,0.7l0.1,0.6l0.1,0.7l0.1,0.7l0,0.7v1.4l-0.1,1.5l0,0.2l0,0.1v0.1l0,0.1l0,0.1l-0.1,0.2l-0.1,0.1l0,0.1l-0.1,0.2
		l-0.1,0.1l0,0h0v0v0l-0.1,0.2l-0.3,0.3h0l0,0l0,0l-0.1,0.1l-0.2,0.2l-0.3,0.3l-0.3,0.3l-0.8,0.5l-0.4,0.2l-0.4,0.2l-0.5,0.1
		l-0.5,0.1l-0.5,0h-0.2h-0.2l-0.3,0l-0.2,0l-0.5-0.1l-0.3-0.1l-0.2-0.1l-0.5-0.2l-0.8-0.4l-0.7-0.3l-0.7-0.2l-0.7-0.2l-0.6-0.1
		l-0.6,0h-0.3l-0.2,0l-0.5,0.1l-0.5,0.2l-0.4,0.2l-0.4,0.3l-0.3,0.4l-0.3,0.4l-0.1,0.2l-0.1,0.3l-0.1,0.3l-0.1,0.3l-0.1,0.7
		l-0.1,0.5l-0.1,0.5l-0.2,0.4l-0.2,0.4l-0.2,0.4l-0.2,0.4l-0.1,0.2l-0.1,0.2l-0.1,0.2l-0.1,0.2l-0.3,0.3l-0.3,0.3L261,215l-0.1,0.2
		l-0.2,0.1l-0.1,0.2l-0.3,0.2L260,216l-0.4,0.2l-0.4,0.2l-0.8,0.4l-0.7,0.3l-0.7,0.2l-0.7,0.2l-0.7,0.1l-0.6,0.1h-0.6l-0.6-0.1
		l-0.6-0.2l-0.5-0.2l-0.5-0.3l-0.5-0.3l-0.5-0.4l-0.5-0.5l-0.5-0.5l-0.4-0.6l-0.1,0.7l-0.1,0.8l-0.1,0.7l-0.1,0.7l-0.1,0.7l-0.1,0.3
		l0,0.4l-0.1,0.3l-0.1,0.3l-0.1,0.7l-0.1,0.3l-0.1,0.3l-0.2,0.6l0,0.1l0,0.1l0,0.2l-0.1,0.3l-0.2,0.6l-0.2,0.5l-0.2,0.6l-0.2,0.5
		l-0.2,0.5l-0.8-2.4l-0.8-2.4l-0.8-2.3l-0.9-2.3l-0.4-1.2l-0.3-1.1l-0.2-1.1l0-1.1l0.1-1.1l0.2-1.1l0.1-0.5l0.2-0.5l0.4-1.1l0.2-0.5
		l0.3-0.5l0.3-0.4l0.4-0.4l0.4-0.4l0.5-0.4l0.5-0.4l0.6-0.3l0.1,0.1l0.5,0.2l0.2,0.1l0.2,0.1l0.5,0.1l0.2,0l0.2,0l0.2,0l0.2,0h0.3
		l0.2,0h0.2l0.1,0v0h0h0h0.1l0.2-0.1l2.1,0.2l2.8-0.9l0.7-0.6l0.7-0.5l0.6-0.5l0.6-0.5l0.5-0.5l0.5-0.4l0.4-0.4l0.3-0.3l1.1-1.3
		L262.4,197z"/>
	<path fill-rule="evenodd" clip-rule="evenodd" fill="#12100D" d="M235.5,203.1l0.4,0.2l0.5,0.2l0.5,0.1l0.5,0.1l-0.4,2.8l-0.3,2.8
		l-0.2,2.8l0,2.9l0,0.7l0,0.7l0.1,0.6l0.1,0.6l0.1,0.5l0.2,0.5l0.2,0.5l0.2,0.5l0.2,0.4l0.3,0.4l0.3,0.3l0.3,0.3l0.3,0.2l0.4,0.2
		l0.4,0.2l0.5,0.2l0.2,0.8l0.2,0.8l0.2,0.8l0.2,0.9l0.3,1.8l0.1,0.9l0.1,0.9l0.1,0.7l0.1,0.7l0.1,0.7l0.1,0.7l0.3,1.3l0.4,1.3
		l0.2,0.6l0.2,0.6l0.2,0.5l0.2,0.6l0.5,1l0.6,1l-0.1-0.5v-0.4v-0.4l0-0.4l0.1-0.7l0.1-0.4l0.1-0.3l0.3-0.8l0.3-0.7l0.2-0.7l0.1-0.3
		l0.1-0.3l0.1,0.8l0.1,0.8l0.2,0.8l0.2,0.8l0.2,0.7l0.3,0.8l0.2,0.4l0.2,0.4l0.4,0.8l0.9,1.5l0.5,0.7l0.5,0.7l0.5,0.7l0.5,0.7
		l1.1,1.3l1.1,1.2l0.6,0.6l0.6,0.6l0.6,0.5l0.6,0.5l1.3,1l0.4,0.3l0.2,0.2l0.2,0.2l0.9,0.6l0.8,0.6l0.8,0.6v-0.7v-0.6v-0.5V249v-0.5
		v-0.4v-0.4v-0.3l0.4,1.1l0.5,1.1l0.5,1.1l0.7,1.1l0.4,0.5l0.4,0.5l0.9,1.1l1.2,1.3l1.2,1.3l1.2,1.2l1.2,1.1l1.2,1.1l1.3,1l1.3,0.9
		l1.3,0.9l0.1-0.9l0.2-0.8l0.2-0.7l0.2-0.6l0.2,0.4l0.2,0.4l0.2,0.4l0.2,0.4l0.2,0.4l0.3,0.4l0.3,0.4l0.3,0.4l0.3,0.3l0.3,0.3
		l0.3,0.3l0.4,0.3l0.7,0.6l0.4,0.3l0.4,0.3l1,0.5l1,0.5l1,0.4l1.1,0.4l1.1,0.3l1.2,0.3l1.2,0.2l1.3,0.2l0-0.5l0.1-0.5l0.1-0.4
		l0.1-0.4l0.1-0.3l0.2-0.3l0.2-0.2l0.2-0.2l0.2-0.1l0.2-0.1l0.2,0l0.3,0.1l0.3,0.1l0.3,0.2l0.3,0.2l0.4,0.3l0.7,0.5l0.7,0.5l1.5,1
		l0.8,0.5l0.8,0.4l1.6,0.8l1.6,0.7l0.8,0.3l0.8,0.3l0.8,0.2l0.8,0.2l0.8,0.2l0.8,0.2l0.9,0.2l0.9,0.3l-0.7,0.1l-0.4,0l-0.2,0l-0.2,0
		h-0.2l-0.2,0l-0.4,0l-0.4,0l-0.4,0h-0.5l-0.5,0h-0.5l-0.5,0l-0.5,0h-0.5h-1l-1.3,0l-1.3,0l-1.3,0l-1.2,0.1l-1.2,0.1l-1.1,0.1
		l-1.1,0.1l-1.1,0.2v0.4l0,0.4l0.1,0.4l0.1,0.4l0.1,0.3l0.2,0.4l0.2,0.3l0.2,0.3h-0.7h-0.6l-0.6,0l-0.6-0.1l-0.6-0.1l-0.5-0.1
		l-0.5-0.2l-0.5-0.2l-1.6-0.6l-1.6-0.4l-1.6-0.3l-1.5-0.2l-1.6-0.1l-0.8,0l-0.8,0.1l-1.5,0.2l-1.5,0.3l0.3,0.3l0.3,0.3l0.1,0.1
		l0.1,0.2l0.1,0.1l0.1,0.2l0.2,0.2l0.2,0.2l0.2,0.2l0.1,0.1l0,0l0,0l0,0l-1,0.6l-0.9,0.7l-0.9,0.7l-0.9,0.8l-0.9,0.8l-0.8,0.8
		l-0.8,0.8l-0.8,0.9l-0.5,0.5l-0.5,0.5l-0.5,0.5l-0.5,0.5l-0.6,0.4l-0.6,0.4l-0.6,0.4l-0.6,0.4l-0.6,0.3l-0.3,0.2l-0.3,0.2l-0.3,0.1
		l-0.3,0.2l-0.7,0.3l-0.7,0.2l-0.7,0.2l-0.7,0.2l-0.4,0.1l-0.3,0.1l1,0.9l1,1l1,1.1l1,1.2l-2.1-0.1l-2-0.1l-1.3-0.1l-1.2-0.1
		l-1.2-0.2l-1.2-0.2l-1.2-0.2l-1.1-0.3l-1.1-0.3l-1.1-0.3l-1.1-0.4l-1-0.4l-1-0.5l-1-0.5l-1-0.5l-0.9-0.5l-0.9-0.6l-0.9-0.6l0.1,0.5
		l0.2,0.5l0.2,0.4l0.3,0.4l0.3,0.3l0.3,0.3l0.3,0.2l0.4,0.2l-1.2-0.1l-1.2-0.1l-1.1-0.2l-1.1-0.2l-1.1-0.3l-1.1-0.3l-1.1-0.3
		l-1.1-0.3l-1.1-0.4l-1-0.4l-1-0.4l-1-0.4l-1-0.5l-1-0.5l-2-1.1l-1-0.6l-0.9-0.6l-0.9-0.6l-0.9-0.6l-1.4-1.1l-0.7-0.5l-0.6-0.5
		l-0.6-0.5l-0.5-0.5l-0.5-0.5l-0.5-0.5l-0.5-0.6l-0.4-0.5l-0.4-0.6l-0.4-0.5l-0.4-0.6l-0.3-0.6l-0.5-1.1l-0.3,0.7l-0.3,0.7l-0.3,0.7
		l-0.3,0.6l-0.4,0.6l-0.3,0.5l-0.2,0.2l-0.2,0.3l-0.3,0.5l-0.4-0.7l-0.4-0.7l-0.6-1.4l-0.6-1.4l-0.5-1.4l-0.2-0.8l-0.2-0.7l-0.3-1.5
		l-0.1-0.8l-0.1-0.8l-0.1-1.6l-0.1-1.4l-0.1-1.3l-0.1-1.3l0-1.3l0-1.2v-1.2v-1.2l0-1.1l-0.7,0.4l-0.3,0.2l-0.3,0.2l-0.4,0.1
		l-0.3,0.1l-0.7,0.2l-0.8,0l-0.8,0l-0.4-0.1l-0.4-0.1l-0.1,0l-0.1,0h0l-0.2,0l-0.4-0.1l1.1-2.4l0.6-1.2l0.6-1.2l0.9-1.8l0.6-1.2
		l0.6-1.2l0.5-1.2l0.5-1.2l0.5-1.2l0.5-1.2l0.5-1.2l0.2-0.6l0.2-0.6l0.2-0.6l0.2-0.6l0.2-0.6l0.2-0.6l0.3-1.3l0.3-1.3l0.2-1.3
		l0.2-1.3l0.1-0.7l0.1-0.7l0.2-1.3l0.1-1.4l0.1-1.4l0.1-1.4l0.1-1.4l0-1.4v-1.4l0-1.4l-0.1-1.4l-0.1-2.8l-0.2-2.7l-0.1-1.3l-0.1-1.3
		l-0.2-1.3l-0.2-1.3l-0.2-1.4l-0.1-1.3l-0.1-1.3l0-1.3l0.1-1.3l0.2-1.3l0.2-1.3l0.3-1.3l0.4,0.2l0.4,0.3l0.8,0.7l0.8,0.8l0.8,0.9
		l0.4-0.7l0.4-0.6l0.4-0.6l0.5-0.5l0.5-0.5l0.5-0.5l0.5-0.5l0.6-0.4l0.4,1.6l0.4,1.6l0.3,1.7l0.2,1.7l0.1,1.4l0.1,1.4l0,1.4l0,1.5
		l0.4-0.1l0.4-0.1l0.4-0.1l0.4-0.1l0.2-0.1l0.2-0.1l0.4-0.1l0.7-0.3l0.7-0.3l0.3-0.2l0.3-0.2l0.3-0.2l0.2-0.1l0.1-0.1l0.1,0l0.6-0.4
		v0.4l0,0.4v0.8l0,0.8l-0.1,0.8l-0.1,0.8l-0.1,0.8l-0.2,0.8l-0.2,0.8l-0.5,1.8l-0.5,1.8l-0.5,1.8l-0.5,1.8l-0.6,1.7l-0.6,1.7
		l-0.7,1.7l-0.3,0.9l-0.3,0.9l0.6-0.2l0.7-0.2l0.6-0.2l0.2-0.1l0.2,0l0.3-0.1l0.3-0.1l0.2-0.1l0.2,0l0.6-0.2l0.3-0.1l0.2-0.1l0.2,0
		l0.6-0.2l0.6,5.4l0.7,5.5l1.5,12.1l0.1,0.9l0.2,0.9l0.2,0.9l0.2,0.9l0.4,1.6l0.2,0.8l0.2,0.8l0.5,1.6l0.5,1.6l0.2-0.1l0.2-0.1
		l0.1-0.1l0.1-0.1l0.1-0.1l0.1-0.1l0.2-0.2l0.1-0.1l0.1-0.1l0.1-0.2l0.1-0.2l0.4-0.8l0.5-0.7l0.5-0.6l0.5-0.5l0.5-0.4l0.5-0.3
		l0.5-0.2l0.5-0.1l0.5,0l0.5,0.1l0.5,0.2l0.5,0.2l0.5,0.3l0.5,0.4l0.6,0.5l0.6,0.6l1.8,2.1l1.9,2.1l1.8,2.1l1.9,2.2l0.3,0.3l0.3,0.3
		l0.3,0.3l0.3,0.3l0.2,0.2l0.3,0.2l0.2,0.2l0.1,0.1l0.1,0l0.1,0.1l0.2,0.1l0.2,0.1l0.2,0.1h0l0.1,0l0.1,0h0.1h0l0.1,0l0.2,0l0.1,0
		h0.1l0.2,0l0.1-0.1l0.2-0.1l0.1-0.1l0.1-0.1l0.2-0.1l0.1-0.2l0.1-0.2l0-0.1l0-0.1l0,0l0.1-0.2l0.1-0.3l0-0.2l0-0.1l0-0.1v-0.1
		l0-0.1l0-0.2l0.1-0.3l0-0.4l0.1-0.4l0-0.4l0.1-0.4l0.6,0.7l0.6,0.7l0.6,0.6l0.7,0.6l0.7,0.5l0.8,0.5l0.8,0.4l0.8,0.4V266v-1.3
		l1.5,0.4l1.5,0.4l1.5,0.4l1.4,0.4l1.3,0.4l0.6,0.2l0.6,0.2l0.6,0.1l0.6,0.1l0.6,0.1l0.3,0l0.2,0l0.2,0l0.6,0.1h0.1l0.2,0l0.3,0
		l0.6,0l0.6,0l0.3,0h0.3h0.6l1.1-0.1l-0.6-0.3l-0.6-0.3l-0.7-0.2l-0.8-0.2l-1.7-0.5l-1.6-0.6l-0.8-0.3l-0.8-0.3l-1.5-0.7l-0.8-0.4
		l-0.7-0.4l-0.7-0.4l-0.7-0.4l-0.7-0.5l-0.7-0.5l-0.7-0.5l-0.6-0.5l-0.1,0.3L258,261l-0.1,0.3l-0.1,0.2l0,0.1l0,0v0.1l-0.2,0.3l0,0
		l0,0l0,0.1l-0.1,0.2l-0.1,0.1l0,0l0,0l0,0.1l-0.2,0.2l-0.1-0.1l-0.1,0l-0.1-0.1l-0.2-0.2l-0.5-0.3l-0.5-0.3l-0.5-0.3l-0.5-0.4
		l-0.5-0.3l-0.6-0.4l-0.6-0.3l-0.5-0.3l-0.4-0.3l-0.4-0.3l-0.4-0.3l-0.4-0.3l-0.4-0.3l-0.7-0.7l-0.7-0.7l-0.6-0.7l-0.5-0.8l-0.3-0.4
		l-0.2-0.4l-0.3-0.5l-0.3-0.4l-0.3-0.4l-0.3-0.3l-0.3-0.3l-0.3-0.2l-0.3-0.2l-0.3-0.1h-1.4l-0.3,0.1l-0.2,0.2l-0.3,0.2l-0.2,0.3
		l-0.3,0.3l-0.2,0.4l-0.2,0.4l-0.2,0.5l-0.8-1.2l-0.4-0.6l-0.4-0.6l-0.5-0.9l-0.5-0.9l-0.5-0.9l-0.4-0.9l-1-2.3l-1-2.2l-0.9-2.2
		l-0.9-2.1l-0.2,0.2l-0.2,0.2l-0.3,0.2l-0.3,0.2l-0.2,0.1l-0.2,0.1l-0.4,0.2l-0.5,0.2l-0.5,0.2l-0.2-0.6l-0.2-0.5l-0.2-0.6l-0.2-0.6
		l-0.2-0.6l-0.1-0.6l-0.2-1.3l-0.1-0.7l-0.1-0.7l-0.1-0.7l0-0.7l0-0.8l0-0.8l0.1-1.6l0.1-1.6l0.2-1.5l0.2-1.5l0.3-1.5l0.2-0.9
		l0.1-0.4l0.1-0.4l0-0.4l0-0.4l0-0.7l-0.1-0.4l0-0.3l-0.1-0.6l-0.2-0.5l-0.1-0.2l-0.1-0.2l-0.3-0.4l-0.2-0.2l-0.2-0.2l-0.5-0.3
		l-0.5-0.2l-0.6-0.2l-0.6-0.1l-0.4,0H227h-0.4l-0.4,0l0.7-0.9l0.8-1l0.8-1.1l0.8-1.1l0.2-0.3l0.2-0.3l0.4-0.6l0.4-0.6l0.2-0.3
		l0.2-0.3l0.2-0.3l0.2-0.3l0.3-0.6l0.3-0.6l0.3-0.6l0.3-0.7l0.3-0.6l0.3-0.7l0.3-0.7l0.2-0.7l0.2-0.7l0.2-0.7l0.2-0.7l0.2-0.9
		l0.2,0.3l0.3,0.2L235.5,203.1L235.5,203.1z M290.9,150.9l0.2-0.5l-2.9-0.2l-2.8-0.1l-2.8-0.1l-2.7,0l-2.7,0l-2.7,0.1l-2.6,0.1
		l-2.6,0.2l0,0.3l0,0.4l0,0.3l0,0.4l0,0.7v0.3l0,0.3l0,0.3v0.3l0,0.6l0,0.3l0,0.3l-0.1,0.6l-0.1,0.5l-0.1,0.2l-0.1,0.3l-0.2,0.5
		l-0.2,0.5l-0.1,0.2l-0.1,0.2l-0.2,0.4l-0.2,0.4l-0.2,0.4l-0.9,0.1l-0.8,0.2l-0.8,0.2l-0.7,0.2l-0.7,0.2l-0.7,0.2l-0.6,0.3l-0.6,0.3
		l-0.6,0.3l-0.5,0.3l-0.5,0.4l-0.5,0.4l-0.5,0.4l-0.4,0.4l-0.4,0.5l-0.3,0.5l-0.4,0.5l-0.3,0.5l-0.4,0.4l-0.3,0.4l-0.4,0.4l-0.2,0.2
		l-0.1,0l0,0.1l-0.1,0.1l-0.1,0.1l-0.1,0l0,0.1l-0.2,0.2l-0.4,0.4l-0.4,0.3l-0.2,0.2l-0.2,0.2l-0.8,0.6l-0.9,0.5l-0.5,0.2l-0.4,0.2
		l-0.6,0.2l-0.6,0.2l-0.5,0.1l-0.5,0.1l-0.5,0l-0.5,0l-0.5-0.1l-0.4-0.1l-0.5-0.2l-0.4-0.2l-0.4-0.2l-0.4-0.3l-0.4-0.3l-0.3-0.4
		l-0.3-0.4l-0.3-0.5l0.3,0.7l0.3,0.7l0.2,0.7l0.1,0.8v0.8l-0.1,0.8l-0.1,0.4l-0.1,0.4l-0.2,0.9l0.5,0.1l0.6,0.1l0.5,0.1l0.5,0.2
		l0.5,0.2l0.5,0.2l1,0.4l1,0.4l0.9,0.5l0.9,0.5l0.9,0.6l0.1-0.3l0.1-0.3V176l0-0.3l-0.1-0.4l-0.2-0.3l-0.2-0.4l-0.2-0.3l1.3-0.1
		l1.4-0.1l1.3-0.1l0.7-0.1l0.7-0.1l0.6-0.1l0.7-0.1l1.3-0.2l1.3-0.2l1.3-0.2l0.6-0.2l0.6-0.2l0.6-0.2l0.3-0.1l0.3-0.1l0.6-0.2
		l0.6-0.2l0.3-0.1l0.3-0.1l0.5-0.2l0.5-0.3l0.5-0.3l0.5-0.3l0.5-0.3l0.4-0.4l0.4-0.3l0.4-0.4l0.4-0.4l1.3-1.6l1.4-1.5l1.4-1.5
		l1.4-1.4l0.3-0.3l0.4-0.3l0.3-0.2l0.4-0.2l0.3-0.2l0.3-0.1l0.3-0.1l0.3,0l0.3,0l0.3,0.1l0.3,0.1l0.3,0.2l0.3,0.2l0.3,0.2l0.3,0.3
		l0.3,0.3l0.3,0.3l0.2,0.3l0.2,0.3l0.2,0.3l0.2,0.3l0.2,0.3l0.1,0.3l0.1,0.3l0.1,0.7l0.2,0.7l0.2,0.6l0.1,0.3l0.2,0.3l-0.2,1.8
		l0.7-2.8l0.7-2.7l0.4-1.3l0.4-1.2l0.8-2.4l0.9-2.3l0.4-1.1l0.5-1l0.5-1l0.5-1L290.9,150.9L290.9,150.9z M256.3,203.2l0.3-0.2h-0.1
		l0.5-0.4l0.6-0.5l0.6-0.5l0.5-0.4l0.5-0.4l0.4-0.4l0.4-0.4l0.3-0.3l1.1-1.3l1-1.3l0.2-0.3l0.2-0.3l0.2-0.3l0.2-0.2l0.2-0.2l0.2-0.2
		l0.4-0.3l0.1-0.2l0.1-0.1l0.1-0.1l0.1,0l0.1,0h0.1l0,0l0,0.1l3.3-1.3l0.2-0.2l0.3-0.1l0.3-0.1l0.4-0.1l0.5-0.1l0.5,0l0.6,0l0.7,0.1
		V193l0.2,0.1l0.7,0.2l0.7,0.2l0.2,0l0.3,0.1l0.4,0.1l0.4,0.1l0.4,0.2l0.4,0.2l0.3,0.2l0.2,0.2l0.2,0.2l0.2,0.3l0.5,0.9l0.4,0.9
		l0.3,1l0.3,1l0.2,1l0.2,1.1l0.1,1.1l0.1,1.1h0l0,1.1l-0.1,1.2l0,0.2l0,0.1v0.1l0,0.1l0,0.1l-0.1,0.2l-0.1,0.1l0,0.1l-0.1,0.2
		l-0.1,0.1l0,0h0v0v0l-0.1,0.2l-0.3,0.3h0l0,0l0,0l-0.1,0.1l-0.2,0.2l-0.3,0.3l-0.3,0.3l-0.8,0.5l-0.4,0.2l-0.4,0.2l-0.5,0.1
		l-0.5,0.1l-0.5,0h-0.2h-0.2l-0.3,0l-0.2,0l-0.5-0.1l-0.3-0.1l-0.2-0.1l-0.5-0.2l-0.8-0.4l-0.7-0.3l-0.7-0.2l-0.7-0.2l-0.6-0.1
		l-0.6,0h-0.3l-0.2,0l-0.5,0.1l-0.5,0.2l-0.4,0.2l-0.4,0.3l-0.3,0.4l-0.3,0.4l-0.1,0.2l-0.1,0.3l-0.1,0.3l-0.1,0.3l-0.1,0.7
		l-0.1,0.5l-0.1,0.5l-0.2,0.4l-0.2,0.4l-0.2,0.4l-0.2,0.4l-0.1,0.2l-0.1,0.2l-0.1,0.2l-0.1,0.2l-0.3,0.3l-0.3,0.3L261,215l-0.1,0.2
		l-0.2,0.1l-0.1,0.2l-0.3,0.2L260,216l-0.4,0.2l-0.4,0.2l-0.8,0.4l-0.7,0.3l-0.7,0.2l-0.7,0.2l-0.7,0.1l-0.6,0.1h-0.6l-0.6-0.1
		l-0.6-0.2l-0.5-0.2l-0.5-0.3l-0.5-0.3l-0.5-0.4l-0.5-0.5l-0.5-0.5l-0.4-0.6l-0.1,0.7l-0.1,0.8l-0.1,0.7l-0.1,0.7l-0.1,0.7l-0.1,0.3
		l0,0.4l-0.1,0.3l-0.1,0.3l-0.1,0.7l-0.1,0.3l-0.1,0.3l-0.2,0.6l0,0.1l0,0.1l0,0.2l-0.1,0.3l-0.2,0.6l-0.2,0.5l-0.2,0.6l-0.2,0.5
		l-0.2,0.5l-0.8-2.4l-0.8-2.4l-0.8-2.3l-0.9-2.3l-0.4-1.2l-0.3-1.1l-0.2-1.1l0-1.1l0.1-1.1l0.2-1.1l0.1-0.5l0.2-0.5l0.4-1.1l0.2-0.5
		l0.3-0.5l0.3-0.4l0.4-0.4l0.4-0.4l0.5-0.4l0.5-0.4l0.6-0.3l-0.6,0l-0.5,0l-0.5,0l-0.5,0l-0.5-0.1l-0.4-0.1l-0.4-0.1l-0.4-0.1
		l-0.4-0.2l-0.3-0.2l-0.3-0.2l-0.3-0.2l-0.3-0.3l-0.2-0.3l-0.2-0.3l-0.2-0.3l-0.2-0.4l-0.2-0.4l-0.2-0.4l-0.1-0.4l-0.1-0.5l-0.1-0.5
		l-0.1-0.5l0-0.5l-0.1,0.2l-0.2,0.2l-0.2,0.2l-0.2,0.2l-0.2,0.1l-0.2,0.1l-0.3,0.1l-0.3,0.1l-0.7,0.1l-0.7,0.1l-0.6,0h-0.6l-0.6-0.1
		l-0.6-0.1l-0.6-0.1l-0.5-0.1l-0.5-0.2l-0.5-0.2l-0.5-0.2l-0.5-0.3l-0.5-0.3l-0.5-0.3l-0.4-0.4l-0.4-0.4l-0.5-0.5l-0.4-0.5l-0.4-0.5
		l-0.3-0.5l-0.3-0.5l-0.3-0.5l-0.2-0.5l-0.2-0.5l-0.2-0.6l-0.1-0.6l-0.1-0.6l-0.1-0.6l0-0.7l0-0.7l0-0.7l0.1-0.7l0.1-0.7l0.2-0.7
		l0.2-0.6l0.1-0.3l0.2-0.3l0.3-0.5l0.3-0.5l0.4-0.4l0.4-0.4l0.5-0.4l0.2-0.2l0.3-0.1l0.6-0.2l0.6-0.2l0.7-0.2l0.3-0.1l0.4,0l0.8-0.1
		l0.8,0l0.3,0l0.3,0l0.3-0.1l0.3-0.1l0.6-0.2l0.3-0.2l0.3-0.2l0.2-0.2l0.2-0.2l0.1-0.2l0.1-0.1l0-0.1l0.1-0.1l0.1-0.2l0.2-0.4
		l0.1-0.2l0.1-0.2l0.1-0.2l0.1-0.2V178v0l0,0l0-0.1l0.1-0.2l0.2-1.1l0.2-1.1l0.1-0.6l0.1-0.6l0.1-0.6l0-0.3l0-0.2l0-0.1l-0.1,0.2
		l0,0.1l0,0.1v0.1l-0.1,0.5l-0.2,0.4l-0.2,0.4l-0.2,0.4l-0.2,0.3l-0.2,0.3l-0.2,0.3l-0.3,0.2l-0.3,0.2l-0.3,0.2l-0.3,0.2l-0.3,0.1
		l-0.3,0.1l-0.4,0.1l-0.2,0l-0.2,0l-0.4,0l-0.4,0l-0.4,0l-0.3,0h-0.4l-0.3,0h-0.3l-0.3,0l-0.7-0.1l-0.6-0.1l-0.6-0.1l-0.6-0.1
		l-0.6-0.1l-0.5-0.1l-0.5-0.1l-0.5-0.1l-0.5-0.2l-0.5-0.2l-0.5-0.2l-0.4-0.2l-0.4-0.2l-0.4-0.2l-0.4-0.2l-0.3-0.2l-0.2,0.1l-0.1,0.2
		l-0.2,0.1l-0.1,0.2l-0.3,0.2l-0.3,0.3l-0.3,0.2l-0.3,0.2L222,177l-0.3,0.2l-0.4,0.2l-0.4,0.2l-0.4,0.1l-0.4,0.1l-0.2,0l-0.1,0
		l-0.1,0l-0.4,0.1l-0.2,0l-0.2,0l-0.2,0l-0.2,0l0-0.7l0-0.6l0-0.6v-0.6l0-0.6l0-0.5l-0.1-0.5l-0.1-0.5l-0.1-0.5l-0.1-0.4l-0.2-0.4
		l-0.2-0.4l-0.2-0.4l-0.2-0.3l-0.2-0.3l-0.2-0.3l-0.5,0.4l-0.4,0.4l-0.4,0.1l-0.4,0.1l-0.4,0l-0.4,0l-0.4,0h-0.3l-0.6-0.1l-0.5-0.2
		l-0.2-0.1l-0.2-0.1l-0.2-0.2l-0.2-0.2l-0.2-0.2l-0.1-0.2l-0.2-0.2l-0.1-0.2l-0.1-0.3l-0.1-0.3l-0.1-0.6l0-0.3l0-0.3v-0.4l0-0.4
		l0.1-0.8l0.1-0.5l0.1-0.4l0.1-0.5l0.2-0.5l-0.6-1.3l-0.6-1.3l-0.5-1.3l-0.5-1.3l-0.9-2.6l-0.4-1.3l-0.4-1.2l-1.5,3.1l-1.5,3.2
		l-1.6,3.7l-0.8,1.9l-0.8,2l-1,2.5l-1,2.5l-1,2.5l-1.1,2.6l-0.6,1.2l-0.5,1.3l-0.5,1.3l-0.5,1.3l-0.5,1.3l-0.4,1.4l-0.4,1.4
		l-0.4,1.4l-0.5,1.7l-0.4,1.7l-0.8,3.5l-0.4,1.7l-0.3,1.8l-0.3,1.8l-0.2,1.8l-0.1,0.5l-0.2,1.3l-0.2,1.4l-0.2,1.4l-0.1,1.4l-0.2,2.9
		l-0.1,1.4l0,1.5l-0.6,18.2l-0.1,3.7l0,3.7l0,3.7v3.8l0,3.9l0.1,3.9l0.2,3.9l0.1,1.4l0.2,1.4l0.2,1.4l0.2,1.4l0.2,1.3l0.3,1.4
		l0.4,1.3l0.4,1.3l0.3,0.8l0.3,0.9l0.7,1.7l0.3,0.8l0.4,0.8l0.8,1.6l0.4,0.8l0.4,0.8l0.9,1.6l0.5,0.8l0.5,0.8l0.5,0.7l0.6,0.8
		l0.7,0.9l0.4,0.5l0.4,0.5l0.9,0.9l0.4,0.5l0.5,0.5l0.9,0.9l0.5,0.4l0.5,0.5l1,0.9l1.1,0.9l1.3,1l1.4,0.9l1.4,0.9l1.4,0.8l1.4,0.8
		l1.4,0.7l1.4,0.6l1.4,0.6l1.6,0.5l1.7,0.5l1.7,0.5l1.7,0.4l1.8,0.4l1.8,0.4l1.8,0.3l1.9,0.3l1.6,0.2l1.6,0.2l1.6,0.1l1.6,0.1h1.6
		l1.6,0l1.6-0.1l1.6-0.1l-0.5-0.4l-0.4-0.5l-0.4-0.5l-0.3-0.5l-0.2-0.5l-0.1-0.3l-0.1-0.3l-0.1-0.6l0-0.3l0-0.3l1.7,0.2l1.7,0.2
		l1.7,0.1l1.8,0.1l1.8,0l1.9-0.1l1.9-0.2l1.9-0.2l1.4-0.2l1.4-0.2l1.4-0.3l1.4-0.3l0.2-0.1l0.2,0l0.3-0.1l0.7-0.2l0.2-0.1l0.2,0
		l0.3-0.1l0.7-0.2l0.6-0.2l0.2-0.1l0.2,0l0.3-0.1l1.3-0.4l1.3-0.5l1.3-0.5l1.3-0.5l1.3-0.5l1.3-0.5l1.3-0.5l1.2-0.6l1.2-0.6l2.7-1.2
		l2.8-1.1l2.8-1l2.9-0.9l1.6-0.4l1.6-0.3l1.6-0.2l1.6-0.1l1.6,0l1.6,0.1l1.6,0.2l1.6,0.2l-0.1-0.6l-0.1-0.3l0-0.3l-0.1-0.3l-0.1-0.3
		L300,283l-0.2-0.6l-0.1-0.3l-0.1-0.3l-0.1-0.3l-0.1-0.3l-0.3-0.6l0.4-0.3l0.5-0.3l0.5-0.3l0.5-0.2l0.5-0.2l0.5-0.2l0.6-0.2l0.6-0.1
		l0.6-0.1l0.6-0.1l0.6-0.1l0.7,0l0.7,0l0.7,0l0.7,0l0.8,0.1l1.8,0.2l1.8,0.2l1.8,0.2l1.8,0.3l3.5,0.5l3.5,0.6l0.8,0.2l0.8,0.2
		l0.8,0.2l0.8,0.2l0.8,0.2l0.8,0.2l1.6,0.5l1.5,0.5l1.5,0.6l1.5,0.7l0.7,0.3l0.7,0.4l-0.6-0.8l-0.7-0.7l-0.4-0.4l-0.3-0.3l-0.7-0.6
		l-0.8-0.6l-0.4-0.3l-0.4-0.2l-0.8-0.5l-0.4-0.2l-0.4-0.2l0.3-0.1l0.3,0l0.6-0.1l0.5-0.1l0.5-0.1l1.7-0.5l1.7-0.5l1.7-0.5l1.8-0.4
		l1.8-0.4l1.8-0.3l1.8-0.3l1.9-0.2l1.9-0.3l1.9-0.2l3.9-0.3l2-0.1l2-0.1l4-0.1l1.9,0l1.9,0.1l1.9,0.1l1.9,0.2l1.9,0.2l1.9,0.2
		l0.9,0.1l0.9,0.2l1.9,0.3l1.8,0.3l1.9,0.3l1.9,0.3l1.9,0.3l1.9,0.2l2,0.2l2,0.2l2,0.1l1.4,0l1.4,0.1l1.4,0l1.4,0l1.4,0l0.2,0h0.2
		h0.3h0.7l1.3-0.1l1.3,0l0.6-0.1l0.6-0.1l1.1-0.2l1.1-0.3l0.5-0.2l0.5-0.2l0.2-0.1l0.3-0.1l0.5-0.2l1-0.4l0.5-0.2l0.1-0.1l0.1,0
		l0.1,0l0.3-0.1l1-0.5l0.6-0.4l0.6-0.4l0.6-0.4l0.1-0.1l0.2-0.1l0.3-0.2l0.5-0.5l0.3-0.2l0.1-0.1l0.2-0.1l0.5-0.5l0.5-0.5l0.5-0.5
		l0.5-0.5l0.5-0.5l0.5-0.5l0.4-0.5l0.4-0.5l0.4-0.6l0.4-0.6l0.4-0.7l0.4-0.6l0.7-1.3l0.3-0.6l0.3-0.6l0.3-0.6l0.3-0.6l0.2-0.6
		l0.2-0.6l0.4-1.1l0.3-1.1l0.1-0.5l0.1-0.5l-1,0.6l-0.9,0.6l-0.8,0.6l-0.8,0.7l-2,1.5l-2,1.5l-0.5,0.4l-0.5,0.4l-1,0.8l-1.1,0.7
		l-1,0.8l-2.2,1.4l-2.2,1.4l-0.6,0.3l-0.6,0.3l-0.6,0.3l-0.6,0.3l-0.7,0.3l-0.6,0.2l-0.7,0.2l-0.6,0.2l-0.7,0.2l-0.7,0.2l-0.2,0
		l-0.2,0l-0.3,0.1l-0.7,0.1l-0.7,0.1l-0.7,0.1l-1.4,0.1h-1.5l-1.5,0l-1.4-0.1l-1.4-0.1l-1.4-0.1l-1.3-0.1l-1.3-0.2l-1.3-0.2
		l-0.6-0.2l-0.6-0.2l-1.2-0.4l-0.6-0.3l-0.5-0.3l-0.5-0.3l-0.5-0.3l-0.5-0.4l-0.5-0.4l-0.9-0.8l-0.4-0.5l-0.4-0.5l-0.4-0.5l-0.4-0.5
		l-0.1-0.3l-0.2-0.2l-1.9,0.3h-0.1l-0.1,0l-0.2,0l-0.5,0.1l-0.9,0.1l-0.9,0.1l-0.9,0.1l-0.9,0.1l-0.9,0.1l-0.5,0l-0.5,0l-0.9,0.1
		l-0.5,0l-0.5,0l-0.9,0.1l-1,0l-1,0l-1.9,0l-1.6,0l-1.6,0l-1.6-0.1l-1.6-0.1l-1.6-0.1l-1.5-0.2l-1.5-0.2l-1.5-0.2l-1.2,0l-1.2-0.1
		l-1.2-0.2l-1.2-0.2l-1.2-0.3l-1.1-0.3l-1.1-0.4l-1.1-0.4l-1.2-0.5l-0.2-0.1l-1.6-0.5l-1.6-0.5l-1.6-0.6l-1.6-0.6l-1.6-0.7l-1.6-0.7
		l-1.5-0.7l-1.5-0.7l-1.5-0.8l-1.5-0.8l-1.5-0.9l-1.5-0.9l-1.5-0.9l-1.4-1l-1.4-1l-1.4-1l-1.2-0.9l-1.2-0.9l-2.3-1.9l-1.1-1l-1.1-1
		l-1.1-1.1l-1.1-1.1l-0.7-0.7l-1.7-1.8l-0.8-0.9l-0.8-0.9l-1.6-1.8l-0.8-0.9l-0.7-0.9l-1.1-1.4l-1-1.4l-1-1.4l-0.9-1.4l-0.9-1.4
		l-0.9-1.4l-0.8-1.4l-0.8-1.4l-0.8-1.5l-0.7-1.5l-0.7-1.5l-0.6-1.5l-0.6-1.5l-0.6-1.5l-0.5-1.6l-0.5-1.6l-0.4-1.2l-0.5-0.3l-0.4-0.3
		l-0.4-0.3l-0.4-0.4l-0.4-0.4l-0.3-0.4l-0.3-0.4l-0.3-0.5l-0.3-0.5l-0.3-0.5l-0.3-0.5l-0.2-0.5l-0.2-0.6l-0.2-0.6l-0.2-0.6l-0.1-0.6
		l-0.1-0.6h0l-0.2-1.3l-0.2-1.2l-0.2-1.2l-0.1-1.2l-0.1-1.3l-0.1-1.3l-0.1-1.3l0-1.3l0-0.4l-0.1-0.4l-0.1-0.4l-0.1-0.3l-0.2-0.3
		l-0.2-0.3l-0.2-0.3l-0.3-0.2l-0.3-0.3l-0.4-0.2l-0.4-0.2l-0.4-0.2l-0.5-0.2l-0.5-0.1l-0.5-0.1l-0.5-0.1l0.1-0.1l0.1-0.1l0.2-0.2
		l0.1-0.1l0.1-0.1l0.2-0.2l0.1-0.2l0.1-0.1l0.2-0.3l0.1-0.3l0.1-0.2l0.1-0.1l0-0.2l0.1-0.2l0-0.2l0.1-0.2l0.1-0.3l0-0.2l0.1-0.2
		l0-0.4l0-0.2l0-0.2l0-0.4l0.1-0.4l0-0.6v-0.5l0-0.5l0-0.5l-0.1-0.5l-0.1-0.4l-0.1-0.4l-0.2-0.3l-0.2-0.3l-0.2-0.3l-0.2-0.3
		l-0.2-0.2l-0.3-0.2l-0.3-0.2l-0.3-0.1l-0.3-0.1l-0.4-0.1l-0.4,0l-0.4,0l-0.4,0l-0.5,0l-0.5,0.1l-0.5,0.1l-0.5,0.1v0.1l0.5,0.3
		l0.5,0.3l0.5,0.3l0.4,0.4l0.4,0.4l0.3,0.4l0.2,0.4l0.2,0.4l0.1,0.4l0.1,0.5l0,0.5l0,0.5l-0.1,0.5l-0.1,0.5l-0.2,0.5l-0.2,0.6
		l-0.4,0.7l-0.4,0.8l-0.5,0.7l-0.5,0.7l-0.6,0.6l-0.2,0.2l-0.1,0.1l0,0l0,0v0l-0.3,0.3h-0.2l-0.3,0.2l-0.1,0l0,0l0,0l-0.1,0.1
		l-0.5,0.4l-0.5,0.3l-0.5,0.3l-0.6,0.3l-0.6,0.2l-0.6,0.2l-0.6,0.2l-0.6,0.1l-0.6,0.2l-0.6,0.2l-0.5,0.3l-0.5,0.3l-0.5,0.3l-0.5,0.4
		l-0.4,0.4l-0.8,0.9l-0.7,0.9l-0.7,0.9l-0.7,0.9l-0.2,0.3l-0.2,0.3l-0.6,0.5l-0.6,0.5l-0.7,0.5l-0.7,0.6l-0.5,0.3l-0.5,0.3h-0.2
		l-0.1,0l-0.2,0l-0.6,0l-0.6,0l-0.7,0l-0.3,0l-0.3,0l-0.6-0.1l-0.5-0.2l-0.3-0.2L250,201l-0.3-0.2l-0.2-0.2l-0.2-0.2l-0.2-0.2
		l-0.2-0.3l-0.1-0.3l-0.2-0.3l-0.1-0.3l-0.1-0.3l-0.1-0.3l-0.1-0.4l0-0.4l0-0.4l0-0.4V196l0-0.6l0-0.3l0-0.3l-0.1-0.5l-0.1-0.5
		l-0.1-0.5l-0.1-0.4l-0.2-0.4l-0.2-0.4l-0.1-0.2l-0.1-0.1l-0.1-0.2l-0.1-0.1l-0.2-0.2l-0.2-0.1l-0.1-0.1l-0.3-0.1l-0.3-0.1l-0.3,0
		l-0.1,1.5l0,0.7v0.7l0,0.7l0,0.7l0,0.7l0.1,0.7l0,0.6l0.1,0.6l0.2,1.2l0.2,1.1l0.3,1.1l0.2,0.6l0.2,0.5l0.1,0.2l0.2,0.2l0.3,0.4
		h0.2l0.1,0.1l0.3,0.2l0.1,0.1l0.5,0.3l0.2,0.1l0.3,0.1l0.5,0.1l0.2,0l0.2,0l0.2,0l0.2,0h0.3l0.2,0h0.2l0.1,0v0h0h0h0.1l0.3-0.1
		l2.2,0.3L256.3,203.2L256.3,203.2z M243.8,177.8l0.7,1.2l0.6,1.2l0.6,1.2l0.5,1.2l0.4,1.2l0.4,1.2l0.3,1.2l0.3,1.3v0.4v0.4l0,0.3
		l0,0.1l0,0.2l-0.1,0.2l-0.1,0.2l-0.1,0.1l0,0h0v0v0l-0.2,0.1l-0.5,0.1l-0.4,0.1l-0.2,0l-0.2,0l-0.2,0h-0.1l-0.2-0.1l-0.2-0.1
		l-0.1-0.1l0-0.1l0-0.1v-0.1l-0.1-1.5l-0.1-1.4l-0.3-2.9l-0.2-1.4l-0.2-1.4L243.8,177.8L243.8,177.8z M295.3,252.9l-0.7-0.5
		l-0.7-0.5l-1-0.6l-1-0.5l-1-0.5l-1-0.4l-1-0.4l-1-0.4l-1-0.4l-1-0.3l-0.4-0.1l-0.4-0.1l-0.4-0.1l-0.3,0l-0.4,0l-0.3,0l-0.3,0
		l-0.3,0.1l-0.3,0.1l-0.3,0.1l-0.3,0.1l-0.2,0.1l-0.2,0.1l-0.2,0.2l-0.2,0.2l-0.2,0.2l-0.4-1.5l-0.2-0.7l-0.2-0.7l-0.5-1.3l-0.3-0.7
		l-0.3-0.6l-0.3-0.6l-0.3-0.6l-0.4-0.6l-0.3-0.6l-0.4-0.6l-0.4-0.5l-0.8-1.1l-0.5-0.6l-0.5-0.5l-0.5-0.5l-0.5-0.4l-0.5,0.9l-0.4,1
		l-0.3,1l-0.3,1.1l-0.2,1.1l-0.2,1.2l-0.1,0.6l0,0.6l0,1.3l-0.5-0.3l-0.5-0.3l-0.9-0.7l-0.9-0.8l-0.8-0.9l-0.4-0.5l-0.4-0.5l-0.7-1
		l-0.7-1.1l-0.6-1.2l-0.1-0.2l-0.1-0.2l-0.2-0.2l-0.2-0.2l-0.2,0h-0.1l-0.1,0.1l-0.2,0.2l-0.1,0.1l-0.1,0.2l-0.2,0.4l-0.3,0.5
		l-0.3,0.5l-0.2,0.4l-0.2,0.4l-0.5-1.3l-0.2-0.6l-0.2-0.6l-0.2-0.7l-0.2-0.6l-0.3-1.3l-0.3-1.4l-0.2-1.4l-0.1-1.4l-0.1-1.4l0-0.5
		l0-0.5l0-0.5l0-0.4l-0.1-0.4l-0.1-0.4l-0.1-0.4l-0.1-0.3l-0.1-0.3l-0.1-0.3l-0.1-0.3l-0.1-0.2l-0.1-0.2l-0.1-0.2l-0.2-0.2l-0.1-0.1
		l-0.2-0.1l-0.2-0.1l-0.2-0.1l-0.2,0l-0.2,0l-0.2,0l-0.2,0l-0.2,0.1l-0.2,0.1l-0.2,0.1l-0.3,0.1l-0.2,0.2l-0.3,0.2l-0.3,0.2
		l-0.6,0.5l-0.5,0.4l-0.4,0.4l-0.4,0.4l-0.3,0.5l-0.4,0.5l-0.3,0.5l-0.3,0.5l-0.2,0.6L253,230l-0.2,0.6l-0.2,0.6l-0.1,0.7l-0.1,0.6
		l-0.1,0.7l-0.1,0.7v0.7l0,0.5l0,0.5l0,0.4l0.1,0.4l0.1,0.3l0.1,0.3l0.1,0.3l0.1,0.2l0.1,0.2l0.1,0.2l0.2,0.1l0.2,0.1l0.2,0l0.2,0
		l0.2,0l0.2-0.1l0.4-0.1l0.4-0.1l0.4-0.1l0.4,0l0.3,0l0.3,0.1l0.3,0.1l0.3,0.2l0.3,0.2l0.3,0.2l0.2,0.2l0.2,0.3l0.2,0.3l0.2,0.4
		l0.1,0.2l0.1,0.2l0.2,0.5l0.2,0.6l0.2,0.6l0.5,1.2l0.5,1.1l0.3,0.5l0.3,0.6l0.3,0.5l0.3,0.5l0.3,0.5l0.4,0.5l0.8,1l0.4,0.5l0.5,0.5
		l0.8,0.7l0.8,0.7l0.8,0.6l0.9,0.6l0.9,0.5l0.5,0.2l0.5,0.2l0.2-0.5l0.2-0.4l0.1-0.3l0.2-0.3l0.2-0.2l0.2-0.2l0.2-0.2l0.2-0.1
		l0.2-0.1l0.2,0l0.2,0l0.2,0.1l0.2,0.1l0.3,0.2l0.3,0.2l0.3,0.2l0.3,0.3l0.3,0.3l0.5,0.6l0.3,0.4l0.3,0.4l0.4,0.6l0.5,0.6l0.5,0.6
		l0.5,0.6l0.5,0.6l0.6,0.5l0.6,0.5l0.6,0.5l0.6,0.5l0.7,0.5l0.7,0.5l0.7,0.5l0.7,0.4l0.8,0.4l0.8,0.4l0.8,0.4l0.8,0.3l0.8,0.3
		l0.9,0.3l0.9,0.2l-0.1-0.4l-0.1-0.4l-0.1-0.7l-0.1-0.6l0-0.5l0-0.4l0-0.2l0.1-0.2l0-0.2l0.1-0.1l0.1-0.1l0.1-0.1l0.2-0.1l0.1,0
		l0.2,0l0.1,0l0.2,0.1l0.2,0.1l0.2,0.1l0.2,0.1l0.2,0.1l0.5,0.3l0.5,0.4l0.3,0.2l0.3,0.3l0.7,0.6l0.7,0.6l0.7,0.6l0.8,0.6l1.5,1.1
		l1.6,1.1l0.8,0.5l0.8,0.5l0.8,0.5l0.9,0.5l1.8,0.9l0.9,0.4l0.9,0.4l0.8,0.3l0.8,0.3l0.8,0.3l0.8,0.3l1.7,0.5l1.7,0.4l0.9,0.2
		l0.9,0.1l0.9,0.1l0.9,0.1l1.8,0.1l0.9,0h1l0.6,0l0.3,0l0.3,0l0.6-0.1l0.2,0l0.1,0h0.1l0.3,0l0.6-0.1l0.6-0.2l0.6-0.2l0.6-0.2
		l0.6-0.2l0.6-0.2l0.3-0.2l0.1-0.1l0.2-0.1l0.6-0.3l0.5-0.3l0.5-0.3l0.2-0.2l0.3-0.2l0.5-0.4l0.6-0.6l0.7-0.6l0.7-0.7l0.7-0.7
		l-2.5-1.6l-2.5-1.5l-1.3-0.8l-1.3-0.7l-1.3-0.7l-1.3-0.7l-0.7-0.4l-0.6-0.4l-0.6-0.4l-0.5-0.3l-0.5-0.4l-0.4-0.3l-0.4-0.3l-0.3-0.3
		l0,0.4l0,0.4l0,0.4l-0.1,0.4l-0.1,0.4l-0.1,0.5l-0.2,0.5l-0.2,0.5l-0.2,0.3l0,0l0,0l0,0.1l-0.1,0.1l-0.1,0.1l-0.1,0l0,0.1l-0.2,0.2
		l-0.2,0.1l-0.1,0l-0.1,0h-0.2l-0.1,0h-0.1l-0.3-0.1l-0.1-0.1l-0.1-0.1l-0.3-0.2l-0.1-0.1l-0.1-0.1l-0.3-0.3l-0.2-0.2l-0.1-0.2
		l-0.3-0.4l-0.2-0.2l-0.1-0.1l0-0.1l0,0l-0.3-0.3l-0.2-0.3l-0.3-0.3l-0.2-0.3l-0.3-0.3l-0.3-0.2l-0.6-0.4l-0.6-0.4l-0.6-0.3
		l-0.7-0.3l-0.7-0.2l-0.6-0.2l-0.5-0.2l-0.5-0.2l-0.5-0.3v0l0,0.1l0,0.1l0.1,0.2l0,0.2l0.1,0.2l0,0.2l0,0.2v0.1v0.1l0,0.1l0,0.1l0,0
		v0.1l0,0.1l0,0.1l-0.1,0l-0.1,0h-0.1l0,0l-0.1,0l-0.1,0l-0.1,0l-0.1,0l0,0h0l-0.1,0l-0.2-0.1l-0.2-0.1l-0.2-0.1l-0.1,0l0,0l-0.1,0
		l-0.2-0.2l-0.1-0.1l-0.1,0l0,0l-0.2-0.2l-0.2-0.2l-0.3-0.2l-0.2-0.2l-0.3-0.2l-0.3-0.2l-1.1-0.8l-1-0.7l-1-0.7l-1-0.6l-1-0.6
		l-0.9-0.5l0,0.3v0.1l0,0.1l0,0.2l0,0.3l0,0.1l0,0.1l0,0.3l0,0.3v0.1v0v0l0,0L295.3,252.9L295.3,252.9L295.3,252.9z M305,252
		l1.3,0.4l-0.2-0.4l-0.5-0.8l-0.5-0.8l-1-1.5l-1-1.4l-0.5-0.7l-0.5-0.6l-0.7-0.8l-0.7-0.7l-0.7-0.7l-0.7-0.6l-0.8-0.5l-0.4-0.3
		l-0.4-0.2l-0.8-0.4l-0.8-0.4L295,241l-1.1-0.6l-1.1-0.7l-1.1-0.7l-1.1-0.7l-1.1-0.8l-1-0.8l-1-0.9l-1.2-1.1l-1.1-1.1l-1.1-1.1
		l-0.5-0.6l-0.5-0.5l-0.5-0.6l-0.5-0.6l-0.9-1.1l-0.8-1.2l-0.4-0.6l-0.3-0.6l0.4,0.5l0.4,0.5l0.4,0.5l0.4,0.5l0.9,0.8l0.4,0.4
		l0.5,0.4l0.5,0.3l0.5,0.3l0.5,0.3l0.5,0.3l1,0.5l0.5,0.2l0.6,0.2l0.7,0.2l0.4,0.1l0.4,0h0.4l0.5,0l0.5,0l0.5,0l-0.9-0.8l-0.4-0.4
		l-0.4-0.4l-0.4-0.5l-0.3-0.4l-0.3-0.5l-0.3-0.4l-0.5-0.9l-0.5-0.9l-0.4-1l-0.2-0.5l-0.1-0.5l-0.1-0.2l-0.1-0.2l-0.1-0.2l-0.1-0.2
		l-0.2-0.3l-0.2-0.2l-0.2-0.2l-0.1-0.1l-0.1-0.1l-0.2-0.1l-0.2,0h-0.2l-0.2,0.1l-0.1,0l-0.1,0.1l-0.1,0.1l-0.1,0.1l-0.3,0.2
		l-0.3,0.3l-0.2,0.2l-0.1,0.2l-0.2,0.2l-0.1,0.2l-0.1-0.9l-0.1-0.9l-0.1-1l0-1l0-1v-1v-1l0-1l0-0.7l0-0.6l0-0.6l-0.1-0.6l-0.1-0.6
		l-0.1-0.5l-0.2-0.5l-0.2-0.4l-0.2,0.3l-0.3,0.3l-0.3,0.3l-0.3,0.3l-0.4,0.3l-0.5,0.3l-0.5,0.3l-0.2,0.1l-0.1,0.1l-0.3,0.2l-0.3,0.1
		l-0.2,0l-0.1,0l-0.1,0h-0.1l-0.1,0l-0.2,0h-0.1l-0.1,0l-0.2,0l-0.4,0l-0.4,0l-0.1,0h-0.1H276l-0.4,0l0.2,0.5l0,0.1l0.1,0.1l0.1,0.2
		l0.2,0.4l0,0.1l0,0l0,0.1l0.1,0.2l0.2,0.2l0.2,0.2l0.2,0.2l0.1,0.1l0,0l0.1,0l-0.5,0.1l-0.5,0.1l-0.5,0l-0.5,0l-0.5,0l-0.5-0.1
		l-0.5-0.1l-0.4-0.1l-0.4-0.2l-0.4-0.2l-0.4-0.2l-0.4-0.2l-0.4-0.3l-0.4-0.3l-0.4-0.3l-0.3-0.4l-0.2-0.2l-0.2-0.2l-0.5-0.4l-0.3-0.2
		l-0.3-0.2l-0.4-0.2l-0.4-0.2l-0.7,1.2l-0.6,1.2l-0.5,1.2l-0.4,1.3l-0.3,1.3l-0.2,1.3l-0.2,1.4l-0.1,1.4l0,0.7v0.7l0,0.7l0.1,0.6
		l0.1,0.6l0.1,0.6l0.1,0.6l0.2,0.6l0.2,0.5l0.2,0.5l0.2,0.5l0.3,0.5l0.3,0.4l0.3,0.4l0.3,0.4l0.4,0.4l0.3-0.5l0.4-0.5l0.4-0.5
		l0.5-0.5l0.5-0.5l0.6-0.5l0.7-0.5l0.8-0.4l0.6-0.3l0.7-0.3l0.7-0.2l0.7-0.1l-0.1,0.5l0,0.5l0,0.5l0,0.5l0,0.5l0.1,0.5l0.1,0.5
		l0.1,0.5l0.1,0.4l0.2,0.4l0.2,0.4l0.2,0.4l0.2,0.4l0.3,0.4l0.3,0.4l0.3,0.4l0.9,0.9l0.9,0.9l0.9,0.9l0.9,0.9l0.9,0.8l0.9,0.8
		l0.9,0.7l0.9,0.7l0.1-0.5l0.1-0.5l0.1-0.4l0.1-0.4l0-0.4l0-0.3l0-0.3l0-0.2l0.6,0.7l0.6,0.7l0.6,0.8l0.7,0.8l0.7,0.8l0.7,0.9
		l0.7,0.9l0.7,1l0.4,0.4l0.4,0.4l0.2,0.2l0.2,0.2l0.4,0.3l0.2,0.1l0.1,0l0,0l0.1,0l0.3,0.2l0.3,0.1l0.2,0h0.1h0l0.1,0l0.3-0.1l0.1,0
		l0.1,0l0.2,0l0.1-0.1l0.1-0.1l0.3-0.2l0.1-0.2l0.1-0.1l0.2-0.3l0-0.1l0-0.1l0,0l0.1-0.2l0.1-0.2l0.1-0.2l0.7,0.7l0.7,0.7l0.8,0.7
		l0.4,0.3l0.4,0.3l0.9,0.6l0.9,0.6l1,0.6l0.5,0.3l0.5,0.3l1.1,0.5l1.1,0.5l1.1,0.4L305,252z"/>
	<polygon fill-rule="evenodd" clip-rule="evenodd" fill="#12100D" points="283.1,71.9 283.2,70.8 283.2,70.2 283.2,69.9 283.2,69.7 
		283.2,69.6 283.2,68.4 283.2,67.1 283.2,65.9 283.1,64.6 283,63.3 283,62.6 282.9,61.9 282.8,60.6 282.7,59.2 282.5,57.8 
		282.3,56.3 282.2,55.6 282.1,54.9 282,54.1 281.8,53.4 281.6,51.9 281.4,51.1 281.3,50.4 281,48.8 278.1,51 275.2,53.3 272.3,55.7 
		269.5,58.3 266.7,60.9 263.9,63.7 261.2,66.6 258.5,69.6 257.2,71.2 255.8,72.7 253.2,76 250.6,79.3 248,82.8 245.5,86.4 243,90.1 
		240.6,93.9 238.1,97.8 239.4,97.5 240.8,97.1 242.1,96.8 243.5,96.6 244.9,96.3 246.4,96.1 247.8,96 249.3,95.8 250.8,95.7 
		252.3,95.6 253.9,95.6 255.5,95.6 257,95.6 258.7,95.6 260.3,95.7 262,95.9 262.2,95.8 262.4,95.9 263.5,93.9 264.6,92.1 
		265.7,90.3 266.9,88.6 268.1,86.9 269.4,85.3 270.6,83.7 271.9,82.2 273.2,80.7 274.5,79.3 275.9,77.9 277.3,76.6 278.6,75.3 
		280.1,74.1 281.5,73 	"/>
	<polygon fill-rule="evenodd" clip-rule="evenodd" fill="#12100D" points="471.1,73.6 470.8,72.8 470.5,72.1 470,70.6 470.5,72.1 
		470.8,72.8 471.1,73.6 471.7,75.9 472.2,78.3 472.5,79.5 472.7,80.7 473.1,83.1 473.3,85.6 473.5,88.1 473.6,89.4 473.6,90.6 
		473.6,93.2 473.6,94.5 473.5,95.8 473.4,98.5 473.3,99.8 473.1,101.2 473,102.5 472.8,103.9 472.6,105.3 472.4,106.6 472.1,108 
		471.9,109.4 471.3,112.2 470.9,113.7 470.6,115.1 469.8,118 469.4,119.5 469,120.9 468,123.9 467,126.9 465.8,129.9 464.6,133 
		464,134.5 463.3,136.1 462,139.3 461.2,140.8 460.5,142.4 458.9,145.6 458.1,147.2 457.3,148.9 456.4,150.5 455.5,152.2 
		454.6,153.8 453.7,155.5 452.7,157.1 451.8,158.8 449.8,162.2 448.8,163.9 447.7,165.6 447.5,167.2 447.4,167.9 447.4,168.1 
		447.3,168.3 447.3,168.7 447.2,169 447.2,169.2 447.2,169.4 447.1,170.1 446.8,171.4 446.5,172.7 446.3,173.3 446.2,173.9 
		446,174.4 445.8,175 445.6,175.5 445.5,176.1 445,177 444.8,177.5 444.6,178 444.1,178.8 443.9,179.2 443.7,179.6 443.1,180.2 
		442.6,180.9 442,181.5 441.7,181.7 441.6,181.8 441.5,181.9 441.5,182 441.5,183.4 441.6,184.8 441.7,187.7 441.7,188.3 
		441.7,188.9 441.6,190 441.5,192.3 441.5,192.6 441.9,194.6 442.1,196.5 442.2,197.4 442.3,197.7 442.3,197.9 442.4,198.4 
		442.6,200.3 442.8,202.2 442.8,203.2 442.9,204.1 442.9,205.1 443,206 443.1,207.9 443.7,207.2 444.2,206.4 444.5,206 444.8,205.7 
		445.3,204.8 445.9,204 446.4,203.1 446.5,202.9 446.6,202.6 446.9,202.2 447.4,201.2 447.7,200.7 447.9,200.2 448.4,199.2 
		448.8,198.1 449.1,197.6 449.3,197.1 449.8,195.9 449.8,195.6 450,195.3 450.2,194.8 450.6,193.6 451,192.3 450.5,194.1 
		450.4,194.5 450.3,194.9 450.1,195.8 449.6,197.4 449.1,199 448.6,200.5 448.1,202 447.6,203.5 447.1,204.9 446.6,206.2 
		446.1,207.4 445.6,208.7 445.1,209.8 444.6,210.9 444.3,211.5 444,212 443.5,213 443.3,213.5 443,213.9 442.9,215.5 442.8,217.2 
		442.6,218.7 442.5,220.4 443.6,219.1 444.7,217.8 445.2,217.2 445.8,216.5 446.3,215.9 446.9,215.2 447.9,213.9 449,212.5 
		450,211.1 450.5,210.3 451,209.6 452,208.2 453,206.7 454,205.2 455,203.6 455.4,202.8 455.7,202.4 455.9,202.1 456.8,200.5 
		457.8,198.8 458.2,198 458.5,197.6 458.7,197.2 459.6,195.5 460.5,193.8 461.3,192.1 462.2,190.3 463,188.5 463.9,186.7 
		464.1,186.2 464.3,185.7 464.7,184.8 465.5,183 465.9,182 466.3,181.1 466.7,180.1 467.1,179.1 467.8,177.2 468.6,175.2 
		469.3,173.2 469.7,172.2 470,171.2 470.4,170.1 470.7,169.1 471.5,167 471.9,165.6 472.1,164.8 472.4,164 472.9,162.3 473.3,160.6 
		473.8,158.9 474.2,157.2 474.7,155.5 475.6,152.1 476,150.4 476.4,148.7 477.2,145.2 477.2,144.7 477.3,144.3 477.5,143.4 
		477.9,141.7 478.6,138.2 478.8,137.3 478.9,136.8 479,136.4 479.3,134.6 480,131 480.6,127.4 480.6,126.9 480.7,126.4 480.9,125.5 
		481.2,123.7 481.4,121.8 481.5,121.4 481.6,120.9 481.7,120 482.2,116.3 482.5,114.4 482.7,112.6 483.2,108.8 483.4,106.8 
		483.5,104.8 483.7,102.8 483.8,100.8 483.9,98.8 483.9,96.9 483.9,94.9 483.8,93 483.7,91 483.6,89 483.4,87.1 483.3,85.1 
		483,83.2 482.7,81.3 482.4,79.3 482.1,77.4 481.7,75.5 481.2,73.6 480.8,71.7 480.3,69.8 479.7,67.9 479.1,66 478.5,64.1 
		477.8,62.2 477.1,60.3 476.4,58.4 475.6,56.6 474.8,54.7 473.9,52.9 473.1,51 472.1,49.1 471.2,47.3 470.1,45.6 468.9,44 
		467.8,42.4 466.6,40.9 465.5,39.3 464.3,37.8 463,36.4 461.8,35 460.5,33.6 459.2,32.3 457.8,31 456.5,29.7 455.1,28.5 453.7,27.3 
		452.3,26.2 450.9,25.1 449.4,24 447.9,22.9 446.4,21.9 444.8,21 443.3,20 441.7,19.2 440,18.3 438.4,17.5 436.8,16.7 435.1,16 
		433.4,15.3 431.6,14.6 429.9,14 428.1,13.4 426.3,12.8 424.5,12.3 423.9,12 422,11.4 420.1,10.9 418.2,10.4 416.3,9.9 414.3,9.5 
		412.3,9.1 410.3,8.8 408.3,8.5 406.2,8.2 404.1,8 402,7.8 399.8,7.7 397.6,7.5 395.4,7.5 393.2,7.4 390.9,7.4 388.6,7.4 386.3,7.5 
		383.9,7.6 381.6,7.7 379.1,7.9 376.7,8.1 374.3,8.4 371.8,8.7 369.2,9 366.7,9.4 364.1,9.8 361.5,10.2 358.9,10.7 356.2,11.2 
		353.6,11.7 350.9,12.3 346.5,13.4 342.2,14.6 338,15.9 333.7,17.4 331.6,18.1 329.5,18.9 325.3,20.6 321.2,22.4 319.1,23.3 
		317.1,24.3 313,26.4 310.9,27.4 308.9,28.5 306.8,29.6 304.8,30.8 300.8,33.2 296.8,35.7 292.9,38.4 290.9,39.7 288.9,41.1 285,44 
		286.7,46.1 287.5,47.1 288.2,48.2 289,49.2 289.1,49.3 289.2,49.4 289.3,49.7 289.7,50.2 291.1,52.3 291.8,53.3 292.4,54.4 
		293.7,56.4 294.3,57.5 294.8,58.5 295.9,60.6 298.4,58.8 301,57 303.5,55.3 306,53.7 308.5,52.1 311.1,50.6 313.6,49.1 316.1,47.6 
		318.6,46.2 321.1,44.9 323.6,43.6 324.9,42.9 326.1,42.3 328.6,41.1 331.1,40 333.6,38.9 336.1,37.8 338.6,36.8 341.1,35.8 
		343.6,34.9 346.1,34 348.6,33.2 351.1,32.4 353.6,31.7 356.1,31 358.5,30.4 361,29.8 363.5,29.2 366,28.8 368.4,28.3 370.9,27.9 
		373.4,27.6 375.9,27.3 377.4,27.3 379,27.3 380.5,27.3 382,27.4 383.4,27.5 384.9,27.6 386.3,27.7 387.7,27.8 389,27.9 390.3,28.1 
		391.6,28.3 392.9,28.5 394.1,28.7 395.3,28.9 396.5,29.2 397.6,29.5 398.8,29.7 399.9,30 400.9,30.3 402,30.7 403,31 404,31.4 
		404.9,31.8 405.8,32.2 406.7,32.6 407.6,33.1 408.4,33.5 409.2,34 410,34.5 410.8,35 411.5,35.5 412.2,36.1 412.9,36.7 413.5,37.2 
		414.1,37.8 414.7,38.5 415.3,39.1 415.8,39.7 416.3,40.4 416.8,41.1 417.2,41.8 417.6,42.5 418,43.3 418.3,44 418.7,44.8 419,45.6 
		419.2,46.4 419.5,47.3 419.7,48.1 419.9,49 420.1,49.8 420.2,50.8 420.3,51.7 420.4,52.6 420.4,53.6 420.4,54.5 420.4,55.5 
		420.4,56.5 420.3,57.6 420.2,58.6 420.1,59.7 419.9,60.7 419.7,61.8 419.6,63 419.3,64.1 419,65.2 418.7,66.2 418.4,67.3 418,68.3 
		417.5,69.4 417.1,70.4 416.8,70.9 416.6,71.4 416.1,72.3 415.8,72.8 415.5,73.3 415.2,73.8 415,74.2 414.6,74.7 414.3,75.2 
		414,75.6 413.7,76.1 413,77 412.2,77.8 411.5,78.7 411.1,79.1 410.7,79.5 409.8,80.4 408.9,81.2 408.1,82 407.1,82.7 406.1,83.5 
		405.6,83.8 405.1,84.2 404.6,84.6 404.1,85 403,85.6 402.4,86 401.9,86.3 401.3,86.7 400.7,87 399.6,87.7 398.9,88 398.3,88.3 
		397.1,88.9 395.8,89.5 394.5,90.1 393.8,90.4 393.1,90.7 392.4,90.9 391.7,91.2 390.3,91.8 388.8,92.3 387.3,92.8 385.8,93.3 
		384.2,93.7 382.6,94.2 380.9,94.6 379.3,95 377.6,95.4 376.7,95.6 375.8,95.8 374.9,96 374,96.2 373.1,96.3 372.2,96.5 370.4,96.9 
		368.5,97.2 366.6,97.5 365.6,97.6 364.6,97.8 363.6,97.9 362.6,98 360.6,98.3 358.5,98.5 356.4,98.7 354.3,98.9 352.1,99.1 
		349.9,99.3 347.7,99.4 345.4,99.5 344.3,99.6 343.1,99.7 340.8,99.8 339.6,99.8 338.4,99.9 337.2,99.9 336,99.9 333.6,100 
		335.3,100.8 337.1,101.7 338,102.1 338.9,102.6 340.8,103.7 341.7,104.3 342.7,104.9 344.6,106.1 346.6,107.5 348.7,109 
		351.1,108.6 353.6,108.3 356,108.1 358.6,108 358.8,108 359.1,108 360.5,107.9 361.9,107.9 363.3,107.9 364.6,107.9 365.9,108 
		367.3,108 368.5,108.1 369.8,108.2 371.1,108.3 372.3,108.5 373.5,108.6 374.7,108.8 375.9,109 377,109.2 378.2,109.4 379.3,109.7 
		380.4,110 381.5,110.3 381.7,110.2 382,110.1 382.3,110 382.6,109.9 383,109.7 383.4,109.5 383.7,109.3 384.1,109 384.6,108.7 
		385,108.3 385.5,107.9 386,107.5 386.5,107.1 387,106.6 387.6,106.1 388.1,105.6 388.6,105.1 389,104.8 389.5,104.4 390,104.1 
		390.5,103.9 391,103.6 391.6,103.5 392.1,103.3 392.7,103.2 393.3,103.1 393.9,103.1 394.5,103.1 395.1,103.2 395.7,103.3 
		396.4,103.4 397.1,103.6 399.1,102.3 399.2,102.3 400.6,101.4 401.3,100.9 402,100.4 402.6,99.9 403.3,99.4 404,98.8 404.7,98.3 
		405.9,97.1 407.2,96 408.5,94.7 409.1,94.1 409.4,93.8 409.7,93.5 410.3,92.8 410.9,92.1 412.1,90.7 413.2,89.3 413.5,88.9 
		413.8,88.6 414.3,87.8 414.9,87.1 415.4,86.3 416.5,84.7 416.7,84.3 417,83.9 417.5,83.1 418.6,81.4 419,80.6 419.5,79.7 
		420.5,77.9 420.9,77 421.4,76.1 422.3,74.2 423.2,72.3 423.6,71.3 424,70.3 424.4,69.3 424.8,68.3 425.6,66.3 426.4,64.1 
		426.6,63.6 426.8,63 427.1,62 427.5,60.8 427.8,59.7 428.2,58.6 428.4,58 428.5,57.5 429.2,55.2 429.8,52.8 430.4,50.4 430.6,49.7 
		430.7,49.1 431,47.9 431.2,50 431.2,51.1 431.2,51.6 431.3,52.2 431.3,53.2 431.3,54.3 431.3,54.8 431.3,55.3 431.3,56.4 
		431.2,57.4 431.2,58.5 431,60.5 430.8,62.6 430.6,64.6 430.2,66.6 429.9,68.7 429.7,69.6 429.5,70.1 429.5,70.6 429.2,71.6 
		429,72.6 428.8,73.1 428.7,73.6 428.4,74.6 427.8,76.6 427.2,78.5 426.5,80.4 425.7,82.3 424.9,84.2 424,86.1 423.6,87 423.1,87.9 
		422.6,88.9 422.1,89.8 421.6,90.7 421.3,91.2 421.1,91.6 420,93.4 418.8,95.3 418.2,96.1 417.6,97 416.3,98.8 415,100.6 
		414.3,101.4 413.6,102.3 413.3,102.7 412.9,103.2 412.2,104 411.8,104.5 411.4,104.9 410.7,105.8 409.9,106.6 409.5,107 
		409.2,107.5 407.6,109.2 408,109.3 408.5,109.5 408.9,109.6 409.3,109.8 409.7,110.1 410,110.3 410.4,110.6 410.7,110.9 
		410.9,111.2 411.2,111.5 411.4,111.8 411.6,112.2 411.7,112.6 411.8,113 412,113.4 412.1,113.9 412.1,114.3 412.1,114.8 
		412.1,115.3 412.1,115.9 412,116.4 411.9,117 411.8,117.5 411.7,118.1 411.5,118.8 411.3,119.4 411.1,120.1 410.9,120.8 
		410.6,121.5 410.3,122.2 409.9,122.9 409.6,123.7 410.1,124.1 410.6,124.5 410.9,124.1 411,124 411.2,123.9 411.4,123.8 
		411.7,123.7 412,123.7 412.3,123.6 412.8,123.2 413.4,122.9 414.5,122.3 415,122 415.6,121.8 416.1,121.6 416.6,121.4 417.1,121.2 
		417.6,121.1 418.6,120.9 419.1,120.8 419.6,120.8 420,120.8 420.5,120.9 421.4,121 421.8,121.1 422.2,121.2 422.6,121.4 423,121.6 
		423.4,121.8 423.9,122.1 424.6,122.6 425,122.9 425.4,123.3 425.7,123.6 426.1,124.1 426.4,124.5 426.8,125 427.8,123.5 428.9,122 
		430.9,119.1 431.8,117.6 432.8,116.2 433.7,114.8 434.6,113.3 435.5,111.9 436.4,110.4 437.2,109 438,107.6 438.8,106.1 
		439.5,104.7 440.3,103.3 441,101.9 442.3,99 443.6,96.2 444.2,94.8 444.7,93.4 445.3,92 445.8,90.6 446.8,87.8 447.6,85 448,83.6 
		448.4,82.2 448.8,80.8 449.1,79.5 449.7,76.7 450.2,74 450.6,71.2 450.9,68.5 451,65.8 451.2,63.1 451.2,61.8 451.2,60.5 
		451.1,57.8 450.9,55.1 450.8,53.8 450.6,52.5 450.2,49.9 449.8,47.3 449.2,44.6 448.9,43.3 448.6,42 447.8,39.4 447,36.9 447.7,38 
		448.4,39.1 449.1,40.2 449.8,41.4 450.4,42.5 451,43.7 451.5,44.9 452.1,46.2 452.5,47.4 453,48.6 453.5,49.9 453.8,51.2 
		454.2,52.5 454.6,53.8 454.9,55.1 455.1,56.5 455.4,57.8 455.6,59.2 455.7,60.6 455.9,62 456,63.4 456.1,64.9 456.1,66.3 
		456.2,67.8 456.1,69.3 456.1,70.8 456,72.3 455.9,73.9 455.7,75.4 455.6,77 455.4,78.6 455.2,80.2 454.9,81.8 454.6,83.4 454.2,85 
		453.9,86.7 453.5,88.4 453,90.1 452.6,91.8 452.1,93.5 451.5,95.2 451,97 450.4,98.8 449.8,100.6 449.1,102.4 448.4,104.2 
		447.7,106 447,107.9 446.2,109.7 445.4,111.6 444.5,113.5 443.7,115.4 442.7,117.3 441.8,119.3 440.8,121.3 439.8,123.3 
		438.8,125.3 437.7,127.3 436.6,129.3 435.5,131.3 434.3,133.4 433.1,135.5 431.9,137.6 430.6,139.7 430.8,140.1 431,140.6 
		431.2,141.6 431.3,142 431.3,142.5 431.3,142.9 431.4,143.4 431.3,143.9 431.3,144.3 431.3,144.8 431.2,145.2 431.1,145.7 
		431,146.1 430.6,147 431.9,149.1 433,151.2 433.2,150.8 433.5,150.4 433.9,150.1 434.2,149.8 434.6,149.5 435.1,149.3 435.6,149.1 
		436.1,149 436.6,148.9 437.2,148.9 437.8,148.9 438.5,149 439.1,149.1 439.9,149.2 440.6,149.4 441.5,149.7 441.8,149.7 
		442.1,149.9 442.5,150 442.8,150.2 443.1,150.4 443.3,150.6 443.6,150.8 443.8,151.1 444,151.4 444.3,151.8 444.4,152.1 
		444.6,152.5 444.8,152.9 444.9,153.3 445,153.8 445.1,154.3 446.9,151.6 448.6,148.9 450.3,146.3 451.9,143.6 453.4,141 
		454.9,138.3 456.3,135.7 457.6,133.1 458.9,130.5 460.1,127.9 461.3,125.3 462.4,122.8 463.4,120.2 464.4,117.7 465.3,115.1 
		466.1,112.6 466.9,110.1 467.6,107.5 468.2,105 468.8,102.6 469.4,100.1 469.8,97.6 470.2,95.2 470.6,92.7 470.9,90.3 471.1,87.9 
		471.3,85.4 471.3,83.1 471.4,80.7 471.3,78.3 471.3,75.9 	"/>
	<path fill-rule="evenodd" clip-rule="evenodd" d="M266.6,110.6l8.4-7.5h0.7l-8.2,10.7c-0.9-0.1-1.5-0.5-1.6-1.4
		C265.9,111.9,266.1,111.3,266.6,110.6z"/>
	<polygon fill-rule="evenodd" clip-rule="evenodd" fill="#9F9C9B" points="304.9,131.7 305,131.6 305.2,131.5 305.1,130.7 
		304.9,129.9 304.6,128.5 304.2,127.1 304,126.4 303.8,125.7 303.3,124.3 303,123.7 302.8,123.1 302.2,121.8 301.6,120.6 
		300.9,119.4 300.2,118.3 299.8,117.7 299.5,117.2 298.7,116.1 298.2,115.6 297.8,115.1 296.9,114.1 295.9,113.2 295,112.3 
		294.2,113.7 293.5,115 293.1,115.6 292.8,116.2 292.5,116.7 292.2,117.3 291.9,117.8 291.6,118.3 291.3,118.8 291,119.2 
		290.8,119.6 290.5,120 290.1,120.8 289.9,121.1 289.7,121.4 289.3,122 289.2,122.2 289,122.4 288.8,122.8 288.6,122.9 288.6,123.1 
		288.4,123.3 288.3,123.3 288.3,123.3 288.2,123.4 288.2,123.4 287.5,124 286.8,124.6 286.1,125.2 285.4,125.8 284.7,126.4 
		284,126.9 283.4,127.4 282.7,127.8 282.1,128.2 281.4,128.7 280.8,129 280.2,129.4 279.6,129.7 279,130 278.4,130.3 277.8,130.5 
		277.3,130.7 276.7,130.9 276.2,131.1 275.6,131.2 275.1,131.3 274.6,131.4 274.1,131.4 273.6,131.4 273.1,131.4 272.6,131.4 
		272.1,131.3 271.7,131.2 271.2,131.1 270.8,130.9 270.4,130.8 269.9,130.6 269.5,130.3 269.1,130 268.7,129.7 268.3,129.4 
		267.9,129.1 267.6,128.7 267.2,128.3 266.9,127.9 266.5,127.4 266.2,126.9 265.9,126.4 265.6,125.9 265,124.7 264.7,124.1 
		264.5,123.4 264.2,122.7 263.9,122 263.7,121.3 263.5,120.5 263,118.9 262.8,118 262.6,117.1 262.5,116.2 262.3,115.3 262.1,114.3 
		262,113.3 261.8,112.3 261.7,111.3 261.5,110.2 261.4,109.1 272.9,97.2 270.2,96.7 268.9,96.5 267.6,96.3 266.2,96.2 265,96 
		263.7,95.9 262.4,95.9 262.2,95.8 262,95.9 260.3,95.7 258.7,95.6 257,95.6 255.5,95.6 253.9,95.6 252.3,95.6 250.8,95.7 
		249.3,95.8 247.8,96 246.4,96.1 244.9,96.3 243.5,96.6 242.1,96.8 240.8,97.1 239.4,97.5 238.1,97.8 236.8,98.2 235.6,98.6 
		234.3,99.1 233.1,99.5 231.9,100 230.8,100.6 229.6,101.1 228.5,101.7 227.4,102.3 226.3,103 225.2,103.7 224.2,104.4 223.2,105.1 
		222.2,105.9 221.2,106.8 220.3,107.6 219.3,108.5 218.3,109.5 217.4,110.4 216.5,111.4 214.8,113.4 213.3,115.4 211.8,117.4 
		210.6,119.5 210,120.6 209.4,121.7 208.9,122.8 208.4,123.9 207.7,125.6 207.1,127.3 206.6,129.1 206.2,130.9 205.8,132.7 
		205.5,134.5 205.4,136.4 205.3,138.3 205.2,140.2 205.3,142.1 205.4,144.1 205.7,146 206,148 206.4,150.1 206.9,152.1 207.5,154.2 
		207.8,155.5 208.3,156.7 209.2,159.3 209.7,160.6 210.3,161.9 210.8,163.2 211.5,164.5 212.7,163.1 213.3,162.4 214,161.7 
		214.7,161 215.5,160.3 216.2,159.6 217,159 218.6,157.7 220.3,156.6 222,155.4 222.9,154.8 223.9,154.3 225.8,153.2 227.9,152.2 
		230,151.2 231,150.8 232.2,150.3 233.3,149.9 234.5,149.5 236.8,148.6 239.3,147.9 241.9,147.2 243.2,146.8 244.5,146.5 
		247.2,145.9 250,145.3 252.9,144.8 254.4,144.5 255.9,144.3 257.4,144 259,143.8 260.5,143.6 262.1,143.5 265.4,143.1 268.7,142.9 
		270.4,142.7 272.1,142.6 273.8,142.5 275.6,142.4 279.2,142.3 282.8,142.2 284.7,142.2 286.6,142.2 288.5,142.2 290.4,142.2 
		292.4,142.2 294.4,142.3 296.1,142.3 298.1,139.6 300.2,136.9 301.3,135.6 302.5,134.3 303.7,133 	"/>
	<polygon fill-rule="evenodd" clip-rule="evenodd" fill="#9F9C9B" points="269.3,150.4 271.8,150.2 274.5,150.1 277.1,150.1 
		279.8,150 282.6,150.1 285.4,150.1 288.2,150.2 291.1,150.4 292.1,148.5 293.3,146.5 294.4,144.6 295.7,142.8 295.9,142.5 
		296.1,142.3 294.4,142.3 292.4,142.2 290.4,142.2 288.5,142.2 286.6,142.2 284.7,142.2 282.8,142.2 279.2,142.3 275.6,142.4 
		273.8,142.5 272.1,142.6 270.4,142.7 268.7,142.9 265.4,143.1 262.1,143.5 260.5,143.6 259,143.8 257.4,144 255.9,144.3 
		254.4,144.5 252.9,144.8 250,145.3 247.2,145.9 244.5,146.5 243.2,146.8 241.9,147.2 239.3,147.9 236.8,148.6 234.5,149.5 
		233.3,149.9 232.2,150.3 231,150.8 230,151.2 227.9,152.2 225.8,153.2 223.9,154.3 222.9,154.8 222,155.4 220.3,156.6 218.6,157.7 
		217,159 216.2,159.6 215.5,160.3 214.7,161 214,161.7 213.3,162.4 212.7,163.1 211.5,164.5 211.3,165 211.2,165.5 211,165.9 
		211,166.4 210.8,167.2 210.8,167.5 210.8,167.9 210.8,168.2 210.8,168.6 210.9,169.2 210.9,169.5 211,169.7 211.2,170 211.3,170.2 
		211.4,170.4 211.6,170.5 211.8,170.7 212,170.8 212.2,171 212.4,171.1 213,171.2 213.6,171.3 213.9,171.3 214.3,171.3 214.6,171.3 
		215,171.3 215.4,171.2 215.9,171.1 216.3,170.7 216.7,170.4 218,169.3 219.2,168.2 220.5,167.2 221.8,166.2 223.1,165.2 
		224.5,164.3 225.9,163.4 227.3,162.5 228.7,161.6 230.2,160.8 231.7,160 233.2,159.3 234.8,158.6 236.3,157.9 237.9,157.2 
		239.6,156.6 241.2,156 242.9,155.4 244.6,154.8 246.3,154.3 248.1,153.8 249.9,153.3 251.7,152.9 253.5,152.5 255.4,152.1 
		257.3,151.8 259.2,151.5 261.2,151.2 263.1,151 265.1,150.7 267.2,150.5 	"/>
	<path fill-rule="evenodd" clip-rule="evenodd" d="M208.4,123.9l-2-0.3l-2-0.4l-2-0.4l-2-0.5l-2-0.5l-2-0.6l-1.9-0.6l-1.9-0.7
		l-1.9-0.8l-1.9-0.8l-1.9-0.9l-1.9-0.9l-1.9-1l-1.8-1.1l-1.8-1.1l-1.8-1.2l-1.8-1.3l-1.8-1.3l-1.8-1.4l-1.8-1.4l-1.8-1.5l-1.7-1.5
		l-1.7-1.6l-1.7-1.6l-1.7-1.7l-1.7-1.8l-1.7-1.8l-1.6-1.9l-1.7-2l-1.6-2l-1.6-2.1l-1.6-2.1l0.5,2l0.5,2l0.5,2l0.6,1.9l0.6,1.9
		l0.6,1.9l0.6,1.8l0.6,1.8l0.6,1.8l0.6,1.7l0.6,1.7l0.7,1.7l0.7,1.6l0.7,1.6l0.7,1.6l0.7,1.6l0.7,1.5l0.7,1.5l0.7,1.5l0.8,1.5
		l0.8,1.4l0.8,1.4l0.8,1.4l0.8,1.3l0.8,1.3l0.8,1.3l0.8,1.3l0.9,1.2l0.9,1.2l0.9,1.2l0.9,1.1l0.9,1.1l0.9,1l0.9,1l0.9,1l0.9,1
		l0.9,0.9l1,0.9l1,0.9l1,0.9l1,0.8l1,0.8l1,0.8l1,0.8l1,0.7l1.1,0.7l1.1,0.7l1.1,0.6l1.1,0.6l1.1,0.5l1.1,0.5l1.1,0.5l1.1,0.5
		l1.2,0.4l1.2,0.4l1.2,0.4l1.2,0.3l1.2,0.3l1.2,0.3l1.2,0.3l1.2,0.2l1.3,0.2l1.3,0.2l1.3,0.2l-0.6-2.1l-0.5-2l-0.4-2l-0.3-2l-0.2-2
		l-0.2-2l-0.1-1.9l0-1.9l0.1-1.9l0.2-1.9l0.3-1.8l0.4-1.8l0.4-1.8l0.5-1.8l0.6-1.7L208.4,123.9L208.4,123.9z M206.3,125
		c-4,11.3-3.2,19.9-0.4,27.4c-32.3-6.2-45.5-35.8-53.4-63.3C166.8,107.9,182.3,121.4,206.3,125z"/>
	<path fill-rule="evenodd" clip-rule="evenodd" d="M159.8,105.5c-0.6-1.3,0.6-1.8,1.5-1c7.4,15.8,16.3,29,24.6,33.6
		c0.6,0.7,0.7,1.6-1,1.6C174,132,166.9,121.5,159.8,105.5z"/>
	<path fill-rule="evenodd" clip-rule="evenodd" d="M188,142.3c-1.1-0.9-0.2-1.9,1-1.5c4.3,3.3,8,4.8,11.1,4.5
		c0.9,0.4,1.3,1.1-0.3,1.8C194.8,147.1,191,144.7,188,142.3z"/>
	<path fill-rule="evenodd" clip-rule="evenodd" d="M361.7,106.7c7.5,0,14.7,1,21.6,2.9l-2.5,1.3c-5.8-1.4-11.8-2.2-18-2.3
		c-25,36.2-34.5,63-26.4,87.9c14-6.3-2.4-36,31.5-57.5l5.1,4.1c-35.5,23.6-14.7,48.8-35.1,57.5c1.7,4.1,3.9,8.2,6.5,12.2
		c18.2-7.5,35.5-22.7,56-41.7l3.5,3.8c-12.8,12.5-31.6,33.2-55.7,43.4c1,1.3,2.1,2.6,3.2,3.9c34.1-24.3,38.3,38.1,89.4-32.2
		c0-0.7,0-1.4,0-2.1c0-1.7-0.1-3.3-0.2-5l1.7-2c0.2,2.3,0.3,4.6,0.3,7c0,44.9-36.3,81.3-81.1,81.3c-6.9,0-13.6-0.9-19.9-2.5
		l-0.1,0.2l-1.1-0.5c-34.6-9.3-60-40.9-60-78.5C280.6,143,316.9,106.7,361.7,106.7L361.7,106.7z M433.8,155l1.8-0.6
		c-1.3-3-2.8-5.8-4.5-8.6l-0.9,2.1C431.5,150.2,432.7,152.6,433.8,155L433.8,155z M410.4,125.3l1.1-1.5c-1.4-1.1-2.9-2.2-4.4-3.2
		l-1.2,1.5C407.5,123.1,408.9,124.1,410.4,125.3L410.4,125.3z M354.5,225.5c10,11,23.7,22.1,41.3,34.2
		c23.6-11.3,40.8-33.9,44.5-60.8C396.3,258.8,378.3,209,354.5,225.5L354.5,225.5z M389.8,262.2c-16.5-11.6-29.7-22.4-39.6-33.2
		c-13.7,12.8-1.4,17-7.8,35.9c6.2,1.6,12.6,2.4,19.3,2.4C371.6,267.3,381,265.5,389.8,262.2L389.8,262.2z M347.2,225.7
		c-1.5-1.8-3-3.5-4.3-5.3c-16.2,5.6-34.6,6.1-55.1-3.7c8.6,22.3,27,39.6,49.9,46.9C343.7,255.6,331.3,240.5,347.2,225.7L347.2,225.7
		z M339,214.8c-2.7-4.2-5-8.3-6.7-12.6c-23.1,3.9-22.7-37.5-48.2-30.2c-1,5.1-1.6,10.4-1.6,15.9c0,7.5,1,14.7,3,21.6
		C306,219.1,323,220,339,214.8L339,214.8z M330.5,197.6c-8.1-24.9,0.3-52.3,25.2-88.8c-33.6,2.5-61.4,26.1-70.3,57.5
		C309.5,160.3,312.2,197.2,330.5,197.6z"/>
	<polygon fill-rule="evenodd" clip-rule="evenodd" points="312.7,98.5 312.3,98.9 311.9,99.3 311.6,99.8 311.3,100.3 311.1,100.8 
		310.8,101.3 310.6,101.8 310.5,102.4 310.3,103 310.2,103.6 310.1,104.2 310,104.8 310,105.5 310,106.2 310,106.9 310.1,107.6 
		310.2,108.3 310.2,109.1 310.4,109.9 310.5,110.7 310.7,111.5 310.9,112.3 311.2,113.2 311.4,114.1 311.8,115 312.1,115.9 
		312.4,116.8 312.8,117.8 313.2,118.8 313.6,119.8 314.1,120.8 314.6,121.8 315.1,122.9 316.8,121.7 318.6,120.5 320.3,119.4 
		322.1,118.3 321.2,117.6 320.4,116.9 319.6,116.2 318.8,115.6 318.1,114.9 317.5,114.2 316.8,113.6 316.2,112.9 315.7,112.3 
		315.2,111.6 314.7,111 314.3,110.3 313.9,109.7 313.5,109 313.2,108.4 313,107.8 312.7,107.1 312.5,106.5 312.3,105.9 312.2,105.3 
		312.2,104.6 312.1,104 312.1,103.4 312.2,102.8 312.2,102.1 312.4,101.5 312.6,100.9 312.8,100.3 313,99.7 313.3,99.1 313.6,98.5 
		314,97.9 313.5,98.1 313.3,98.2 312.9,98.4 312.8,98.5 	"/>
	<path fill-rule="evenodd" clip-rule="evenodd" d="M368.1,125.1c2-5.6,10-8,18.2-3.8c4.3,3.5,7,9.9,1.5,16.4
		C378.4,137.4,370.3,133.1,368.1,125.1L368.1,125.1z M370.4,125.8c2.6,5.9,9.1,9.3,15.9,10.2c4.4-5.3,2.3-10.4-1.2-13.2
		C378.5,119.4,372.1,121.3,370.4,125.8z"/>
	<path fill-rule="evenodd" clip-rule="evenodd" stroke="#000000" stroke-width="0.216" stroke-miterlimit="2.6131" d="M420.9,152.9
		c4.5,6.9,2.2,13.6-5,20.5c-0.7-7.2-5.2-8.4-11.8-7.3C409.1,155.8,414.4,149.2,420.9,152.9L420.9,152.9z M419.7,154.6
		c-4.5-2.4-8.2,1.8-12.3,9.2c4.1-0.4,7.5,1.1,9.5,5.9C421.8,163.6,422.4,159.9,419.7,154.6z"/>
	<path fill-rule="evenodd" clip-rule="evenodd" d="M432,179.5c5.3,0.3,6.8,5.6,7.2,6.4c0.2,0.8-0.3,2.1-0.6,2.5
		c-0.2,4.7-2.8,8.1-6.3,10c-0.3,0.1-1-0.5-1.2-0.4c-1.9-3.1-3.2-5.2-6-6.2c-0.9-2.2-0.5-4.7,1.5-7.7
		C429.2,180.8,430.9,179.4,432,179.5L432,179.5z M431.8,181.5c-0.8-0.1-1.5,1.2-3.4,3.7c-1.5,2.3-2.1,3.7-1.5,5.3
		c3.6,1.7,5.4,5.7,5.4,5.7c2.4-2.4,4.3-4.5,4.5-8c0.2-0.3,0.8-2,0.6-2.6C437.1,185.1,435.8,181.8,431.8,181.5z"/>
	<path fill-rule="evenodd" clip-rule="evenodd" d="M428.6,231.1v0.4l0.1,0.4l0.1,0.3l0.1,0.3l0.1,0.3l0.2,0.3l0.2,0.2l0.2,0.2
		l0.2,0.2l0.3,0.2l0.3,0.2l0.3,0.2l0.3,0.1l0.4,0.1l0.4,0.1l0.4,0.1l0.5,0.1l0.3,0l0.1,0l0.2,0h0.1l0.1,0l0.3,0l0.5,0h0.5l0.1,0h0.1
		h0.3l1-0.1l0.4-0.1l0.5-0.1l0.4-0.2l0.4-0.2l0.4-0.2l0.4-0.3l0.4-0.3l0.4-0.3l0.4-0.4l0.4-0.4l0.4-0.4l0.4-0.4l0.3-0.5l0.4-0.5
		l0.3-0.6l0.1-0.2l0.1-0.1l0.2-0.3l0.3-0.6l0.3-0.6l0.3-0.7l0.3-0.7l0-0.2l0.1-0.2l0.1-0.4l0.3-0.8l0.2-0.8l0.3-0.8l-0.9-4.1
		l0.2-1.9l0.2-1.9l0.1-1.9c0.2-3.3-1.6,0.2-2,1l0.4,2.3l-0.2,1.6l-0.2,1.6l0.7,3.5l-0.2,0.7l-0.2,0.7l-0.2,0.6l-0.1,0.3l-0.1,0.2
		l0,0.2l-0.3,0.6l-0.2,0.6l-0.3,0.5l-0.2,0.5l-0.2,0.2l-0.1,0.1l-0.1,0.1l-0.3,0.5l-0.3,0.4l-0.3,0.4l-0.3,0.4l-0.3,0.4l-0.3,0.3
		l-0.3,0.3l-0.4,0.3l-0.3,0.2l-0.4,0.2l-0.3,0.2l-0.4,0.2l-0.4,0.2l-0.4,0.1l-0.4,0.1l-0.8,0.1h-0.2h-0.1l-0.1,0h-0.4l-0.5,0l-0.2,0
		l-0.1,0h-0.1l-0.1,0l-0.1,0l-0.2,0l-0.5-0.1l-0.4-0.1l-0.3-0.1l-0.3-0.1l-0.3-0.1l-0.3-0.2l-0.2-0.1l-0.2-0.2l-0.2-0.2l-0.2-0.2
		l-0.2-0.2l-0.1-0.2l-0.1-0.2l-0.1-0.3l-0.1-0.3l-0.1-0.3L428.6,231.1z"/>
	<path fill-rule="evenodd" clip-rule="evenodd" d="M450.3,192.1l1.4,0.3c-3.8,14.8-7.3,21.7-10.5,25.5c-0.9,0.6-1.3-0.2-1.3-0.9
		c2.6-3.4,4.6-7.7,6.4-12.3c-1.8,2.5-2.7,4-4.7,6.4c-0.9,0.6-1.3-0.2-1.3-0.9C443.8,206.9,446.1,204.7,450.3,192.1z"/>
	<polygon fill-rule="evenodd" clip-rule="evenodd" points="314.2,95.6 314.2,95.6 313.8,96.3 313.4,97 313.1,97.6 312.8,98.3 
		312.6,99 312.4,99.7 312.3,100.3 312.2,101 312.1,101.7 312.1,102.4 312.2,103.1 312.2,103.1 312.2,102.8 312.2,102.1 312.4,101.5 
		312.6,100.9 312.8,100.3 313,99.7 313.3,99.1 313.6,98.5 314,97.9 314,97.9 315,97.5 316,97.2 317,97 318.1,96.8 319.2,96.7 
		320.4,96.7 321.6,96.7 322.8,96.8 324,97 325.3,97.2 326.6,97.5 327.9,97.8 329.3,98.3 330.7,98.8 332.1,99.3 333.6,100 
		335.3,100.8 337.1,101.7 338,102.1 338.9,102.6 340.8,103.7 341.7,104.3 342.7,104.9 344.6,106.1 346.6,107.5 348.3,108.7 
		348.8,108.6 350.8,108.2 352.8,107.9 350.5,106.3 348.3,104.8 346.1,103.4 345,102.7 344,102.1 341.9,100.9 340.9,100.3 
		339.9,99.8 337.9,98.8 336,97.9 334.3,97.2 332.8,96.6 331.2,96 329.7,95.5 328.2,95.1 326.8,94.8 325.4,94.6 324,94.4 322.6,94.3 
		321.3,94.3 320,94.3 318.8,94.4 317.6,94.6 316.4,94.9 315.3,95.2 	"/>
	<path fill-rule="evenodd" clip-rule="evenodd" d="M445.2,149.5l0,4.8l-4,6.1c-1.1,1.2-3-0.3-1.7-1.8L445.2,149.5z"/>
	<path fill-rule="evenodd" clip-rule="evenodd" d="M449.1,163.4l0,4.8l-4,6.1c-1.1,1.2-3-0.3-1.7-1.8L449.1,163.4z"/>
	<path fill-rule="evenodd" clip-rule="evenodd" d="M427.3,119.4l0,4.8l-6.4,9.5c-1.1,1.2-3-0.3-1.7-1.8L427.3,119.4z"/>
	<path fill-rule="evenodd" clip-rule="evenodd" d="M433.9,134.3l0,4.8l-4,6.1c-1.1,1.2-3-0.3-1.7-1.8L433.9,134.3z"/>
	<path fill-rule="evenodd" clip-rule="evenodd" d="M400.4,98.2l-0.5,3.6l-8,5.5c-1.5,0.7-2.7-1.4-0.9-2.3L400.4,98.2z"/>
	<path fill-rule="evenodd" clip-rule="evenodd" d="M411.4,104.9l-1.2,5.1l-7.6,8.6c-1.3,1-3-1-1.4-2.3L411.4,104.9z"/>
	<path fill-rule="evenodd" clip-rule="evenodd" d="M306.2,130.1l0.1-0.2l0.2-0.1l-0.2-0.8l-0.2-0.8l-0.3-1.5l-0.4-1.5l-0.2-0.7
		l-0.2-0.7l-0.5-1.4l-0.3-0.7l-0.3-0.6l-0.6-1.3l-0.6-1.2l-0.7-1.2l-0.7-1.1l-0.4-0.6l-0.4-0.5l-0.8-1.1l-0.5-0.5l-0.5-0.5l-0.9-1
		l-1-1l-1-0.9l-0.8,1.4l-0.2,0.7l1,0.9l0.9,0.9l0.9,1l0.4,0.5l0.4,0.5l0.8,1l0.4,0.5l0.4,0.6l0.7,1.1l0.7,1.2l0.6,1.2l0.6,1.3
		l0.2,0.6l0.3,0.7l0.5,1.3l0.2,0.7l0.2,0.7l0.4,1.4l0.3,1.5l0.2,0.7l0.1,0.5L306.2,130.1L306.2,130.1z M296,142.8l-0.1-0.2l0.2-0.2
		l-1.7-0.1l-2-0.1l-2,0l-2,0l-1.9,0h-1.9l-1.9,0l-3.7,0.1l-3.6,0.1l-1.8,0.1l-1.7,0.1l-1.7,0.1l-1.7,0.1l-3.3,0.3l-3.2,0.3l-1.6,0.2
		l-1.6,0.2l-1.6,0.2l-1.5,0.2l-1.5,0.2l-1.5,0.3l-2.9,0.5l-2.8,0.6l-2.7,0.6l-1.3,0.3l-1.3,0.4l-2.6,0.7l-2.5,0.8l-2.4,0.8l-1.2,0.4
		l-1.1,0.5l-1.1,0.4l-1.1,0.5l-2.1,1l-2,1l-1.9,1.1l-1,0.5l-0.9,0.6l-1.8,1.2l-1.7,1.2L217,159l-0.8,0.6l-0.7,0.7l-0.7,0.7l-0.7,0.7
		l-0.7,0.7l-1.9,2.2l-1.1-1.7l-0.7,0.8l-0.6-1.4l-0.6-1.3l-0.6-1.3l-0.5-1.3l-1-2.6l-0.5-1.3l-0.4-1.3l-0.6-2.2l-0.5-2.1l-0.4-2.1
		l-0.3-2l-0.3-2l-0.2-2l-0.1-2l0-1.9l0.1-1.9l0.2-1.9l0.3-1.9l0.4-1.8l0.5-1.8l0.5-1.8l0.6-1.8l0.7-1.7l0.5-1.1l0.5-1.1l0.6-1.1
		l0.6-1.1l1.3-2.2l1.5-2.1l1.6-2.1l1.7-2l0.9-1l1-1l1-1l1-1l1-0.9l1-0.8l1-0.8l1.1-0.8l1.1-0.8l1.1-0.7l1.1-0.7l1.2-0.6l1.2-0.6
		l1.2-0.6l1.2-0.6l1.3-0.5l1.3-0.5l1.3-0.4l1.3-0.4l1.4-0.4l1.3-0.4l1.4-0.3l1.4-0.3l1.5-0.3l1.4-0.3l1.5-0.2l1.5-0.2l1.5-0.1
		l1.5-0.1l1.6-0.1l1.6-0.1h1.6h1.6l1.7,0.1l1.7,0.1l1.7,0.1l0.2,0l0.3,0l1.3,0.1l1.3,0.1l1.3,0.1l1.4,0.2L269,94l1.4,0.2l5,1.4
		l-4.1,3.2l1.6-1.7l-2.7-0.5l-1.3-0.2l-1.3-0.2l-1.3-0.2L265,96l-1.3-0.1l-1.3-0.1l-0.2,0l-0.2,0l-1.7-0.1l-1.6-0.1l-1.6-0.1h-1.6
		h-1.6l-1.5,0.1l-1.5,0.1l-1.5,0.1l-1.5,0.1l-1.4,0.2l-1.4,0.2l-1.4,0.2l-1.4,0.2l-1.3,0.3l-1.3,0.3l-1.3,0.4l-1.3,0.4l-1.3,0.4
		l-1.3,0.4l-1.2,0.5l-1.2,0.5l-1.2,0.6l-1.2,0.5l-1.1,0.6l-1.1,0.6l-1.1,0.7l-1.1,0.7l-1,0.7l-1,0.7l-1,0.8l-1,0.8l-0.9,0.9l-1,0.9
		l-1,0.9l-0.9,1l-0.9,1l-1.7,2l-1.5,2l-1.4,2l-1.3,2.1l-0.6,1.1l-0.5,1.1l-0.5,1.1l-0.5,1.1l-0.7,1.7l-0.6,1.7l-0.5,1.8l-0.4,1.8
		l-0.4,1.8l-0.3,1.8l-0.2,1.9l-0.1,1.9l0,1.9l0.1,1.9l0.2,2l0.2,2l0.3,2l0.4,2l0.5,2l0.6,2.1l0.4,1.2l0.4,1.3l0.9,2.6l0.5,1.3
		l0.5,1.3l0.1,0.3l0.4-0.4l0.7-0.7l0.7-0.8l0.8-0.7l0.8-0.7l0.8-0.7l1.7-1.4l1.8-1.3l1.9-1.2l1-0.6l1-0.6l2-1.2l2.1-1.1l2.2-1
		l1.1-0.5l1.2-0.5l1.2-0.5l1.2-0.4l2.5-0.9l2.6-0.8l2.7-0.7l1.4-0.4l1.4-0.3l2.9-0.7l2.9-0.6l3-0.5l1.5-0.3l1.6-0.2l1.6-0.2l1.6-0.2
		l1.6-0.2l1.7-0.2l3.4-0.3l3.5-0.3l1.8-0.1l1.8-0.1l1.8-0.1l1.9-0.1l3.8-0.1l3.8-0.1l2,0h2l2,0l2.1,0l2.1,0l2.1,0.1l1.6,0.1l0.5-0.7
		l0.2-0.3l-0.8,1.1l0.2,0l-0.2,0.2l-0.2,0.2L296,142.8z"/>
</g>
</svg>